<?xml version="1.0" encoding="UTF-8"?>
<svg id="Layer_2" data-name="Layer 2" xmlns="http://www.w3.org/2000/svg" viewBox="0 0 169.5 169.5">
  <defs>
    <style>
      .cls-1 {
        fill: #b0914c;
      }
    </style>
  </defs>
  <g id="Layer_1-2" data-name="Layer 1">
    <g>
      <path class="cls-1" d="M87.78,26.44c0-3.7,1.28-6.8,3.83-9.35,2.62-2.63,5.72-3.9,9.35-3.9-3.63,0-6.73-1.28-9.35-3.84-2.55-2.62-3.83-5.71-3.83-9.35,0,3.64-1.28,6.73-3.9,9.35-2.56,2.56-5.65,3.84-9.35,3.84,3.7,0,6.79,1.27,9.35,3.9,2.62,2.55,3.9,5.65,3.9,9.35Z"/>
      <path class="cls-1" d="M81.71,143.07c0,3.7-1.27,6.8-3.83,9.35-2.62,2.62-5.72,3.9-9.35,3.9,3.63,0,6.73,1.28,9.35,3.84,2.56,2.62,3.83,5.71,3.83,9.34,0-3.63,1.28-6.72,3.91-9.34,2.55-2.56,5.64-3.84,9.34-3.84-3.7,0-6.79-1.28-9.34-3.9-2.63-2.55-3.91-5.65-3.91-9.35Z"/>
      <path class="cls-1" d="M113.62,57.34c-1.3-6.41-4.04-11.66-8.22-15.84-4.78-4.64-10.77-6.99-17.83-7.12-8.67,0-16.14,3.02-22.39,9.08-3.68,3.8-6.29,7.93-7.84,12.42-6.42,1.3-11.67,4.04-15.85,8.23-4.65,4.77-7,10.76-7.13,17.82,0,8.68,3.02,16.14,9.08,22.4,3.8,3.69,7.94,6.29,12.43,7.84,1.3,6.41,4.04,11.66,8.23,15.84,4.77,4.65,10.76,7,17.82,7.13,8.68,0,16.14-3.02,22.4-9.08,3.69-3.8,6.29-7.95,7.84-12.44,6.41-1.3,11.65-4.04,15.83-8.21,4.64-4.78,6.99-10.77,7.12-17.83,0-8.67-3.02-16.14-9.08-22.39-3.8-3.69-7.94-6.29-12.42-7.84Zm-45.35,1.52l.4-2.16c2.29-11.09,8.75-20.24,18.9-20.24s13.45,7,14.13,13.99c.13,2.34-.94,4.34-2.69,5.41-12.18,1.53-21.9,10.5-25.31,22.12-.21,.71-.39,1.43-.56,2.16-.41,1.85-.65,3.75-.73,5.69-1.65-2.76-2.88-5.97-3.66-9.44-.16-.67-.29-1.36-.41-2.05-.86-4.98-.87-10.35-.07-15.48Zm13.65,15.68c2.56,0,4.87,.51,6.92,1.43,.81,.36,1.59,.79,2.32,1.28,1.39,.92,2.64,2.06,3.75,3.37,.01,.44,.04,.86,.04,1.31,0,2.56-.51,4.87-1.43,6.92-.36,.81-.79,1.59-1.28,2.32-.93,1.4-2.07,2.66-3.39,3.78-.42,.01-.84,.03-1.28,.03-2.87,0-5.42-.64-7.66-1.78-.83-.42-1.62-.92-2.37-1.48-1.09-.82-2.08-1.77-2.99-2.83-.01-.43-.03-.85-.03-1.29,0-2.87,.64-5.42,1.78-7.66,.42-.83,.92-1.62,1.48-2.37,.81-1.08,1.76-2.07,2.81-2.97,.44-.01,.87-.04,1.32-.04Zm-45.47,7.38c0-10.56,7-13.45,13.99-14.12,2.34-.14,4.35,.93,5.42,2.68,1.53,12.18,10.5,21.9,22.12,25.31,.71,.21,1.43,.39,2.16,.56,1.85,.41,3.76,.65,5.7,.73-2.93,1.76-6.39,3.03-10.12,3.8-.62,.13-1.25,.24-1.88,.35-4.84,.77-10.03,.76-15-.02l-2.15-.4c-11.1-2.29-20.25-8.74-20.25-18.9Zm64.77,28.73l-.4,2.15c-2.29,11.1-8.74,20.25-18.9,20.25s-13.45-7-14.12-13.99c-.14-2.34,.93-4.34,2.68-5.42,12.42-1.56,22.28-10.86,25.51-22.83,.2-.71,.37-1.43,.51-2.16,.32-1.63,.52-3.29,.59-4.99,1.76,2.93,3.02,6.39,3.8,10.11,.13,.62,.24,1.25,.35,1.88,.77,4.84,.76,10.03-.02,15Zm31.82-23.08c0,10.56-7,13.45-13.99,14.13-2.34,.13-4.34-.94-5.41-2.68-1.56-12.42-10.86-22.28-22.83-25.51-.71-.2-1.43-.37-2.16-.51-1.62-.32-3.28-.52-4.98-.59,2.76-1.65,5.97-2.88,9.43-3.66,.67-.16,1.36-.29,2.05-.41,4.98-.86,10.35-.87,15.48-.07l2.16,.4c11.09,2.29,20.24,8.75,20.24,18.9Z"/>
      <path class="cls-1" d="M160.15,83.88c-2.56-2.56-3.84-5.65-3.84-9.35,0,3.7-1.27,6.79-3.9,9.35-2.55,2.62-5.65,3.9-9.35,3.9,3.7,0,6.8,1.28,9.35,3.83,2.63,2.62,3.9,5.72,3.9,9.35,0-3.63,1.28-6.73,3.84-9.35,2.62-2.55,5.71-3.83,9.35-3.83-3.64,0-6.73-1.28-9.35-3.9Z"/>
      <path class="cls-1" d="M13.18,68.53c0,3.63-1.28,6.73-3.84,9.35-2.62,2.56-5.71,3.83-9.34,3.83,3.63,0,6.72,1.28,9.34,3.91,2.56,2.55,3.84,5.64,3.84,9.34,0-3.7,1.28-6.79,3.9-9.34,2.55-2.63,5.65-3.91,9.35-3.91-3.7,0-6.8-1.27-9.35-3.83-2.62-2.62-3.9-5.72-3.9-9.35Z"/>
    </g>
  </g>
</svg>