<?xml version="1.0" encoding="UTF-8"?>
<svg id="Layer_1" data-name="Layer 1" xmlns="http://www.w3.org/2000/svg" viewBox="0 0 200 200">
  <defs>
    <style>
      .cls-1 {
        fill: #be9952;
      }
    </style>
  </defs>
  <path id="Path_1515" data-name="Path 1515" class="cls-1" d="m62.8,136.94c-.28-.27-.51-.59-.68-.94-.2-.65.39-1.23,1.16-1.23h6.51v-41.49h-1.62c-.85,0-1.33-.44-1.31-1.14,0-.68.48-1.08,1.3-1.09h2.17c1.42,0,1.69.29,1.69,1.67v42h3.92v-30.42c0-.6.45-1.1,1.05-1.14.61,0,1.1.48,1.11,1.09,0,.02,0,.04,0,.05.02.68,0,1.37,0,2.1.27,0,.49.03.72.03h8.74c.78,0,1.24.39,1.28,1.04.05.58-.39,1.08-.96,1.13-.07,0-.13,0-.2,0h-9.5c0,.24-.03.44-.03.65v6.06c0,.56.19.67.7.67,3.12-.02,6.26,0,9.38,0h.51c.85.02,1.37.43,1.37,1.09s-.53,1.1-1.37,1.1h-10.54v7.3h10.87c.58.06,1.02.54,1.02,1.13-.01.55-.44,1.01-.99,1.06-.23.03-.47.04-.7.03h-10.18v7.01c.2,0,.41.03.61.03h12.39c.4.06.78-.2.85-.6,2.07-6,2.97-12.34,2.66-18.67-.56-9.31-3.67-17.54-10.6-24.04-1.72-1.45-3.52-2.8-5.39-4.06-.16-.1-.34-.19-.51-.27v9.73c.2,0,.44.03.65.03h5.24c1.02,0,1.64.9,1.11,1.65-.24.31-.6.51-.99.55-2.35.05-4.73.03-7.08,0-.61.04-1.13-.42-1.17-1.03,0-.07,0-.13,0-.2v-12.51c0-1.04.84-1.48,1.84-.97,5.33,2.63,9.85,6.66,13.05,11.67,2.91,4.59,4.79,9.75,5.53,15.13.6,4.13.67,8.31.2,12.45-.38,3.52-1.12,7-2.2,10.37-.07.22-.12.44-.2.72,1.23,0,2.41,0,3.57-.02.17,0,.41-.27.46-.46.77-2.9,1.6-5.8,2.22-8.75.68-3.43.94-6.92.8-10.41-.27-8.56-2.42-16.53-7.58-23.51-4.4-5.94-10.62-10.29-17.71-12.37-.77-.24-1.14-.65-1.11-1.21.04-.61.57-1.08,1.18-1.04.12,0,.24.04.35.08,4.79,1.4,9.24,3.75,13.09,6.93,6.79,5.63,10.82,12.91,12.8,21.43,1.2,5.38,1.51,10.93.92,16.41-.41,4.16-1.27,8.27-2.56,12.25-.07.19-.1.39-.17.67.67,0,1.28.02,1.89,0,.63-.03,1.16.1,1.36.77.22.68-.19,1.07-.68,1.42h-40.25v.07Z"/>
  <path id="Path_1516" data-name="Path 1516" class="cls-1" d="m82.29,106.9v-4c0-.45.24-.73.61-.74.33-.03.62.2.66.53.02.14.02.27.02.41v7.97c0,.35-.29.63-.64.63-.35,0-.63-.29-.63-.64,0-.43,0-.87,0-1.31v-2.84h-.02Z"/>
</svg>