<?xml version="1.0" encoding="UTF-8"?>
<svg id="Layer_1" data-name="Layer 1" xmlns="http://www.w3.org/2000/svg" viewBox="0 0 200 200">
  <defs>
    <style>
      .cls-1 {
        fill: #be9952;
      }
    </style>
  </defs>
  <path id="Marquis_Signature_Landing_Assets-22.a98ab09304575e27bf3cb61b0ac99072" data-name="Marquis Signature Landing Assets-22.a98ab09304575e27bf3cb61b0ac99072" class="cls-1" d="m114.92,128.83c-.21-.54-.65-.61-1.15-.58-.15,0-.32-.01-.47,0-.35.04-.5-.07-.47-.44.03-.43.01-.86,0-1.29.01-.97-.76-1.77-1.73-1.78-.04,0-.08,0-.12,0-.82,0-1.64-.03-2.46,0-.49.03-.62-.12-.61-.61.03-3.11,0-6.21,0-9.32.1-.91-.46-1.76-1.33-2.03-.29-.06-.48-.35-.43-.64.01-1,0-5.51,0-6.9.35-1.24-.17-2.55-1.28-3.21-.33-.17-.52-.53-.49-.9.01-3.03-.03-6.05.03-9.08.14-1.04-.41-2.05-1.36-2.49-.31-.14-.49-.47-.43-.81.01-.72.01-1.44,0-2.15,0-1.5-.07-6.21.01-7.05.22-1.3-.32-2.61-1.4-3.37-.28-.22-.42-.57-.38-.92.01-1.35,0-2.69,0-4.04.02-.23-.01-.47-.08-.69-.13-.39-.54-.61-.94-.51-.45.07-.77.48-.72.93,0,1.19-.07,2.39.01,3.57.13.86-.23,1.71-.93,2.22-.61.48-.93,1.24-.85,2.01.03,1.36-.04,2.74.03,4.1.1.78-.23,1.55-.86,2.01-.67.53-1.02,1.37-.93,2.22.04,2.3,0,4.61.03,6.91.06.45-.18.89-.6,1.08-.81.39-1.29,1.25-1.19,2.15.03,2.87,0,5.75.01,8.61.06.35-.12.7-.44.86-.95.45-1.49,1.46-1.33,2.5.06,2.6.03,5.19.01,7.79,0,.24.08.47-.29.6-.97.16-1.63,1.08-1.46,2.05,0,.01,0,.02,0,.03v3.8c0,1.26,0,1.24-1.25,1.25h-.18c-.92.01-1.68.74-1.72,1.67-.03.29,0,.58,0,.88q0,.97-.93.97c-.5,0-.94.04-1.15.58s.12.88.5,1.18h28.84c.38-.31.71-.62.5-1.18m-8.76-13.59v4.39c0,1.53-.01,3.04,0,4.57,0,.44-.12.56-.56.54-1.21-.03-1.21,0-1.21-1.24,0-2.9.01-5.8-.01-8.72,0-.61.29-.68.72-.67.53-.05,1.01.33,1.06.87,0,.08,0,.16,0,.24m-3.15-11.97c.24-.09.5-.06.71.08.5.19.8.72.69,1.25-.02.16-.02.32,0,.47,0,1.1-.03,5.8,0,6.73.01.46-.12.67-.6.69-.82.07-1.62.18-2.43.32-.42.07-.5-.07-.5-.44v-7.97c0-.32.08-.5.42-.58.58-.17,1.15-.36,1.72-.57m-.38-11.36v9.07c.05.37-.21.71-.58.76,0,0,0,0,0,0-1.19.38-1.19.39-1.19-.89v-8.95c0-.44.51-1.06.89-1.06s.88.61.88,1.06m-4.1-6.6c.43-.32.65-.85.58-1.39-.03-1.67.03-3.32-.03-4.99,0-.55.28-1.05.74-1.36.07-.07.17-.15.25-.06.32.36.82.58.79,1.21-.03,1.07-.01,5.75,0,7.64-.04.55-.04,1.09,0,1.64.2.84-.27,1.7-1.08,1.99-.5.22-.79.75-.69,1.29.03.83,0,1.68,0,2.53,0,1.28,0,1.25-1.21.89-.36-.05-.61-.38-.56-.74,0-.01,0-.02,0-.03.03-1.92.08-3.83-.01-5.73-.18-1.11.29-2.22,1.21-2.87m-1.19,23.59c0-.44.14-.53.54-.43,1.22.28,1.22.26,1.22,1.5v7.14c0,.47-.12.6-.6.56-1.17-.11-1.18-.08-1.18-1.26v-7.5m-1.75-11.7c.11-.62.68-1.04,1.31-.96.56.17,1.1.4,1.67.54.46.11.56.35.56.79-.03,1.46,0,2.93,0,4.39v4.28q0,.72-.74.57c-.78-.17-1.56-.36-2.35-.51-.32-.07-.46-.18-.44-.54v-8.54m-1.75,11.87c.08-.62.55-1.11,1.17-1.21.35,0,.61.08.61.57-.03,1.43,0,2.85,0,4.28v4.22c0,.4-.06.58-.54.57-1.22-.06-1.24-.03-1.24-1.28v-7.15m-1.76,10.68c0-.26.06-.43.36-.5.97-.1,1.95-.1,2.92,0,.29,0,.25.25.25.44v4.58c0,.33-.07.49-.46.49-.88-.03-1.76-.03-2.64,0-.33,0-.44-.1-.44-.43v-4.57m4.14,8.51h-6.78c-.35,0-.51-.06-.51-.47,0-1.29-.03-1.29,1.26-1.29,2.21,0,4.4.01,6.61,0,.47,0,.58.15.58.6-.01,1.18,0,1.18-1.15,1.18m2.42-3.51q-1.26,0-1.26-1.24v-3.7c0-.33.06-.49.46-.46,1.31.04,1.32.03,1.32,1.32v3.57c0,.39-.11.49-.5.49m1.33,3.51c-.56,0-.84-.31-.83-.94,0-.63.35-.9,1.03-.81.72,0,.74,0,.72,1,0,.92.11.74-.92.75m2.18-3.5q-1.26,0-1.26-1.25v-8.21c0-.44.07-.64.57-.69,1.19-.14,1.19-.18,1.19,1.06v8.55c0,.39-.07.54-.5.54m7.69,3.5h-6.73c-.36,0-.46-.1-.47-.46-.03-1.31-.04-1.31,1.25-1.31h6.67c.4,0,.53.11.53.51q0,1.25-1.25,1.25"/>
</svg>