<?xml version="1.0" encoding="UTF-8"?>
<svg id="Layer_1" data-name="Layer 1" xmlns="http://www.w3.org/2000/svg" viewBox="0 0 200 200">
  <defs>
    <style>
      .cls-1 {
        fill: #be9952;
      }
    </style>
  </defs>
  <path id="Marquis_Signature_Landing_Assets-15.5ea8dc261d970c29b7a737102448a303" data-name="Marquis Signature Landing Assets-15.5ea8dc261d970c29b7a737102448a303" class="cls-1" d="m70.03,81.4c.06-.3.11-.61.19-.91.44-1.67,1.91-2.87,3.64-2.97,3.24-.3,6.5.08,9.58,1.12,4.52,1.59,8.32,4.74,10.71,8.9.94,1.55,1.67,3.19,2.52,4.8.24-.27.54-.59.81-.94.08-.13.11-.28.08-.43-1.01-3.76-2.68-7.31-4.93-10.48-1.3-1.95-3.24-3.39-5.48-4.07-.46-.13-.73-.6-.61-1.06,0-.02.01-.03.02-.05.13-.45.6-.71,1.05-.59.03,0,.06.02.08.03,1.08.38,2.12.87,3.09,1.47,2.35,1.67,4.21,3.95,5.39,6.58,1.08,2.26,1.93,4.62,2.88,6.95.08.18.13.37.17.56h1.51c.62-1.64,1.2-3.28,1.87-4.91,1.1-2.85,2.75-5.45,4.85-7.67,1.27-1.39,2.9-2.4,4.7-2.93.7-.19,1.2,0,1.34.54.14.57-.13.94-.86,1.15-2.05.69-3.83,2.02-5.07,3.79-2.19,3-3.83,6.36-4.85,9.93-.04.17-.09.34-.16.49-.19.31-.1.72.21.92.24.22.43.49.65.75.51-1.08.96-2.15,1.5-3.19,2.03-4.2,5.4-7.61,9.56-9.71,3.44-1.62,7.24-2.32,11.03-2.04.43,0,.85.05,1.28.13,1.72.3,3,1.76,3.09,3.5.35,5.61-.08,11.11-2.34,16.34-.18.41-.38.81-.59,1.21-.53,1.11-1.55,1.91-2.76,2.17-1.55.35-3.09.69-4.59,1.02,1.12.83,2.3,1.64,3.43,2.52,1.53,1.15,2.44,2.94,2.47,4.85.16,3.72-.54,7.42-2.04,10.82-.29.64-.73.86-1.23.65-.53-.22-.68-.72-.4-1.37,1.45-3.28,2.08-6.86,1.83-10.44-.07-.93-.44-1.8-1.07-2.49-.11.91-.27,1.82-.48,2.72-.53,2.04-2.15,3.62-4.21,4.08-.98.2-1.76.93-2.03,1.9-.27.83-.51,1.67-.76,2.5-.28,1.39-1.32,2.5-2.69,2.86.2.18.42.34.64.49,1.24.78,2.46,1.59,3.73,2.3,1.09.66,2.51.36,3.23-.69.45-.54.93-.64,1.36-.32.43.33.45.85.05,1.39-1.28,1.71-3.63,2.22-5.5,1.18-3.83-1.93-7.14-4.78-9.61-8.29-.94-1.31-1.71-2.74-2.55-4.13-.1-.14-.17-.3-.27-.46-2.44,3.27-5.15,2.58-7-.03-.11.21-.21.38-.3.56-2.6,5.23-6.78,9.51-11.94,12.24-2.02,1.26-4.68.63-5.94-1.39-.05-.08-.09-.15-.14-.23-2.12-3.32-3.37-7.12-3.62-11.05-.18-1.47-.12-2.96.17-4.42.46-1.53,1.44-2.85,2.77-3.73.96-.7,1.94-1.35,2.95-2.07-1.02-.21-2.06-.41-3.09-.62-.13-.04-.26-.08-.4-.1-2.42-.26-3.79-1.69-4.66-3.87-1.08-2.74-1.78-5.61-2.09-8.54-.08-.67-.16-1.35-.24-2.02v-5.28l.03.06Zm7.17,17.89c-.9-1.37-1.09-3.09-.49-4.62.14-.48.29-.97.43-1.45.61-1.66.65-3.48.13-5.17-.22-.65-.03-1.13.48-1.31.53-.19.97.11,1.2.8.59,1.83.61,3.8.05,5.64-.33,1.06-.6,2.13-.81,3.22-.05,1.73,1.1,3.26,2.77,3.7,3.83.62,7.71.93,11.59.94.45,0,.89.02,1.35,0,.13,0,.24-.07.32-.17.03-.15,0-.3-.1-.41-.12-.13-.27-.23-.43-.3-2.39-1.24-4.77-2.5-7.16-3.71-.76-.38-1.07-.75-.86-1.28.22-.57.75-.75,1.51-.37,2.22,1.1,4.42,2.23,6.62,3.35.22.11.41.24.65.37.11-.47.02-.95-.24-1.35-.13-.19-.27-.38-.41-.57-2.5-3.49-5.8-6.34-9.61-8.31-.31-.15-.55-.41-.67-.73-.02-.32.09-.63.3-.86.3-.33.7-.22,1.08-.03,3.5,1.76,6.59,4.24,9.07,7.27.4.46.76.96,1.15,1.44l.16-.03c.07-.29.09-.58.06-.88-1.21-4.16-3.55-7.91-6.76-10.82-2.6-2.58-6.59-3.17-9.82-1.43-.75.39-1.21,1.18-1.16,2.02.07.45-.24.88-.7.95-.05,0-.11.01-.16,0-.48.02-.88-.36-.9-.84,0-.03,0-.07,0-.1-.1-1.53.74-2.97,2.12-3.64.7-.36,1.43-.68,2.17-.96-.11-.04-.22-.08-.33-.11-1.99-.08-3.97-.22-5.95-.22-1.11.05-1.99.96-1.99,2.07-.19,2.69-.1,5.39.25,8.07.34,2.77,1.11,5.47,2.28,8,.49,1.11,1.58,1.83,2.79,1.85m27.56-3.79c.24-.27.33-.41.45-.54.97-1.12,1.91-2.26,2.97-3.32,2.02-2.05,4.38-3.73,6.97-4.99.38-.19.78-.29,1.07.05.22.23.32.55.29.86-.12.32-.36.57-.67.72-4.04,2.09-7.5,5.16-10.06,8.92-.31.35-.37.86-.16,1.28.83-.48,1.63-.99,2.45-1.4,1.69-.85,3.41-1.64,5.12-2.42.44-.2.96,0,1.16.43.2.44,0,.96-.43,1.16-.1.06-.21.11-.32.14-1.59.76-3.22,1.5-4.78,2.31-.96.49-1.85,1.08-2.76,1.66-.13.08-.17.3-.26.46.15.09.3.16.46.22.14.02.28.02.41,0,3.46-.21,6.93-.41,10.39-.65.88-.02,1.75-.17,2.58-.45,1.54-.71,2.43-2.36,2.17-4.03-.06-.4-.21-.8-.3-1.18-.34-1.2-.62-2.41-.83-3.63-.18-1.78.19-3.57,1.07-5.13.13-.24.25-.48.37-.73.62-1,.32-2.33-.69-2.95-.1-.06-.2-.11-.31-.16-1.85-.93-3.98-1.15-5.98-.64-1.36.36-2.6,1.09-3.59,2.1-3.27,2.91-5.65,6.68-6.85,10.89-.02.35.01.7.1,1.04m.83,10.79c-.33,1.16-.67,2.3-.99,3.44-.01.16.02.31.1.45,1.29,2.95,3.08,5.66,5.29,8,.82.78,2.11.75,2.89-.07.15-.15.27-.33.36-.52.27-.75.51-1.51.7-2.28.36-1.94,1.84-3.48,3.77-3.91,1.99-.51,2.84-2.15,2.98-4.11.25-1.67-.68-3.3-2.26-3.91-.38-.17-.78-.37-1.16-.53-.75-.32-1.57-.48-2.39-.45-2.68.17-5.37.3-8.07.45h-1c-.03.59-.06,1.08-.1,1.59.2.06.39.13.57.22,1.48.76,2.97,1.53,4.43,2.33.21.11.46.37.46.56.01.35-.09.69-.3.97-.32.35-.75.22-1.12-.05-1.29-.92-2.71-1.65-4.21-2.17m-11.47-3.44h-.43c-2.47-.11-4.96-.16-7.43-.35-1.33-.21-2.69-.04-3.92.49-.5.22-.98.48-1.45.76-.43.29-.8.67-1.08,1.12-1.21,2.26-.35,5.07,1.91,6.28.27.15.56.26.85.35,1.48.31,2.68,1.4,3.14,2.84.37,1.04.64,2.12,1.02,3.16.44,1.04,1.64,1.52,2.68,1.08.25-.11.48-.26.67-.46,2.18-2.32,3.95-4.99,5.23-7.91.08-.15.12-.32.1-.49-.3-1.15-.65-2.28-1.04-3.57-1.37.75-2.74,1.48-4.08,2.26-.61.35-1.05.38-1.4-.06-.3-.39-.23-.95.16-1.25.06-.05.13-.09.21-.12,1.26-.73,2.53-1.45,3.86-2.07,1.21-.57,1.24-.53,1.05-1.88-.02-.06-.04-.12-.06-.17m9.98-.62c-.11-1.23-.19-2.46-.35-3.67-.1-.69-.25-1.38-.45-2.06-.3-1.34-.92-2.58-1.82-3.62-.51-.81-1.59-1.05-2.4-.54-.22.14-.4.32-.54.54-.43.5-.8,1.06-1.09,1.66-.78,1.68-1.24,3.5-1.35,5.36-.37,3.01-.05,6.07.92,8.94.36.98.88,1.9,1.53,2.73.49.81,1.55,1.07,2.36.58.24-.14.43-.34.58-.58.44-.52.81-1.09,1.1-1.71,1.03-2.42,1.55-5.02,1.53-7.65m15.78-22.62c.85.35,1.67.76,2.47,1.21,1.32.74,2.04,2.24,1.77,3.73-.15.74-.41,1.45-.76,2.12-.83,1.5-1.12,3.23-.83,4.91.2.93.44,1.85.73,2.76.68,1.63.53,3.48-.41,4.97,1.2-.16,2.2-.48,2.66-1.66.6-1.35,1.12-2.74,1.56-4.15,1.06-4,1.43-8.16,1.07-12.29-.09-1.06-.96-1.88-2.03-1.91-1.37-.05-2.73-.03-4.1,0-.72.06-1.43.15-2.14.29m-32.31,40.86c-.93-.19-1.73-.79-2.17-1.63-.24-.49-.44-1-.61-1.51-.29-.83-.51-1.67-.8-2.5-.28-.81-.96-1.41-1.8-1.58-2.44-.56-4.26-2.59-4.55-5.07-.11-.57-.11-1.16-.17-1.82-.68.67-1.09,1.57-1.12,2.53-.02,1.69.07,3.39.25,5.07.42,3.04,1.54,5.95,3.28,8.48.64,1.05,1.96,1.46,3.08.94,1.66-.76,3.21-1.74,4.61-2.92"/>
</svg>