<?xml version="1.0" encoding="UTF-8"?>
<svg id="Layer_1" data-name="Layer 1" xmlns="http://www.w3.org/2000/svg" viewBox="0 0 200 200">
  <defs>
    <style>
      .cls-1 {
        fill: #be9952;
      }
    </style>
  </defs>
  <path id="Path_1514" data-name="Path 1514" class="cls-1" d="m129.46,82.12c.82-2.38.67-4.98-.42-7.25-.95-2.01-2.67-3.56-4.77-4.28-2.93-.95-6.13-.58-8.77,1-3.35,1.82-6.3,4.3-8.68,7.27-1.31,1.85-3.55,2.78-5.78,2.41-4.86-.47-9.81-.78-14.61-1.07-2.43-.16-4.89-.29-7.32-.47-1.31-.18-2.63.29-3.55,1.25-.83.85-1.65,1.67-2.48,2.5-.62.62-1.27,1.25-1.9,1.9-.84.69-1.28,1.75-1.16,2.83.35,1.01,1.19,1.78,2.23,2.03,1.76.62,3.53,1.27,5.29,1.9s3.53,1.25,5.29,1.9c2.1.76,4.19,1.52,6.29,2.25l2.68.96-.04.24c0,.05,0,.11-.02.16,0,.11-.04.23-.11.31-.47.69-.98,1.38-1.47,2.08-1.07,1.49-2.19,3.06-3.15,4.66-1.09,1.86-2.47,2.58-4.86,2.58h-.04c-1,0-1.81-.02-2.45-.04-1.69-.11-3.35.53-4.53,1.74-.49.51-1.12,1.16-1.96,1.99-.83.8-1.18,1.54-1.07,2.12.13.58.78,1.12,1.87,1.49,1.2.42,2.41.85,3.59,1.27l1.65.58v.22c-.2,1.21.18,2.45,1.03,3.35.85.75,2.01,1.05,3.12.82l.24-.04.07.22c.2.56.4,1.11.58,1.67.45,1.27.89,2.59,1.38,3.86.31.78.74,1.27,1.27,1.38.68.08,1.36-.19,1.81-.71,2.6-2.33,4.08-5.67,4.06-9.17l.29-.09h-.29c-.42-2.21.42-3.81,2.65-5.04,1.19-.68,2.33-1.44,3.42-2.28.51-.38,1.05-.76,1.56-1.12.4-.29.83-.56,1.25-.85l1.05-.71.38,1.03c.16.47.31.89.49,1.32.21.87,1.08,1.41,1.95,1.2.02,0,.04,0,.06-.01.88-.27,1.37-1.2,1.1-2.07-.01-.04-.02-.07-.04-.11-.19-.76-.45-1.49-.76-2.21-.41-.72-.15-1.64.57-2.04,0,0,0,0,.01,0,1.63-1.23,3.24-2.48,4.84-3.7l2.88-2.21c.18-.13.4-.24.6-.38.11-.05.21-.11.31-.18l.4-.22.38,5.96c.36,5.62.71,11.18,1.07,16.73,0,.41-.13.8-.4,1.11-.82.87-1.67,1.74-2.57,2.65l-1.25,1.27-.38-.92c-.16-.36-.27-.62-.36-.89-.29-.82-.6-1.67-.89-2.5-.6-1.7-1.2-3.41-1.85-5.09-.33-.92-2.34-8.01-3.01-8.01-.18,0-2.52-1.08-2.68-1.01-.98.36,2.25,8.95,2.68,10.16,1.14,3.21,2.34,6.67,3.59,10.08.27.95,1,1.7,1.94,1.99,1,.16,2.01-.21,2.68-.98.6-.58,1.16-1.16,1.74-1.74.8-.82,1.63-1.65,2.48-2.45,1.24-1.11,1.84-2.77,1.59-4.42-.2-2.77-.38-5.51-.56-8.28-.27-4.4-.56-8.94-.98-13.41-.28-2.07.6-4.12,2.3-5.33,3.24-2.83,6.76-6.38,8.46-11.26m-51.22,6.8l-4.4-1.58,1.34-1.32c.96-.94,1.85-1.85,2.77-2.72.3-.22.68-.31,1.05-.25,7.27.45,14.52.91,21.79,1.38.1.01.2.05.29.11.04.02.11.07.2.11l.29.16-1.76,2.27c-1.76,2.3-3.53,4.57-5.31,6.83-.23.24-.56.38-.89.38-.09,0-.18,0-.27-.04-5-1.76-9.99-3.55-15.12-5.4m2.74,24.74l-.23-.09-3.48-1.23-.33-.11.18-.31c.87-1.43,2.01-1.7,5.22-1.27l.45.07-1.83,2.94h.03Zm8.65,3.9c-.11.63-.13,1.27-.07,1.9.07,1.27.13,2.61-1.36,3.59l-.31.2-.4-1.09c-.2-.51-.38-1.03-.56-1.54-.11-.31-.2-.62-.31-.96l-.2-.65,3.35-2.19-.16.69.02.04Zm16.02-15.9c-4.95,3.59-10.08,7.09-15.03,10.51l-6.22,4.28c-.14.09-.29.18-.45.25-.07.04-.13.07-.2.11l-.2.11-.47-.49.11-.18c.51-.78,1-1.54,1.49-2.32,1.07-1.65,2.16-3.37,3.3-5.02,5.99-8.99,12.47-17.64,19.43-25.9,2.47-3.14,5.44-5.86,8.79-8.05,1.94-1.16,4.28-2.19,6.94-1.23,2.52.91,4,3.53,3.48,6.16-.75,3.06-2.36,5.84-4.64,8.01-5.01,5.1-10.49,9.72-16.35,13.81"/>
</svg>