<?xml version="1.0" encoding="UTF-8"?>
<svg id="Layer_1" data-name="Layer 1" xmlns="http://www.w3.org/2000/svg" viewBox="0 0 200 200">
  <defs>
    <style>
      .cls-1 {
        fill: #be9952;
      }
    </style>
  </defs>
  <g id="Group_214" data-name="Group 214">
    <g id="formula-1">
      <g id="Group_205" data-name="Group 205">
        <g id="Group_204" data-name="Group 204">
          <path id="Path_1500" data-name="Path 1500" class="cls-1" d="m66.09,101.27c-.46-.63-1.35-.77-1.98-.31-.7.51-1.34,1.1-1.9,1.75-.51.59-.45,1.48.14,2,0,0,0,0,0,0,.62.42,1.45.36,2-.15.44-.47.92-.91,1.43-1.32.63-.46.77-1.35.31-1.98,0,0,0,0,0,0Z"/>
        </g>
      </g>
      <g id="Group_207" data-name="Group 207">
        <g id="Group_206" data-name="Group 206">
          <path id="Path_1501" data-name="Path 1501" class="cls-1" d="m70.74,104.3c-3.18,0-5.76,2.58-5.76,5.77s2.58,5.76,5.76,5.76,5.76-2.58,5.76-5.76c0-3.18-2.58-5.76-5.76-5.77Zm0,8.7c-1.62,0-2.93-1.31-2.93-2.93,0-1.62,1.31-2.93,2.93-2.93s2.93,1.31,2.93,2.93h0c0,1.62-1.31,2.93-2.93,2.93h0Z"/>
        </g>
      </g>
      <g id="Group_209" data-name="Group 209">
        <g id="Group_208" data-name="Group 208">
          <path id="Path_1502" data-name="Path 1502" class="cls-1" d="m133.23,103.34c-3.18,0-5.76,2.58-5.76,5.77s2.58,5.76,5.77,5.76,5.76-2.58,5.76-5.76c0-3.18-2.58-5.76-5.77-5.77Zm0,8.7c-1.62,0-2.93-1.31-2.93-2.93,0-1.62,1.31-2.93,2.93-2.93,1.62,0,2.93,1.31,2.93,2.93h0c0,1.62-1.31,2.93-2.93,2.93h0Z"/>
        </g>
      </g>
      <g id="Group_211" data-name="Group 211">
        <g id="Group_210" data-name="Group 210">
          <path id="Path_1503" data-name="Path 1503" class="cls-1" d="m143.36,80.29h-15.21c-2.12,0-3.84,1.72-3.84,3.84v4.6c0,1.96.98,3.79,2.62,4.86l2.07,1.36c1.11.77.89,1.52.89,1.58h-.85l-12.48-10.27c-2.58-2.12-5.82-3.28-9.16-3.29h-1.23c-.51-2.5-2.72-4.3-5.27-4.31h-1.62c-2.66,0-4.92,1.95-5.32,4.58-1.88.67-3.14,2.45-3.15,4.45v4.14h-1.08c-2.63,0-4.8,2.07-4.94,4.7h-.48c-3.41.03-6.73,1.07-9.53,3.01-1.32-.39-2.67-.65-4.04-.75-.83,0-1.66.09-2.47.27-.76.17-1.24.93-1.07,1.69.17.76.93,1.24,1.69,1.07h0c4.54-1.02,9.04,1.83,10.06,6.37,1.02,4.54-1.83,9.04-6.37,10.06-4.54,1.02-9.04-1.83-10.06-6.37-.33-1.48-.26-3.02.21-4.46.24-.74-.16-1.54-.9-1.79-.74-.24-1.54.16-1.79.9-.22.68-.38,1.38-.47,2.09h-3.21c-2.58,0-4.67,2.09-4.67,4.67s2.09,4.67,4.67,4.67h6.38c4.37,4.42,11.49,4.46,15.91.1,1.67-1.65,2.78-3.78,3.18-6.09.15.17,2.2,2.6,2.2,2.6,1.9,2.22,4.68,3.5,7.61,3.5h34.82c1.95,1.47,4.33,2.26,6.77,2.27,6.15.06,11.19-4.88,11.25-11.04,0-.14,0-.28,0-.43,0-.07,1.23-1.22,1.23-1.22,1.68-1.67,2.62-3.94,2.61-6.3v-16.14c0-2.73-2.21-4.94-4.94-4.94Zm-87,34.86c-1.01-.02-1.82-.86-1.79-1.88.02-.98.81-1.77,1.79-1.79h3.21c.16,1.28.54,2.52,1.13,3.67h-4.34Zm51.04-29.34c2.69,0,5.29.94,7.36,2.64l9.83,8.09h-9.64c-3.29-3.57-5.99-6.48-8.01-8.64-.77-.83-1.41-1.51-1.95-2.08h2.4Zm-8.12-4.31h1.62c.99,0,1.89.58,2.31,1.48h-6.24c.42-.9,1.32-1.48,2.31-1.48h0Zm-5.64,6.2c0-1.04.85-1.89,1.89-1.89h5.55c.74.75,3.05,3.17,10.02,10.73h-17.47v-8.84Zm-3.91,6.97h1.08v1.86h-3.18c.13-1.06,1.02-1.86,2.1-1.87h0Zm-12.15,6.46c2.06-1.16,4.38-1.76,6.74-1.76h26.24c-9.74,2.65-19.66,4.59-29.67,5.81-.77-1.59-1.9-2.98-3.3-4.05h0Zm14.05,14.13c-2.1,0-4.09-.92-5.46-2.51l-1.09-1.27h34.38c.78,0,1.42-.63,1.42-1.41s-.63-1.42-1.42-1.42h-37.57c-.03-.24-.07-.49-.11-.73,13.07-1.56,25.95-4.43,38.45-8.55h7.33c-5.37,3.11-7.2,9.99-4.09,15.36.1.18.21.36.33.53h-32.17Zm41.59,2.27c-4.66,0-8.43-3.77-8.43-8.43s3.77-8.43,8.43-8.43,8.43,3.77,8.43,8.43c0,4.65-3.78,8.42-8.43,8.43h0Zm12.25-16.15c0,1.52-.56,2.98-1.59,4.1-1.56-4.56-5.84-7.63-10.66-7.64-.28,0-.55.01-.82.03.2-.38.31-.8.33-1.23.07-1.63-.74-3.16-2.12-4.02l-2.11-1.39c-.84-.55-1.35-1.49-1.35-2.5v-4.6c0-.56.45-1.01,1.01-1.01h15.21c1.17,0,2.11.95,2.11,2.11v12.74l-6.21-4.02c-1.42-.92-2.27-2.49-2.27-4.18v-3.98c0-.78-.63-1.42-1.42-1.42s-1.42.63-1.42,1.42v3.98c0,2.65,1.34,5.12,3.56,6.55l7.75,5.02v.02Z"/>
        </g>
      </g>
    </g>
  </g>
</svg>