<?xml version="1.0" encoding="UTF-8"?>
<svg id="Layer_1" data-name="Layer 1" xmlns="http://www.w3.org/2000/svg" viewBox="0 0 200 200">
  <defs>
    <style>
      .cls-1 {
        fill: #be9952;
      }
    </style>
  </defs>
  <path id="Marquis_Signature_Landing_Assets-17.3ae64873b8c7b0a3aba5ae17e0493a20" data-name="Marquis Signature Landing Assets-17.3ae64873b8c7b0a3aba5ae17e0493a20" class="cls-1" d="m129.53,104.21c-1.76-9.23-7.74-17.09-16.16-21.25-3.44-1.74-7.19-2.77-11.03-3.04-.53.02-.99-.39-1.01-.92,0-.07,0-.13.01-.2v-4.28h-.19c-.83.03-1.66.02-2.47,0h-1.04c-.4-.03-.81,0-1.21.07-.07.39-.1.78-.07,1.17,0,.2-.02.4-.05.6-.03.29-.09.66.03.76.09.09.48.03.74,0,.19-.04.38-.06.57-.05.32-.03.65.08.88.31.18.23.25.54.19.83-.02.18-.02.36,0,.53.06.27,0,.54-.17.76-.21.22-.49.35-.79.36-1.09.12-2.31.24-3.49.48-7.01,1.34-13.29,5.16-17.71,10.76-3.91,4.7-6.17,10.54-6.44,16.64-.16,4.01-.14,8.1-.1,12.05,0,1.9.03,3.78.03,5.68h0c.83,0,1.59-.04,2.35,0h.26v-.28c-.02-5.02-.02-10.06,0-15.09-.05-3.56.61-7.09,1.95-10.39,3.36-8.56,10.82-14.85,19.83-16.71.83-.22,1.68-.33,2.54-.33l.76.03-1.43,2.92c-1.49,2.95-2.95,5.9-4.44,8.86-.18.35-.28.73-.28,1.12v18.87c.11.4-.03.83-.36,1.09-.98.43-2.14.11-2.76-.76l-1.04-2.33c-.76-1.71-1.5-3.42-2.3-5.11-.43-.95-.64-1.98-.6-3.02.02-.62.02-1.24,0-1.88v-1.69h-3.5c-.23,0-.45,0-.67-.05-.33-.03-.72-.09-.83.03-.1.1-.05.53-.02.81.02.22.05.45.05.66-.03.38,0,.76.07,1.14.36.07.73.1,1.1.07h.38c.23-.01.45.08.6.24.15.16.21.37.19.59v.59c.04.57-.04,1.15-.24,1.69-1.1,2.45-2.2,4.91-3.3,7.37l-.93,2.11c-.17.31-.27.65-.29,1,0,2.76.02,5.51,0,8.25v.17h.15c2.42-.02,4.82-.02,7.22,0h9.65v-.09c-.04-.58-.01-1.15.07-1.73l.03-.22c.26-2.32,1.92-4.25,4.18-4.85,2.19-.59,4.53.14,6.01,1.87,1.04,1.37,1.53,3.07,1.36,4.78v.22h.24c5.49,0,11-.02,16.49,0,.09.03.19.02.28-.02v-.26c-.02-5.02-.02-10.05,0-15.09,0-.38-.08-.75-.24-1.09-.31-.69-.6-1.38-.9-2.07-.57-1.31-1.14-2.66-1.8-3.92-1.5-2.63-2.14-5.67-1.83-8.68v-.71h-.15c-.85.02-1.68,0-2.52.02h-1c-.42-.03-.85,0-1.26.09-.09.42-.12.86-.09,1.29-.04.41,0,.81.09,1.21.38.09.78.12,1.17.1h.4c.21,0,.41.1.55.26.13.16.19.36.19.57v.6c.04.6-.06,1.2-.28,1.76-.83,1.81-1.64,3.64-2.45,5.47l-1.14,2.57c-.38.9-.55,1.02-1.49,1.04h-.48c-.32.04-.65-.06-.9-.26-.23-.26-.33-.61-.29-.95.03-2.04.02-4.07,0-6.11v-.79c0-.57.02-1.14.05-1.71.12-1.24.06-2.5-.15-3.73-.35-1.18-.85-2.31-1.5-3.35-.28-.5-.55-.98-.81-1.5l-3.87-7.73,1.74.28c.53.07,1,.14,1.47.24.96.19,1.9.44,2.83.74,6.94,2.16,12.73,7.01,16.07,13.47,1.65,3.12,2.67,6.54,2.99,10.06.15,2.03.21,4.07.15,6.11v12.15h.15c.74-.05,1.49-.05,2.23,0h.22v-.22c-.04-5.33-.04-10.65,0-15.99.02-1.72-.15-3.44-.48-5.13m-48.53,10.5c.41-.92.83-1.83,1.26-2.8l1-2.24.97,2.17c.43.97.83,1.87,1.24,2.76.16.26.17.59.03.86-.18.23-.47.36-.76.33h-2.95c-.3.05-.6-.06-.79-.29-.13-.24-.13-.54,0-.78m12.26,4.47c-.66.92-1.14,1.95-1.43,3.04-.12.46-.56.76-1.04.71h-9.95c-.29.02-.57-.08-.78-.28-.19-.22-.29-.52-.26-.81.03-.81.03-1.61,0-2.42-.08-.48.25-.94.74-1.02.09-.01.18-.01.26,0h13l-.53.78h-.01Zm.93-14.26c-.07-.48.26-.92.74-.99.07-.01.14-.01.21,0h9.81c.25-.02.5.07.69.24.18.18.26.44.24.69,0,.93-.02,1.87,0,2.81.02.26-.07.51-.24.71-.22.2-.52.29-.81.24h-9.55c-.31.02-.62-.08-.85-.29-.21-.24-.3-.55-.26-.86.03-.83.02-1.69,0-2.52v-.05l.02.03Zm26.09,16.9c.03.29-.06.58-.24.81-.23.2-.53.3-.83.28h-9.89c-.51.06-.97-.28-1.07-.78-.29-1.07-.77-2.07-1.42-2.97l-.52-.78h12.9c.31-.02.61.08.85.28.2.22.28.52.24.81-.03.76-.03,1.54,0,2.33m-5.7-14.31c.41-.9.81-1.78,1.23-2.74l1.02-2.26,1,2.26c.43.97.85,1.88,1.26,2.8.14.23.14.53,0,.76-.18.22-.46.33-.74.31h-3.05c-.28.03-.55-.09-.72-.31-.13-.26-.12-.56.02-.81m-7.34,3.75h11.81c.57-.12,1.13.25,1.25.82.03.15.03.31,0,.45-.05.64-.05,1.28,0,1.92.07.36-.02.74-.26,1.02-.3.26-.7.38-1.09.33-.88-.03-1.78-.02-2.68,0h-5.24c-5.18,0-10.36,0-15.54.02h-.02c-.38.03-.75-.09-1.04-.35-.23-.29-.32-.67-.24-1.04.05-.59.05-1.18,0-1.76-.08-.37.01-.77.24-1.07.33-.26.74-.39,1.16-.36,2.92.03,5.83.02,8.74.02h2.92Zm-1.37-13.41c-.03.95-.03,1.66,0,2.33.02.29-.06.58-.24.81-.24.2-.55.3-.86.28h-9.51c-.3.02-.59-.08-.81-.28-.21-.24-.3-.55-.26-.86.03-.67.03-1.38,0-2.17-.04-.32.06-.64.28-.88.24-.2.55-.29.86-.28.57.03,1.12.02,1.67,0h7.85c.29-.02.58.08.79.28.19.22.28.51.24.79m-.86-3.76h-9.96l4.97-9.98,4.99,9.98Z"/>
</svg>