<?xml version="1.0" encoding="UTF-8"?>
<svg id="Layer_1" data-name="Layer 1" xmlns="http://www.w3.org/2000/svg" viewBox="0 0 200 200">
  <defs>
    <style>
      .cls-1 {
        fill: #be9952;
      }
    </style>
  </defs>
  <g id="Group_216" data-name="Group 216">
    <path id="Path_68" data-name="Path 68" class="cls-1" d="m123.53,119.17c-.29-5.96-.56-11.89-.85-17.85l-.15-3.18c-.14-3.06-.29-6.24-.48-9.35-.16-2.53-2.05-4.61-4.55-5.01-.73-.11-1.46-.15-2.2-.12h-3.58v-.44c.4-3.38-.68-6.77-2.95-9.31-2.21-2.54-5.43-3.97-8.79-3.91h-.06c-2.89-.02-5.68,1.07-7.79,3.05-2.85,2.58-4.29,6.38-3.85,10.2l.04.44h-4.76c-2.64.01-4.91,1.87-5.45,4.45-.12.68-.19,1.37-.21,2.06v.33c-.17,3.49-.35,7-.5,10.49l-.48,9.94c-.21,4.38-.42,8.73-.6,13.09-.19,3.09,2.16,5.76,5.25,5.95.16.01.33.01.49,0h35.91c1.56.03,3.05-.59,4.14-1.7,1.08-1.13,1.66-2.64,1.6-4.2-.04-1.27-.1-2.56-.15-3.84l-.06-1.08.04-.02Zm-28.28-44.45c2.7-1.98,6.34-2.09,9.15-.27,3.06,1.83,4.45,4.8,4.12,8.81l-.04.39h-16.9l-.04-.37c-.33-3.8.91-6.67,3.7-8.54m24.57,51.31c-.53.51-1.24.77-1.97.73h-35.48c-1.35.22-2.62-.7-2.83-2.05-.05-.29-.04-.59.02-.88.33-7.03.65-14.09.98-21.12l.46-9.98c.04-1.1.1-2.22.15-3.31-.05-1.33,1-2.45,2.33-2.5.11,0,.22,0,.33.01l23.05-.06c3.06,0,6.13-.02,9.19-.04h.02c1.35-.16,2.58.81,2.74,2.16.02.14.02.28.01.42.15,2.81.27,5.65.4,8.46l1.14,24.11c.04.68.06,1.35.08,2.02.05.73-.19,1.45-.68,2"/>
    <path id="Path_69" data-name="Path 69" class="cls-1" d="m105.52,120.94c-.44-.12-.89.14-1.02.57-.03.08-.05.16-.07.24l-.03.13c-.63,2.26-2.9,3.63-5.19,3.14-1.68-.33-3.01-1.63-3.37-3.3-.04-.31-.23-.58-.51-.72-.12-.05-.25-.08-.38-.08-.19,0-.37.07-.51.19-.29.23-.4.62-.26.97.65,2.75,3.12,4.7,5.95,4.69h0c2.54.02,4.83-1.54,5.73-3.91.12-.32.21-.64.28-.97.09-.43-.19-.85-.62-.94"/>
  </g>
</svg>