<?xml version="1.0" encoding="UTF-8"?><svg id="a" xmlns="http://www.w3.org/2000/svg" viewBox="0 0 85 65"><path d="M23.68,20.82c.04-.19,.07-.38,.12-.57,.28-1.07,1.18-1.77,2.28-1.86,2.05-.16,4.06,.02,6.01,.7,2.93,1.02,5.13,2.95,6.72,5.58,.59,.97,1.05,2,1.58,3.01,.15-.17,.34-.37,.51-.59,.05-.06,.07-.19,.05-.27-.72-2.33-1.59-4.6-3.09-6.57-.9-1.18-1.94-2.17-3.44-2.55-.31-.08-.46-.4-.37-.7,.09-.28,.39-.48,.71-.35,.66,.27,1.35,.52,1.94,.92,1.53,1.03,2.59,2.5,3.38,4.13,.68,1.42,1.21,2.9,1.81,4.36,.05,.11,.08,.23,.11,.35h.95c.39-1.03,.75-2.06,1.17-3.08,.74-1.77,1.67-3.43,3.04-4.81,.84-.85,1.78-1.53,2.95-1.84,.44-.12,.75,0,.84,.34,.09,.36-.08,.59-.54,.72-1.35,.4-2.34,1.3-3.18,2.38-1.45,1.86-2.33,4.01-3.04,6.23-.03,.1-.05,.22-.1,.31-.12,.24-.06,.41,.13,.58,.15,.14,.27,.31,.41,.47,.32-.68,.6-1.35,.94-2,1.37-2.65,3.29-4.76,6-6.09,2.19-1.06,4.51-1.41,6.92-1.28,.27,.01,.54,.02,.8,.08,1.1,.24,1.88,1.07,1.94,2.2,.22,3.52-.05,6.97-1.47,10.25-.11,.26-.24,.51-.37,.76-.36,.72-.95,1.18-1.73,1.36-.97,.22-1.94,.43-2.88,.64,.7,.52,1.44,1.03,2.15,1.58,.99,.77,1.5,1.8,1.55,3.04,.08,2.36-.32,4.63-1.28,6.79-.18,.4-.46,.54-.77,.41-.33-.14-.43-.45-.25-.86,.92-2.09,1.29-4.27,1.15-6.55-.04-.6-.28-1.11-.67-1.56-.1,.58-.14,1.16-.3,1.7-.4,1.33-1.28,2.22-2.64,2.56-.67,.17-1.07,.56-1.27,1.19-.17,.52-.32,1.05-.48,1.57-.26,.85-.69,1.54-1.69,1.8,.16,.13,.27,.23,.4,.31,.78,.49,1.54,1,2.34,1.44,.75,.42,1.48,.23,2.03-.43,.28-.34,.58-.4,.85-.2,.27,.21,.28,.53,.03,.87-.8,1.07-2.2,1.38-3.45,.74-2.44-1.24-4.45-2.98-6.03-5.2-.59-.82-1.07-1.72-1.6-2.59-.06-.09-.11-.19-.17-.29-1.53,2.05-3.23,1.62-4.39-.02-.07,.13-.13,.24-.19,.35-1.73,3.31-4.16,5.94-7.49,7.68-1.49,.78-2.9,.4-3.81-1.02-1.35-2.11-2.09-4.43-2.27-6.93-.06-.93-.13-1.86,.11-2.77,.27-1.01,.92-1.74,1.74-2.34,.6-.44,1.22-.85,1.85-1.3-.64-.13-1.29-.26-1.94-.39-.08-.02-.16-.05-.25-.06-1.52-.16-2.38-1.06-2.92-2.43-.68-1.73-1.12-3.51-1.31-5.36-.05-.42-.1-.85-.15-1.27v-3.31Zm4.5,11.22c-.63-.93-.62-1.9-.31-2.9,.09-.3,.18-.61,.27-.91,.34-1.07,.45-2.15,.08-3.24-.14-.41-.02-.71,.3-.82,.33-.12,.61,.07,.75,.5,.4,1.18,.35,2.36,.03,3.54-.18,.67-.4,1.34-.51,2.02-.15,.95,.8,2.16,1.74,2.32,2.41,.4,4.83,.57,7.27,.59,.28,0,.56,.01,.85,0,.07,0,.18-.06,.2-.11,.02-.08,0-.19-.06-.26-.07-.08-.17-.14-.27-.19-1.5-.78-2.99-1.57-4.49-2.33-.48-.24-.67-.47-.54-.8,.14-.36,.47-.47,.95-.23,1.39,.69,2.77,1.4,4.15,2.1,.14,.07,.26,.15,.41,.23q.09-.5-.15-.85c-.08-.12-.17-.24-.26-.36-1.62-2.19-3.59-3.98-6.03-5.21-.18-.09-.37-.28-.42-.46-.04-.16,.07-.4,.19-.54,.19-.21,.44-.14,.68-.02,2.23,1.11,4.1,2.66,5.69,4.56,.25,.29,.48,.6,.72,.9l.1-.02c.01-.18,.09-.38,.04-.55-.84-2.62-2.15-4.95-4.24-6.79-.97-.85-2.02-1.5-3.37-1.51-.98,0-1.93,.08-2.79,.61-.47,.29-.75,.68-.73,1.27,.02,.37-.21,.6-.54,.6-.33,0-.54-.21-.56-.59-.06-1.05,.46-1.78,1.33-2.28,.42-.24,.89-.4,1.36-.6-.07-.02-.14-.06-.21-.07-1.25-.05-2.49-.14-3.73-.14-.7,0-1.2,.59-1.25,1.3-.12,1.69-.06,3.38,.16,5.06,.23,1.74,.68,3.42,1.43,5.02,.36,.76,.93,1.08,1.75,1.16m17.29-2.38c.15-.17,.21-.26,.28-.34,.61-.7,1.2-1.42,1.86-2.08,1.27-1.29,2.74-2.33,4.37-3.13,.24-.12,.49-.18,.67,.03,.12,.14,.23,.39,.18,.54-.05,.18-.24,.36-.42,.45-2.6,1.32-4.65,3.24-6.31,5.6-.19,.26-.24,.5-.1,.8,.52-.3,1.02-.62,1.54-.88,1.06-.53,2.14-1.03,3.21-1.52,.31-.14,.6,0,.73,.29,.12,.28,.02,.55-.27,.71-.06,.04-.13,.06-.2,.09-1,.48-2.02,.94-3,1.45-.6,.31-1.16,.68-1.73,1.04-.08,.05-.11,.19-.16,.29,.1,.05,.19,.11,.29,.14,.08,.02,.17,0,.26,0,2.17-.13,4.35-.26,6.52-.41,.55-.04,1.12-.08,1.62-.28,.96-.38,1.52-1.52,1.36-2.53-.04-.25-.13-.5-.19-.74-.18-.76-.42-1.51-.52-2.28-.15-1.13,.15-2.21,.67-3.22,.08-.15,.16-.3,.23-.46,.38-.85,.19-1.5-.63-1.95-1.19-.65-2.46-.65-3.75-.4-.91,.17-1.59,.75-2.25,1.32-2.14,1.83-3.46,4.19-4.3,6.83-.05,.16,.03,.36,.06,.65m.52,6.77c-.21,.73-.42,1.44-.62,2.16-.02,.08,.02,.19,.06,.28,.83,1.86,1.91,3.55,3.32,5.02,.58,.61,1.74,.4,2.04-.37,.18-.46,.31-.95,.44-1.43,.34-1.26,1.01-2.11,2.37-2.46,1.25-.32,1.78-1.35,1.87-2.58,.06-.91-.17-1.9-1.42-2.45-.24-.11-.49-.23-.73-.33-.48-.19-.96-.31-1.5-.28-1.68,.11-3.37,.19-5.06,.28-.2,0-.4,0-.63,0-.02,.37-.04,.68-.06,1,.14,.05,.26,.08,.36,.14,.93,.48,1.86,.96,2.78,1.46,.13,.07,.29,.23,.29,.35,0,.21-.06,.47-.19,.61-.2,.22-.47,.14-.7-.03-.81-.6-1.71-1.02-2.64-1.36m-7.19-2.16c-.1,0-.18,0-.27,0-1.55-.07-3.11-.1-4.66-.22-.85-.06-1.68-.1-2.46,.31-.3,.16-.63,.28-.91,.48-.26,.19-.52,.42-.68,.7-.89,1.55,0,3.72,1.73,4.16,.99,.25,1.64,.84,1.97,1.78,.23,.65,.4,1.33,.64,1.98,.32,.84,1.48,1.05,2.1,.39,1.39-1.46,2.46-3.13,3.28-4.96,.04-.1,.09-.22,.06-.31-.19-.72-.41-1.43-.65-2.24-.86,.47-1.72,.93-2.56,1.42-.38,.22-.66,.24-.88-.04-.21-.27-.15-.64,.23-.86,.79-.46,1.59-.91,2.42-1.3,.76-.36,.78-.33,.66-1.18,0-.02-.02-.05-.04-.11m6.26-.39c-.07-.77-.12-1.54-.22-2.3-.05-.43-.17-.87-.28-1.29-.23-.83-.54-1.63-1.14-2.27-.62-.67-1.23-.68-1.84,0-.27,.31-.5,.67-.68,1.04-.52,1.06-.75,2.19-.85,3.36-.17,1.91-.09,3.8,.58,5.61,.22,.61,.56,1.2,.96,1.71,.55,.7,1.25,.68,1.84,0,.28-.32,.51-.69,.69-1.07,.71-1.52,.91-3.14,.96-4.8m9.9-14.19c.55,.26,1.08,.46,1.55,.76,.84,.54,1.27,1.33,1.11,2.34-.07,.46-.28,.91-.48,1.33-.47,.98-.75,1.99-.52,3.08,.12,.58,.28,1.16,.46,1.73,.33,1.07,.43,2.11-.26,3.12,.75-.1,1.38-.3,1.67-1.04,.34-.86,.74-1.71,.98-2.6,.71-2.52,.85-5.1,.67-7.71-.04-.64-.6-1.18-1.27-1.2-.86-.03-1.71-.02-2.57,0-.44,.02-.89,.11-1.34,.18m-20.27,25.63c-.64-.17-1.09-.49-1.36-1.02-.15-.3-.27-.62-.38-.95-.18-.52-.32-1.05-.5-1.57-.19-.53-.56-.84-1.13-.99-1.64-.43-2.56-1.54-2.86-3.18-.07-.36-.07-.73-.11-1.14-.43,.49-.71,1-.7,1.59,.01,1.06,.02,2.13,.16,3.18,.26,1.93,.97,3.71,2.06,5.32,.45,.67,1.21,.91,1.93,.59,1.03-.46,1.97-1.08,2.89-1.83" style="fill:#be9952;"/></svg>