<?xml version="1.0" encoding="UTF-8"?><svg id="a" xmlns="http://www.w3.org/2000/svg" viewBox="0 0 85 65"><path d="M54.69,42.45c-.15-3.09-.29-6.17-.44-9.26l-.08-1.65c-.07-1.59-.15-3.24-.25-4.85-.08-1.31-1.05-2.38-2.36-2.6-.37-.06-.75-.07-1.14-.06-.15,0-.31,0-.47,0-.26,0-.51,0-.78,0h-.61v-.23c.14-1.96-.36-3.54-1.53-4.83-1.22-1.35-2.75-2.03-4.56-2.03h-.03c-1.54,0-2.9,.54-4.04,1.58-1.48,1.35-2.14,3.08-2,5.29l.02,.23h-.96c-.23,0-.46,0-.69,0-.28,0-.55,0-.82,0-1.38,.02-2.54,.96-2.83,2.31-.07,.34-.09,.71-.11,1.07v.17c-.09,1.81-.18,3.63-.26,5.44l-.25,5.16c-.11,2.27-.22,4.53-.31,6.79-.03,.84,.25,1.61,.8,2.19,.55,.58,1.33,.9,2.18,.9,6.21,0,12.42,0,18.63,0,.84,0,1.6-.31,2.15-.88,.55-.56,.85-1.34,.83-2.18-.02-.66-.05-1.33-.08-1.99l-.03-.56Zm-14.67-23.06c1.53-1.03,3.17-1.08,4.75-.14,1.59,.95,2.31,2.49,2.14,4.57l-.02,.2h-8.77l-.02-.19c-.17-1.97,.47-3.46,1.92-4.43m12.75,26.62c-.24,.25-.59,.38-1.02,.38-1.55,0-3.1,0-4.65,0h-13.76c-.51,0-.88-.13-1.13-.38-.24-.26-.35-.63-.33-1.14,.17-3.65,.34-7.31,.51-10.96l.24-5.18c.02-.57,.05-1.15,.08-1.72,.05-.83,.54-1.29,1.38-1.29l11.96-.03c1.59,0,3.18-.01,4.77-.02h.01c.89,0,1.38,.46,1.43,1.34,.08,1.46,.14,2.93,.21,4.39l.59,12.51c.02,.35,.03,.7,.04,1.05,.01,.43-.11,.79-.35,1.04" style="fill:#be9952;"/><path d="M47.91,28.37c-.47-.1-.88,.13-1.02,.57-.03,.08-.05,.16-.07,.24l-.03,.13c-.61,2.25-2.94,3.65-5.19,3.14-1.76-.41-2.9-1.52-3.37-3.3-.11-.4-.26-.61-.51-.72-.13-.06-.26-.08-.38-.08-.18,0-.36,.06-.51,.19-.29,.23-.37,.53-.26,.97,.66,2.76,3.11,4.69,5.95,4.69h0c2.57,0,4.82-1.53,5.73-3.91,.13-.35,.22-.67,.28-.97,.08-.44-.19-.85-.62-.94" style="fill:#be9952;"/></svg>