<?xml version="1.0" encoding="UTF-8"?><svg id="a" xmlns="http://www.w3.org/2000/svg" viewBox="0 0 85 65"><path d="M43.78,49.01c-1.46,0-2.96-.05-4.49-.16-9.15-.65-16.06-3.52-19.98-8.32-2.64-3.24-3.75-7.18-3.19-11.41,.55-4.22,2.42-7.5,5.56-9.75,4.84-3.47,12.44-4.29,21.97-2.38,12.8,2.56,26.05,10.82,25.36,19.04-.51,4.14-3.7,7.7-8.97,10.03-4.42,1.95-9.97,2.96-16.26,2.96m-9.44-32.58c-5.14,0-9.35,1.11-12.41,3.3-3.03,2.17-4.84,5.35-5.37,9.44-.54,4.11,.53,7.94,3.09,11.07,3.84,4.7,10.64,7.52,19.67,8.16,8.06,.57,15.16-.38,20.54-2.76,5.12-2.26,8.21-5.7,8.71-9.67,.31-3.7-2.42-7.75-7.67-11.38-4.72-3.26-11.2-5.95-17.34-7.17-3.32-.66-6.4-1-9.21-1m19.62,25.78c-.57,0-1.15-.02-1.75-.07-3.32-.28-5.92-1.45-7.52-3.39-1.31-1.59-1.87-3.59-1.62-5.78,.24-2.17,1.12-3.8,2.6-4.84,1.93-1.36,4.8-1.64,8.29-.82,5.04,1.18,10.25,5.02,9.98,8.84h0c-.39,3.7-4.39,6.06-9.97,6.06m-3.65-14.92c-1.77,0-3.26,.4-4.39,1.2-1.37,.97-2.19,2.49-2.41,4.53-.23,2.07,.3,3.96,1.53,5.45,1.52,1.85,4.01,2.96,7.21,3.23,6.22,.52,10.84-1.77,11.24-5.58,.25-3.6-4.78-7.23-9.64-8.38-1.28-.3-2.46-.45-3.54-.45" style="fill:#be9952;"/><path d="M30.33,17.21c-.67,.61-1.3,1.24-1.9,1.91-.59,.68-1.19,1.34-1.68,2.1-.49,.76-.82,1.61-.97,2.49-.08,.44-.11,.88-.1,1.32,.02,.44,.09,.88,.2,1.3v-.03c.07,.14,.15,.27,.26,.38,.11,.11,.24,.2,.38,.26,.14,.06,.3,.1,.45,.11,.16,.01,.33,0,.47-.03l-.07,.05c.09-.13,.14-.31,.1-.45-.04-.15-.18-.26-.35-.34-.17-.07-.35-.12-.54-.15-.19-.04-.38-.05-.58-.07v-.03c.2-.01,.39-.02,.59,0,.2,0,.4,.04,.59,.1,.19,.07,.4,.19,.49,.42,.07,.24,.02,.47-.1,.66l-.02,.04h-.05c-.19,.06-.37,.08-.56,.07-.19,0-.37-.04-.55-.11-.18-.07-.34-.18-.48-.31-.14-.13-.24-.29-.33-.46h0v-.03c-.12-.45-.17-.91-.17-1.38,0-.46,.07-.92,.18-1.37,.23-.89,.63-1.71,1.08-2.5,.44-.8,.95-1.56,1.58-2.22,.31-.33,.64-.65,.99-.94,.34-.29,.7-.58,1.09-.82l.02,.02Z" style="fill:#be9952;"/><path d="M25.94,23.37c.51-.09,1.02-.11,1.54-.08,.26,.02,.51,.07,.77,.08,.26,.01,.51,0,.77-.02,.51-.05,1.02-.06,1.53-.05,.51,.02,1.02,.06,1.53,.16v.03c-.51,.09-1.03,.11-1.54,.12-.51,0-1.02-.03-1.53-.09-.26-.03-.51-.05-.77-.04-.25,0-.51,.05-.77,.06-.51,.01-1.02-.02-1.53-.13v-.03Z" style="fill:#be9952;"/><path d="M32.25,16.99c-.54,.51-1.08,1-1.63,1.48-.28,.23-.57,.47-.83,.73-.26,.26-.49,.55-.69,.86-.2,.31-.39,.62-.57,.93-.17,.32-.32,.65-.44,.98-.26,.67-.36,1.38-.24,2.12h-.03c-.31-.68-.27-1.5-.02-2.22,.26-.72,.68-1.35,1.17-1.91l.74-.83c.25-.28,.48-.57,.73-.84,.26-.27,.55-.51,.84-.73,.3-.22,.61-.43,.94-.6l.02,.02Z" style="fill:#be9952;"/><path d="M18.42,24.9c.46-.42,.93-.82,1.39-1.23l1.39-1.21c.47-.4,.94-.8,1.37-1.24l.31-.35c.1-.12,.19-.24,.28-.36,.18-.25,.33-.52,.43-.79l.14,.06c-.23,.46-.46,.91-.68,1.37-.22,.46-.42,.93-.56,1.4-.04,.12-.06,.24-.08,.35,0,.06,0,.11,0,.15,0,.05,.02,.07,0,.06,0,0,.02,0,.06,0,.05-.01,.1-.04,.15-.06,.1-.05,.2-.12,.31-.19,.43-.28,.85-.57,1.28-.85l.15-.09v.17c-.01,.19,.02,.4,.12,.57,.05,.08,.13,.14,.22,.18,.09,.04,.2,.05,.3,.05v.03c-.1,.02-.22,.03-.33,0-.11-.03-.21-.09-.29-.18-.08-.09-.12-.2-.16-.3-.03-.11-.05-.22-.06-.34l.14,.07c-.4,.32-.82,.62-1.23,.93-.1,.08-.21,.16-.33,.23-.06,.03-.13,.06-.21,.09-.08,.02-.19,.04-.31-.03-.06-.04-.09-.09-.12-.14-.01-.05-.03-.1-.03-.14,0-.08,0-.16,0-.23,.02-.14,.05-.27,.09-.4,.16-.5,.39-.97,.62-1.43,.24-.46,.5-.9,.78-1.34l.14,.06c-.27,.59-.69,1.04-1.1,1.51-.41,.46-.83,.92-1.27,1.35-.45,.43-.92,.83-1.41,1.21-.49,.38-.99,.75-1.51,1.08l-.02-.02Z" style="fill:#be9952;"/><path d="M16.56,27.56c.14-.13,.28-.27,.41-.41,.13-.14,.26-.28,.37-.44,.23-.3,.43-.63,.52-.98l.12-.45,.12,.45,.16,.62c.06,.19,.13,.39,.24,.51,.11,.12,.29,.13,.48,.06,.19-.06,.36-.18,.53-.3l-.02,.04c.05-.4,.09-.8,.11-1.21h.09c0,.2,.03,.41,.07,.6,.05,.19,.11,.39,.21,.54,.11,.16,.26,.23,.42,.17,.16-.05,.32-.17,.46-.31l-.03,.03c.12-.24,.25-.49,.36-.73l.17-.37c.06-.12,.11-.25,.15-.36l.53-1.39-.24,1.47c-.05,.31-.04,.66,.08,.94,.12,.28,.38,.48,.7,.54,.32,.07,.67,.05,1.01,0,.17-.04,.34-.05,.51-.11l.51-.13v.03c-.31,.14-.64,.28-.99,.37-.17,.06-.35,.07-.53,.1-.09,.02-.18,0-.28,0-.09,0-.19,0-.28-.02-.19-.03-.38-.09-.54-.2-.08-.06-.17-.12-.22-.2l-.09-.12-.07-.13c-.17-.36-.18-.75-.11-1.13l.29,.08c-.05,.14-.11,.26-.17,.39l-.19,.37c-.13,.25-.26,.49-.39,.72v.02h-.03c-.16,.15-.34,.28-.57,.35-.12,.03-.26,.02-.37-.04-.11-.06-.19-.16-.25-.25-.11-.2-.16-.4-.19-.61-.03-.21-.05-.41-.05-.62h.1c-.04,.4-.06,.81-.08,1.21v.02l-.02,.02c-.17,.14-.33,.28-.54,.38-.05,.03-.11,.05-.17,.06-.06,.02-.12,.03-.18,.02-.13,0-.26-.06-.36-.14-.19-.18-.26-.4-.33-.61-.06-.21-.1-.43-.15-.62h.24c-.12,.4-.36,.73-.63,1.02-.13,.15-.27,.28-.43,.41-.15,.13-.31,.25-.47,.35l-.02-.02Z" style="fill:#be9952;"/><path d="M25.53,19.11c-.15,.16-.32,.29-.46,.44-.07,.07-.15,.14-.2,.22-.02,.04-.05,.07-.06,.1,0,.03,0,.02,0,.03,.02,.03,.12,.08,.22,.1,.1,.03,.21,.04,.31,.04,.21,0,.42-.03,.63-.08h-.01c.18-.09,.33-.24,.48-.38,.07-.07,.13-.15,.17-.23,.02-.04,.04-.08,.05-.11,0-.03,0-.05,0-.06,0-.01-.06-.06-.16-.07-.09-.02-.2-.02-.3-.02-.21,0-.43,.02-.65,.03m-.01-.03c.2-.1,.41-.18,.64-.23,.11-.02,.23-.04,.36-.04,.06,0,.13,.01,.2,.04,.07,.02,.16,.08,.2,.17,.05,.1,.04,.19,.02,.27-.02,.07-.05,.13-.09,.19-.07,.11-.16,.19-.24,.28-.17,.16-.38,.28-.61,.33h-.01c-.22,0-.43,.01-.65,.03-.11,0-.22,.02-.33,.03-.11,0-.23,.01-.38-.1-.08-.07-.09-.2-.06-.27,.02-.08,.06-.13,.11-.18,.08-.09,.17-.16,.26-.23,.19-.13,.38-.23,.59-.29" style="fill:#be9952;"/><path d="M23.82,20.92c.11-.09,.23-.14,.36-.18,.13-.04,.26-.07,.4-.05,.07,0,.14,.03,.22,.07,.04,.02,.08,.05,.1,.1,.02,.05,.02,.1,0,.14-.06,.14-.15,.23-.22,.34l-.08-.13c.11-.06,.23-.12,.35-.17,.12-.05,.24-.1,.36-.13,.12-.03,.24-.07,.37-.09,.12-.03,.26-.05,.37-.07h.03c-.02,.06-.04,.07-.07,.1-.02,.02-.05,.05-.08,.07-.05,.04-.11,.08-.17,.11-.11,.07-.23,.12-.35,.17-.12,.05-.25,.07-.38,.1-.13,.03-.26,.05-.39,.05l-.33,.03,.26-.16c.1-.06,.21-.16,.24-.26,.02-.09-.12-.05-.23-.04-.11,.02-.24,.02-.36,.03-.13,0-.25,0-.39-.01v-.03Z" style="fill:#be9952;"/><path d="M19.88,24.47c.11-.06,.22-.11,.33-.17,.11-.05,.22-.1,.33-.15,.22-.09,.45-.18,.68-.26l.14-.05,.02,.16c.01,.07,.05,.16,.11,.22,.06,.06,.15,.09,.26,.1,.1,0,.22-.01,.32-.05,.11-.03,.21-.08,.31-.14l.05-.03v.05c.05,.16,.12,.31,.21,.42,.1,.12,.21,.14,.33,.09,.12-.05,.23-.15,.34-.26,.05-.05,.11-.12,.16-.18,.06-.06,.12-.12,.18-.18,.13-.11,.27-.22,.43-.3,.16-.08,.35-.13,.54-.12,.19,.01,.37,.1,.5,.22,.13,.11,.22,.26,.31,.4l-.02,.02c-.12-.11-.24-.22-.38-.29-.13-.07-.27-.11-.41-.1-.27,.01-.52,.21-.76,.4-.24,.18-.44,.5-.82,.61-.09,.03-.21,.03-.31-.02-.1-.05-.17-.12-.21-.2-.09-.16-.12-.32-.17-.48l.07,.03c-.21,.1-.42,.21-.67,.26-.12,.02-.27,0-.4-.07-.13-.08-.21-.21-.23-.37l.17,.11c-.23,.08-.46,.15-.69,.21-.12,.03-.24,.06-.35,.08-.12,.02-.24,.05-.36,.06v-.03Z" style="fill:#be9952;"/><path d="M27.99,18.04c.02,.18,.13,.33,.27,.44,.06,.06,.15,.09,.23,.13,.09,.02,.17,.06,.26,.07,.35,.07,.71,.05,1.07,0l.27-.04,.27-.05,.27-.05,.26-.07c.35-.09,.7-.21,1.05-.31h.02c.28-.04,.56-.06,.85-.06,.14,0,.29,.01,.43,.04,.07,.01,.14,.03,.22,.06,.03,.02,.07,.04,.11,.06,.03,.03,.07,.05,.08,.13v-.03c.03,.08,.06,.16,.08,.25,.02,.09,0,.19-.05,.27-.11,.16-.29,.19-.45,.21-.08,.01-.16,.02-.24,.02-.08,0-.16,0-.24,0-.16,0-.31-.03-.47-.05h-.01c-.1-.04-.21-.1-.27-.21-.06-.12-.02-.25,.03-.35,.11-.2,.26-.35,.42-.49,.32-.28,.66-.51,1.03-.73l.1-.05,.06,.11c.21,.36,.56,.67,.96,.74,.2,.03,.41,0,.61-.06,.19-.06,.42-.18,.65-.24,.45-.14,.92-.19,1.38-.21,.47-.02,.93,0,1.39,.07h-.06c.19-.07,.39-.18,.54-.32,.07-.07,.12-.15,.13-.22,0-.07-.04-.16-.12-.23-.15-.14-.36-.24-.56-.32-.21-.08-.42-.15-.64-.22v-.03c.23,.04,.45,.08,.67,.15,.22,.07,.44,.15,.64,.3,.09,.08,.19,.2,.19,.35,0,.15-.08,.28-.16,.37-.17,.18-.38,.3-.6,.4h-.06c-.44-.04-.9-.03-1.34-.01-.44,.03-.89,.08-1.31,.21-.22,.06-.4,.14-.64,.22-.23,.07-.49,.1-.74,.05-.25-.05-.48-.17-.67-.33-.19-.17-.33-.35-.45-.58l.15,.05c-.36,.19-.72,.4-1.04,.64-.16,.13-.31,.26-.41,.42-.05,.08-.07,.17-.04,.25,.04,.07,.12,.13,.21,.17h-.01c.16,.02,.31,.05,.46,.05,.08,0,.16,.01,.23,0,.08,0,.15,0,.23-.02,.15-.02,.3-.07,.37-.18,.07-.11,.01-.27-.06-.38v-.03s-.03-.02-.05-.03c-.02-.02-.05-.03-.07-.04-.06-.02-.12-.03-.19-.04-.13-.02-.26-.02-.4,0-.27,.01-.54,.06-.81,.1h.02c-.35,.11-.71,.23-1.07,.31l-.27,.07-.28,.05-.28,.05-.28,.03c-.37,.03-.76,.03-1.13-.07-.09-.02-.18-.07-.27-.1-.08-.05-.17-.1-.24-.17-.14-.13-.24-.32-.24-.51h.03Z" style="fill:#be9952;"/><path d="M27.72,28.25c.36,0,.68-.23,.91-.49,.24-.27,.41-.58,.56-.91,.25-.69,.78-1.37,1.52-1.63,.36-.13,.77-.17,1.15-.04,.18,.07,.36,.19,.46,.37,.09,.19,.11,.36,.18,.53,.14,.34,.33,.66,.58,.91,.13,.12,.28,.22,.45,.24,.16,.02,.32-.06,.44-.18,.24-.24,.39-.59,.51-.92,.12-.34,.21-.69,.29-1.05,.16-.71,.26-1.44,.36-2.16,.2-1.45,.34-2.91,.49-4.38h.03c.04,1.47-.04,2.95-.21,4.42-.09,.73-.22,1.46-.4,2.18-.09,.36-.2,.72-.34,1.07-.07,.17-.15,.34-.25,.51-.1,.16-.21,.32-.37,.45-.07,.07-.16,.12-.26,.16-.1,.03-.2,.04-.3,.03-.2-.04-.37-.16-.5-.29-.27-.27-.44-.6-.6-.94-.08-.17-.13-.36-.2-.5-.09-.14-.25-.23-.4-.28-.33-.09-.7-.03-1.01,.11-.32,.14-.61,.35-.84,.6-.06,.07-.12,.13-.17,.2l-.15,.22c-.08,.15-.17,.31-.25,.48-.17,.33-.38,.65-.65,.92-.27,.26-.64,.47-1.02,.41v-.03Z" style="fill:#be9952;"/><path d="M34.79,26.48c.06,.31,.15,.61,.32,.84,.16,.24,.41,.38,.69,.44,.14,.05,.29,.03,.44,.05,.15-.02,.31-.03,.45-.08,.15-.05,.3-.09,.43-.17l.41-.23,.04-.02,.05,.02c.27,.12,.52,.24,.79,.33,.27,.08,.54,.13,.81,.14,.27,0,.54-.04,.8-.14,.26-.1,.51-.25,.75-.41l.02,.02c-.18,.23-.41,.43-.68,.59-.27,.15-.58,.23-.89,.24-.32,.01-.62-.07-.9-.18-.28-.11-.54-.26-.78-.43h.09c-.3,.12-.6,.23-.9,.33-.15,.05-.31,.08-.46,.14-.16,.02-.33,.06-.49,.04-.34-.01-.68-.24-.84-.54-.17-.3-.2-.64-.15-.96h.03Z" style="fill:#be9952;"/><path d="M31.1,23.88c.14-.05,.29-.05,.43-.05,.14,0,.29,.02,.43,.09,.14,.06,.26,.16,.37,.27,.11,.1,.17,.28,.14,.44l-.1-.1c.12-.08,.24-.16,.36-.22,.12-.07,.24-.14,.36-.21,.12-.06,.25-.12,.38-.18,.12-.06,.25-.11,.38-.19h.02c-.06,.16-.16,.28-.27,.38-.11,.1-.23,.19-.36,.26-.13,.07-.26,.13-.4,.18-.13,.05-.27,.09-.41,.12l-.2,.04,.1-.14c.07-.1,.05-.24-.06-.32-.11-.08-.25-.09-.38-.11-.13-.02-.26-.06-.39-.1-.13-.04-.26-.08-.4-.14v-.03Z" style="fill:#be9952;"/><path d="M34.73,23.92c-.28,.05-.56,.04-.84-.01-.28-.06-.56-.15-.79-.33-.23-.19-.39-.44-.51-.69-.12-.26-.16-.54-.19-.83h0c.02-.17,.1-.31,.19-.42,.09-.11,.21-.2,.33-.27,.12-.07,.25-.13,.4-.17,.14-.03,.31-.05,.49,.03,.09,.05,.16,.12,.2,.21,.04,.09,.05,.18,.04,.26,0,.16-.06,.29-.12,.42-.12,.25-.28,.47-.45,.67l-.02-.02c.1-.25,.21-.48,.27-.73,.03-.12,.05-.24,.05-.35,0-.05-.02-.1-.03-.13-.02-.03-.04-.05-.07-.06-.07-.03-.17-.03-.29,0-.11,.02-.22,.06-.33,.11-.21,.11-.42,.27-.49,.47h0c-.02,.25-.03,.53,.1,.77,.12,.24,.33,.41,.55,.54,.23,.12,.46,.23,.72,.31,.25,.08,.51,.15,.79,.2v.03Z" style="fill:#be9952;"/><path d="M29.39,21.62c.23,.17,.42,.35,.61,.51,.08,.09,.18,.19,.3,.22,.12,.03,.26-.02,.33-.12,.13-.19,.26-.47,.47-.66,.1-.1,.22-.19,.36-.25,.13-.06,.29-.11,.44-.07v.03c-.24,.12-.4,.32-.57,.51l-.27,.29c-.08,.09-.19,.22-.32,.29-.13,.08-.29,.11-.44,.09-.15,0-.3-.04-.43-.11-.13-.07-.23-.18-.31-.3-.08-.12-.15-.25-.18-.39l.02-.02Z" style="fill:#be9952;"/><path d="M32.47,20.61c1,.05,1.99,.14,2.97,.26,.49,.06,.98,.14,1.48,.17,.49,.03,.99,.02,1.48-.04,.24-.03,.49-.08,.71-.14,.11-.03,.22-.08,.31-.13,.05-.03,.07-.05,.11-.1l.11-.14c.26-.37,.36-.87,.18-1.26-.08-.2-.24-.35-.44-.41-.05-.02-.1-.02-.15-.03-.05,0-.13,0-.19-.02-.07-.01-.14-.03-.21-.06-.04-.01-.08-.04-.11-.07-.03-.04-.07-.07-.09-.15-.01-.13,.08-.22,.14-.25,.03-.02,.07-.04,.1-.05,.03-.01,.07-.03,.1-.03,.13-.04,.26-.05,.39-.05,.26,0,.51,.04,.75,.09v.03c-.25,0-.5,0-.74,.02-.12,.02-.24,.04-.34,.08-.05,.02-.1,.05-.14,.08-.05,.03-.04,.06-.04,.05,0,0,0,0,0,0,.02,0,.03,.02,.05,.02,.04,.02,.1,.02,.15,.03h.18c.07,0,.14,0,.22,.03,.29,.06,.52,.29,.64,.55,.12,.26,.14,.55,.09,.82-.05,.27-.17,.52-.33,.73l-.13,.15s-.11,.11-.17,.14c-.13,.07-.26,.11-.38,.14-.25,.06-.51,.07-.76,.08-.5,.01-1,0-1.5-.02-.5,0-1,0-1.5-.03-1-.07-1.98-.22-2.95-.47v-.03Z" style="fill:#be9952;"/><path d="M36.03,20.04c.21-.22,.47-.38,.75-.47,.14-.04,.29-.05,.44-.09,.14-.04,.28-.1,.41-.16,.14-.06,.28-.11,.43-.14,.15-.02,.32-.04,.49,.02,.17,.05,.33,.22,.36,.4,.04,.17,0,.33-.07,.47h-.03c-.03-.15-.05-.29-.11-.39-.06-.1-.13-.15-.24-.18-.11-.03-.24-.05-.37-.04l-.42,.02c-.14,0-.29,.04-.42,.1-.13,.06-.25,.15-.38,.22-.26,.13-.52,.23-.82,.28v-.02Z" style="fill:#be9952;"/><path d="M34.15,25.75l1.75-.13c.58-.06,1.17-.04,1.74-.17,.57-.13,1.11-.39,1.56-.73,.46-.33,.76-.82,.81-1.36h0c0-.13,0-.28-.07-.4-.06-.12-.16-.21-.29-.27-.13-.06-.29-.07-.44-.07-.16,0-.32,.02-.48,.05v-.03c.14-.07,.3-.12,.46-.16,.17-.03,.34-.04,.52,0,.18,.05,.35,.17,.45,.34,.1,.17,.13,.35,.14,.53h0c-.02,.33-.12,.65-.3,.91-.18,.26-.41,.48-.67,.65-.52,.34-1.11,.46-1.68,.61-.57,.14-1.15,.31-1.74,.34-.59,.03-1.19,.02-1.77-.09v-.03Z" style="fill:#be9952;"/><path d="M35.4,24.19c.1,.15,.2,.29,.31,.38,.11,.08,.21,.1,.36,.08,.15-.03,.31-.12,.42-.25,.11-.13,.18-.29,.27-.44l.04-.06h.08c.18,.05,.29,.12,.4,.17,.11,.05,.22,.09,.32,.1s.19,0,.3-.06c.1-.05,.2-.14,.31-.23l.03,.02c-.04,.13-.09,.27-.2,.38-.1,.11-.27,.2-.44,.19-.17,0-.32-.06-.44-.14-.12-.07-.23-.15-.31-.19l.12-.05c-.13,.13-.26,.25-.39,.37-.13,.12-.24,.26-.41,.37-.08,.05-.2,.09-.31,.07-.06,0-.11-.03-.16-.06-.05-.03-.09-.07-.12-.11-.13-.16-.18-.35-.17-.54h.03Z" style="fill:#be9952;"/><path d="M30.58,19.84c.05-.1,.11-.13,.18-.11,.03,.02,.06,.06,.1,.07,.03,0,.06,0,.09-.04,.03-.03,.06-.05,.09-.06,.03-.01,.06-.03,.09-.02,.06,.01,.12,.04,.19,.13v.03c-.05,.1-.11,.13-.17,.15-.03,0-.06,0-.09-.01-.03,0-.06-.02-.1-.05-.03-.03-.06-.04-.09-.03-.03,0-.06,.06-.09,.08-.06,.02-.12,0-.19-.1v-.03Z" style="fill:#be9952;"/><path d="M29.96,20.53c.05-.11,.12-.16,.21-.16,.04,0,.09,.04,.13,.04,.04,0,.08-.02,.11-.06,.03-.04,.07-.07,.1-.08,.04-.02,.07-.04,.11-.05,.08,0,.17,0,.27,.07v.03c-.05,.11-.12,.16-.19,.2-.04,.01-.08,.01-.12,.01-.04,0-.08,0-.13-.03-.05-.02-.09-.02-.13,0-.04,.02-.06,.07-.1,.1-.07,.04-.16,.03-.26-.04v-.03Z" style="fill:#be9952;"/><path d="M33.54,19.43c.08-.1,.16-.13,.24-.11,.04,.02,.08,.07,.12,.07,.04,0,.08,0,.12-.03,.04-.03,.08-.05,.12-.06,.04-.01,.08-.02,.12-.02,.08,.01,.16,.05,.25,.14v.03c-.08,.09-.16,.13-.24,.14-.04,0-.08,0-.12-.02-.04,0-.08-.03-.12-.06-.04-.03-.08-.04-.12-.03-.04,0-.08,.05-.12,.07-.08,.02-.16,0-.24-.1v-.03Z" style="fill:#be9952;"/><path d="M29.29,25.97c-.1,.1-.22,.17-.34,.23-.12,.05-.26,.1-.4,.1-.07,0-.15-.02-.23-.05-.08-.03-.15-.12-.15-.2,0-.16,.06-.28,.1-.41,.04-.13,.09-.25,.16-.37,.06-.12,.12-.23,.2-.34,.16-.21,.34-.41,.6-.53l.02,.02c-.11,.24-.23,.47-.36,.68-.15,.21-.3,.42-.48,.61-.08,.09-.16,.21-.14,.32,.03,.1,.16,.06,.27,.03,.23-.05,.47-.11,.75-.12v.03Z" style="fill:#be9952;"/><path d="M41.27,18.8c.15,.11,.28,.24,.4,.38,.12,.14,.22,.3,.3,.47,.08,.17,.12,.36,.14,.55,.02,.19-.02,.39-.07,.57l-.04-.12c.49,.38,.97,.76,1.41,1.2,.44,.44,.83,.94,1.11,1.5,.27,.56,.4,1.19,.34,1.81-.07,.62-.29,1.21-.6,1.76l-.02,.04h-.05c-.35,.08-.71,.09-1.07,.03-.36-.05-.7-.19-1.01-.38-.31-.18-.59-.43-.8-.73-.11-.14-.19-.31-.28-.47-.06-.17-.13-.34-.16-.52-.08-.35-.07-.72-.02-1.07,.07-.35,.16-.68,.26-1.01,.1-.33,.2-.66,.31-.99,.05-.16,.11-.33,.18-.49,.07-.16,.12-.32,.22-.47l.02,.02c-.12,.31-.2,.65-.28,.98-.08,.33-.16,.67-.23,1-.08,.33-.16,.67-.2,1-.02,.33-.03,.66,.05,.97,.03,.16,.1,.31,.15,.46,.08,.14,.14,.29,.24,.42,.19,.26,.42,.5,.7,.67,.55,.35,1.23,.49,1.89,.4l-.07,.05c.32-.51,.6-1.06,.67-1.66,.09-.6-.06-1.22-.36-1.74-.3-.53-.72-.96-1.16-1.38-.44-.42-.91-.81-1.37-1.21l-.06-.05,.02-.07c.05-.16,.1-.32,.09-.49,0-.17-.03-.34-.09-.5-.12-.33-.32-.63-.57-.89l.02-.02Z" style="fill:#be9952;"/><path d="M44.82,18.95c.13,.08,.23,.19,.33,.3,.09,.11,.18,.23,.23,.37,.06,.14,.08,.29,.13,.42,.05,.13,.12,.26,.19,.39,.07,.13,.14,.26,.18,.41,.05,.14,.08,.29,.1,.44,.02,.3-.02,.61-.17,.88h-.03c-.04-.3-.06-.57-.11-.84-.04-.27-.09-.54-.13-.83-.03-.14-.06-.28-.13-.4-.07-.13-.17-.23-.25-.35-.16-.24-.28-.49-.37-.77l.02-.02Z" style="fill:#be9952;"/><path d="M48.47,18.6c-.3,.13-.61,.22-.93,.29-.16,.04-.32,.06-.49,.07-.17,.01-.34,.02-.52-.03-.05-.01-.09-.03-.14-.06-.02-.02-.05-.04-.05-.04,0,0,0,0,0,0,0,0,.02,0,.04,0,.03-.01,.03-.03,.03-.02,0,0,0,.02-.01,.03,0,.03-.01,.07-.01,.11,0,.15,0,.31,.02,.47,.04,.32,.11,.63,.2,.94l-.07-.05c.34-.08,.68-.18,1.01-.28,.34-.09,.67-.2,.99-.32,.16-.06,.32-.12,.46-.2,.07-.04,.14-.08,.2-.13,.06-.04,.14-.12,.23-.16,.17-.1,.38-.16,.57-.12,.19,.04,.36,.15,.47,.3l-.02,.02c-.14-.1-.3-.17-.46-.17-.16,0-.3,.07-.43,.16-.03,.02-.06,.05-.09,.08-.03,.03-.06,.05-.1,.09-.07,.07-.15,.12-.23,.17-.16,.1-.33,.18-.5,.24-.34,.13-.69,.21-1.04,.29-.35,.07-.7,.12-1.06,.15h-.06v-.05c-.06-.32-.12-.63-.19-.95-.03-.16-.07-.32-.09-.48,0-.04,0-.09,0-.13,0-.02,0-.05,.01-.08,0-.03,.03-.08,.1-.11,.04-.01,.08,0,.1,0,.03,0,.05,.02,.06,.02,.04,.02,.04,.02,.05,.03,.02,.01,.05,.02,.08,.03,.27,.05,.6,.01,.9-.02l.95-.11v.03Z" style="fill:#be9952;"/><path d="M43.43,19.99c.13,.05,.19,.13,.2,.22,0,.05-.02,.11-.01,.16,0,.05,.04,.08,.08,.12,.04,.03,.08,.07,.11,.11,.03,.04,.06,.08,.07,.12,.02,.09,.03,.19-.02,.31h-.03c-.12-.04-.19-.12-.23-.2-.02-.04-.03-.09-.04-.14-.01-.05,0-.1,0-.15,0-.05,0-.1-.02-.14-.03-.04-.09-.07-.12-.1-.06-.08-.06-.18,0-.3h.03Z" style="fill:#be9952;"/><path d="M42.43,18.18c.12-.09,.24-.12,.36-.09,.06,.02,.11,.07,.17,.08,.06,.01,.12,0,.18-.03,.06-.03,.12-.05,.18-.05,.06,0,.12-.02,.18,0,.12,.02,.24,.05,.35,.15v.03c-.12,.09-.24,.12-.36,.13-.06,0-.12-.01-.18-.02-.06,0-.12-.03-.18-.06-.06-.03-.12-.05-.18-.04-.06,0-.12,.05-.18,.07-.12,.02-.24-.01-.35-.12v-.03Z" style="fill:#be9952;"/><path d="M40.3,29.07c.12-.09,.24-.12,.36-.09,.06,.02,.11,.07,.17,.08,.06,.01,.12,0,.18-.03,.06-.03,.12-.05,.18-.05,.06,0,.12-.02,.18-.01,.12,.02,.24,.05,.35,.15v.03c-.12,.09-.24,.12-.36,.13-.06,0-.12-.01-.18-.02-.06,0-.12-.03-.18-.06-.06-.03-.12-.05-.18-.04-.06,0-.12,.05-.18,.07-.12,.02-.24-.01-.35-.12v-.03Z" style="fill:#be9952;"/><path d="M44.49,22.61c.32,.33,.64,.67,.99,.93,.18,.13,.36,.24,.56,.3,.19,.06,.42,.02,.59-.13l.05-.05,.02,.07c.06,.17,.16,.35,.29,.48,.13,.13,.29,.22,.47,.25,.17,.03,.34,.02,.51-.05,.08-.02,.16-.07,.24-.11l.23-.15h.02l.02-.02c.22-.09,.48-.06,.68,.01,.21,.07,.38,.18,.55,.28,.17,.11,.33,.21,.5,.29,.17,.07,.35,.12,.54,.05l.02,.03c-.16,.13-.41,.14-.61,.08-.2-.05-.39-.14-.56-.23-.18-.09-.35-.17-.52-.22-.17-.05-.33-.06-.48-.02l.03-.02-.27,.15c-.1,.04-.19,.08-.3,.11-.2,.05-.43,.06-.64-.02-.2-.07-.37-.21-.49-.37-.12-.16-.23-.33-.3-.52l.08,.02c-.09,.09-.19,.16-.31,.21-.12,.05-.25,.06-.38,.05-.26-.02-.49-.15-.67-.3-.38-.31-.66-.69-.86-1.12l.02-.02Z" style="fill:#be9952;"/><path d="M46.74,23.01c.03-.18,.12-.34,.25-.48,.13-.14,.31-.25,.51-.26,.2,0,.38,.07,.54,.15,.08,.04,.15,.09,.23,.12,.07,.05,.15,.09,.23,.14h0l.02,.02c.11,.14,.2,.31,.22,.5,.03,.19,0,.4-.12,.57s-.28,.28-.44,.35c-.17,.07-.35,.09-.52,.09v-.03c.29-.17,.57-.33,.7-.57,.07-.11,.11-.24,.11-.39,0-.14-.03-.29-.09-.44l.02,.02c-.06-.06-.11-.12-.18-.18-.07-.04-.14-.1-.22-.12-.15-.06-.33-.04-.46,0-.14,.04-.27,.1-.4,.19-.13,.09-.25,.2-.37,.32h-.03Z" style="fill:#be9952;"/><path d="M36.9,29.35c.03-.18,.13-.34,.25-.48,.13-.14,.31-.25,.51-.26,.2,0,.38,.07,.54,.15,.08,.04,.15,.09,.23,.12,.07,.05,.15,.09,.23,.14h0l.02,.02c.11,.14,.2,.31,.22,.5,.03,.19,0,.4-.12,.57-.11,.17-.28,.28-.44,.35-.17,.07-.35,.09-.52,.09v-.03c.29-.17,.57-.33,.71-.57,.07-.11,.11-.24,.11-.39,0-.14-.04-.29-.09-.44l.02,.02c-.06-.06-.11-.12-.18-.18-.07-.04-.14-.1-.22-.12-.15-.06-.33-.04-.46,0-.14,.04-.27,.1-.4,.19-.13,.09-.25,.2-.38,.33h-.03Z" style="fill:#be9952;"/><path d="M46.77,25.63c.09,.07,.14,.16,.17,.26,.04,.1,.06,.19,.05,.3,0,.1-.05,.2-.07,.3-.01,.1-.02,.2-.01,.3,0,.05,0,.11,0,.16-.01,.05-.03,.1-.05,.15-.01,.05-.05,.1-.07,.14-.02,.05-.06,.09-.09,.13-.15,.16-.35,.25-.56,.26v-.02c.11-.17,.24-.29,.33-.43,.11-.13,.2-.26,.3-.42,.05-.08,.08-.17,.07-.27,0-.09-.05-.19-.08-.27-.04-.18-.05-.35-.02-.56h.03Z" style="fill:#be9952;"/><path d="M45.81,26.64c0,.19-.07,.35-.18,.47-.06,.06-.15,.1-.21,.16-.06,.06-.1,.13-.14,.21-.07,.16-.18,.3-.31,.41-.14,.1-.33,.17-.51,.13v-.03c.11-.14,.21-.24,.32-.35,.06-.05,.12-.09,.18-.14,.06-.05,.13-.09,.21-.13,.07-.04,.13-.1,.18-.16,.04-.07,.06-.16,.09-.24,.08-.14,.19-.26,.35-.34h.03Z" style="fill:#be9952;"/><path d="M44.79,27.07c.08,.25,.06,.54-.07,.79-.14,.24-.36,.44-.61,.55-.25,.12-.51,.18-.78,.22-.27,.04-.53,.04-.79,.02h-.04l-.02-.02c-.35-.31-.61-.69-.87-1.06-.25-.38-.5-.75-.72-1.15h.14c-.1,.21-.28,.37-.49,.46-.21,.08-.45,.1-.66,.06-.11-.01-.21-.05-.32-.08-.1-.04-.2-.07-.3-.12-.19-.09-.37-.2-.55-.31l-.2-.14,.22-.12c.23-.14,.47-.27,.7-.41,.23-.15,.46-.29,.68-.45,.22-.16,.44-.32,.66-.48,.22-.17,.43-.33,.65-.51l.02,.02c-.18,.21-.36,.42-.56,.61-.2,.19-.41,.38-.62,.55-.43,.35-.89,.67-1.38,.94v-.26l.26,.16c.08,.05,.17,.1,.26,.15,.08,.05,.18,.08,.26,.12,.09,.03,.18,.07,.27,.08,.18,.04,.37,.05,.54,0,.17-.05,.33-.17,.42-.31l.09-.14,.06,.14c.17,.4,.39,.8,.65,1.16,.26,.36,.58,.68,.93,.94l-.07-.02c.13-.01,.25-.02,.38-.03,.13,0,.25-.03,.38-.04,.13,0,.25-.04,.37-.06,.12-.03,.24-.06,.35-.11,.23-.09,.43-.22,.57-.42,.13-.2,.2-.45,.17-.71h.03Z" style="fill:#be9952;"/><path d="M47.69,26.73c.15-.25,.36-.45,.6-.62,.23-.17,.48-.31,.75-.41,.14-.04,.27-.09,.41-.12,.14-.03,.28-.06,.41-.1,.28-.06,.54-.16,.81-.23,.54-.17,1.11-.24,1.67-.28,.28,0,.57,0,.85,.02,.28,.04,.56,.07,.84,.13v.03c-.28,.04-.56,.05-.84,.07-.28,.03-.55,.04-.83,.06-.28,.03-.55,.03-.83,.05-.28,.03-.55,.04-.83,.07-.28,.02-.55,.09-.82,.17-.26,.09-.51,.23-.75,.35-.49,.25-.98,.49-1.42,.83l-.02-.02Z" style="fill:#be9952;"/><path d="M50.69,26.04c.23-.19,.43-.44,.54-.71,.11-.27,.13-.56,.06-.84-.07-.28-.22-.54-.39-.77-.18-.26-.35-.55-.42-.87-.07-.33,0-.69,.2-.95,.2-.26,.47-.44,.75-.57,.57-.27,1.19-.39,1.81-.47h0c.43-.01,.87-.03,1.31-.03h.18l-.04,.16c-.06,.24-.16,.44-.29,.62-.12,.19-.29,.34-.46,.49-.35,.28-.77,.45-1.2,.55-.21,.06-.43,.07-.64,.1-.21,.02-.43,.02-.64,.02-.21-.02-.43-.03-.64-.05-.21-.04-.42-.07-.63-.11v-.03c.22,0,.43,.01,.64,.02,.21,0,.42,0,.63-.01,.21-.02,.41-.04,.62-.06,.2-.04,.41-.07,.6-.14,.2-.05,.38-.13,.57-.21l.26-.14,.25-.17c.15-.13,.3-.26,.41-.42,.12-.15,.22-.34,.27-.5l.13,.17c-.44,0-.87-.02-1.31-.04h0c-.61,.01-1.23,.09-1.78,.34-.28,.12-.53,.31-.68,.56-.16,.25-.18,.55-.09,.83,.08,.27,.24,.53,.41,.77,.18,.27,.34,.55,.41,.88,.07,.32,.02,.67-.14,.96-.03,.07-.08,.14-.13,.21-.05,.06-.1,.12-.16,.18-.11,.11-.24,.21-.38,.28v-.02Z" style="fill:#be9952;"/><path d="M54.92,20.83c.21,.09,.4,.22,.57,.36,.17,.15,.33,.32,.44,.52,.11,.21,.17,.46,.11,.7-.07,.24-.28,.39-.47,.5v-.15c.21,.06,.43,.13,.63,.22,.1,.04,.2,.07,.27,.07,.07,0,.15-.03,.24-.07,.09-.04,.18-.1,.28-.15,.05-.03,.11-.05,.18-.08,.04,0,.08-.02,.14,0,.03,0,.07,.02,.1,.05,.03,.03,.04,.06,.04,.09,.01,.1-.02,.16-.04,.21-.02,.06-.05,.11-.08,.16-.06,.1-.13,.19-.2,.27h-.03c.03-.12,.07-.22,.1-.33,.01-.05,.03-.1,.03-.15,0-.05,0-.1,0-.11-.01,0,.02,.04,.03,.04,0,0,0,0-.02,.01-.03,.02-.07,.04-.11,.07-.09,.06-.18,.12-.29,.18-.1,.05-.24,.11-.39,.1-.15-.01-.26-.07-.36-.12-.2-.1-.39-.21-.58-.32l-.16-.09,.16-.05c.1-.04,.2-.07,.28-.13,.08-.06,.14-.15,.16-.25,.04-.2-.1-.39-.22-.55-.12-.16-.26-.33-.4-.49-.14-.16-.29-.32-.43-.5l.02-.02Z" style="fill:#be9952;"/><path d="M52.4,24.2c.35-.15,.7-.28,1.05-.4l.49-.17-.4,.35c-.08,.07-.16,.14-.21,.22-.03,.04-.06,.08-.06,.1,0,.01,0,0,0-.03-.02-.02-.02-.02,0-.01,.06,.01,.17,0,.27-.02,.1-.02,.2-.04,.31-.07,.21-.05,.42-.09,.63-.14,.1-.03,.21-.06,.31-.09,.05-.02,.1-.04,.14-.06,.02-.01,.05-.02,.07-.04,.01,0,.02-.01,.03-.02,0,0,.02-.03,.01,0l.09,.03c-.23,.33-.44,.67-.64,1.03-.2,.35-.4,.7-.61,1.05l-.16-.19,.9-.45c.3-.15,.61-.29,.92-.42l.49-.22-.31,.43-.3,.42c-.1,.14-.2,.28-.31,.42-.21,.28-.41,.55-.64,.82l-.02-.02c.16-.31,.32-.61,.5-.91,.08-.15,.18-.3,.26-.44l.27-.44,.18,.21c-.3,.15-.6,.3-.91,.44l-.92,.41-.42,.19,.26-.38c.23-.33,.47-.66,.71-.98,.24-.33,.46-.66,.67-1.01l.2-.33-.11,.37c-.01,.05-.02,.05-.04,.06-.01,.01-.02,.02-.04,.03-.02,.02-.05,.03-.07,.05-.05,.03-.1,.06-.15,.08-.1,.05-.2,.09-.3,.14-.2,.08-.41,.16-.62,.22-.11,.03-.22,.06-.33,.08-.12,.01-.22,.04-.38,0-.04-.01-.1-.03-.14-.1-.04-.08-.02-.15,0-.18,.03-.08,.07-.12,.11-.17,.08-.09,.17-.16,.26-.23l.09,.18c-.36,.09-.73,.17-1.1,.23v-.03Z" style="fill:#be9952;"/><path d="M56.53,24.52c.16,.18,.23,.4,.23,.63,0,.11-.04,.23-.05,.34,0,.11,0,.22,.02,.33,.02,.11,.02,.23,0,.35-.01,.06-.03,.12-.04,.17-.02,.06-.05,.11-.07,.17-.12,.21-.35,.38-.59,.39v-.03c.14-.18,.24-.33,.32-.51,.1-.16,.15-.36,.23-.56,.04-.1,.05-.21,.04-.32-.01-.11-.07-.21-.1-.31-.05-.21-.06-.42-.02-.65h.03Z" style="fill:#be9952;"/><path d="M57.72,24.6c.18-.08,.38-.14,.58-.17,.2-.03,.41-.05,.63,.03,.11,.03,.25,.13,.28,.28,.04,.15-.02,.26-.07,.36-.11,.19-.26,.32-.38,.48h0c-.19,.15-.38,.29-.6,.4-.11,.05-.22,.1-.34,.13-.12,.03-.23,.06-.37,.07l.11-.21c.17,.24,.35,.48,.5,.74l.07,.12-.11,.08c-.19,.13-.39,.25-.59,.37-.2,.11-.4,.23-.62,.33l-.02-.02c.16-.17,.34-.33,.51-.48,.18-.15,.35-.3,.54-.44l-.04,.2c-.18-.24-.33-.5-.48-.76l-.12-.2h.23c.1,0,.22-.02,.33-.03,.11-.02,.22-.04,.33-.07,.22-.06,.43-.15,.6-.31h0c.12-.14,.23-.32,.28-.49,.03-.09,.03-.17,0-.22-.02-.04-.06-.08-.14-.1-.15-.06-.34-.06-.53-.07h-.59v-.03Z" style="fill:#be9952;"/><path d="M59.63,23.86c.16,0,.28,.09,.32,.21,.02,.06,0,.14,.01,.2,.01,.06,.04,.11,.08,.17,.04,.05,.07,.11,.09,.18,.02,.06,.03,.12,.02,.19-.02,.13-.07,.25-.18,.34h-.03c-.04-.07-.06-.13-.07-.19-.02-.06-.02-.11-.03-.16,0-.11,.01-.21,.05-.32,.01-.06,.01-.12-.02-.17-.03-.05-.09-.08-.14-.11-.07-.08-.1-.16-.13-.31l.02-.02Z" style="fill:#be9952;"/><path d="M60.88,25.32c.06,.17,.08,.34,.09,.52,0,.09,0,.18-.02,.27-.02,.09-.03,.19-.16,.31l-.02-.22c.25,.14,.48,.33,.75,.43,.27,.11,.56,.17,.82,.28,.27,.11,.54,.21,.79,.35,.25,.14,.5,.29,.73,.48v.03c-.3-.05-.58-.14-.85-.25-.27-.1-.52-.23-.78-.37-.26-.13-.49-.31-.74-.44-.25-.14-.55-.18-.82-.29l-.02-.22s.01-.02,.02-.05c.01-.03,.02-.06,.03-.1,.02-.07,.04-.16,.05-.24,.03-.16,.06-.33,.1-.51h.03Z" style="fill:#be9952;"/><path d="M62.07,26.17c-.11,.11-.17,.26-.21,.4-.04,.15-.07,.3-.09,.45-.03,.3-.02,.64-.13,.96-.11,.32-.28,.61-.44,.88-.04,.07-.07,.13-.1,.21-.03,.07-.06,.15-.07,.22-.01,.07,0,.14,.03,.19,.04,.04,.1,.06,.17,.07,.31,.04,.63,.05,.95,.09,.16,.02,.32,.03,.48,.05,.08,0,.16,.02,.25,.04,.04,0,.09,.02,.13,.04,.04,.02,.08,.03,.12,.05,.15,.07,.28,.13,.42,.17,.14,.04,.29,.06,.44,.07,.15,0,.31,0,.47,0,.15-.02,.32-.03,.44-.11h.03c-.05,.1-.13,.13-.2,.17-.08,.04-.16,.07-.23,.09-.16,.04-.32,.07-.49,.09-.17,.01-.34,0-.51-.03-.17-.03-.33-.1-.48-.16l-.11-.04s-.06-.02-.1-.03c-.07-.02-.15-.03-.23-.05-.15-.03-.31-.05-.47-.08-.32-.05-.63-.1-.95-.2-.08-.03-.18-.06-.24-.15-.05-.09-.05-.2-.03-.28,.02-.08,.05-.16,.08-.23,.03-.07,.05-.16,.09-.23,.15-.28,.24-.59,.29-.89,.03-.15,.05-.3,.08-.46,.02-.15,.03-.32,.07-.48,.07-.32,.21-.66,.51-.84l.02,.02Z" style="fill:#be9952;"/><path d="M59.73,27.81c-.02,.22-.01,.44,.02,.65s.13,.39,.28,.47c.15,.09,.36,.08,.56,.08,.11-.02,.21-.02,.32-.05l.32-.08,.12-.03-.04,.1c-.07,.17-.14,.34-.2,.51l-.1,.26s-.03,.09-.05,.13c-.01,.02-.02,.05-.03,.07,0,.01-.01,.02-.02,.04l-.02,.02s0,0-.04,.03l-.06-.13c.27-.16,.55-.3,.86-.36,.16-.03,.33-.04,.5-.01,.17,.03,.35,.12,.47,.26l.04,.05v.07c-.06,.36-.14,.72-.23,1.08-.09,.36-.19,.71-.32,1.06h-.03c.02-.19,.03-.37,.05-.56l.06-.54c.05-.36,.09-.72,.15-1.08l.03,.12c-.08-.08-.18-.15-.3-.18-.12-.03-.26-.03-.4-.01-.14,.01-.28,.05-.42,.09-.14,.04-.28,.09-.42,.14l-.06-.13s-.01,0-.01,0h0s.01-.02,.02-.03c.01-.02,.02-.03,.03-.05,.02-.04,.05-.07,.07-.11,.04-.08,.08-.16,.11-.25,.07-.17,.12-.34,.17-.52l.08,.07-.31,.14c-.11,.05-.22,.07-.33,.11-.23,.04-.5,.06-.73-.09-.24-.15-.32-.43-.33-.66,0-.24,.04-.47,.13-.68h.03Z" style="fill:#be9952;"/><path d="M63.89,31.28c-.05,.24-.12,.44-.16,.65-.04,.21-.07,.42-.03,.59,.03,.17,.18,.32,.4,.36,.21,.04,.44,0,.64-.07l-.06,.06c0-.14,.01-.28,.03-.42,.01-.14,.04-.28,.06-.42,.02-.14,.04-.28,.07-.42,.03-.14,.06-.27,.12-.42l.02-.07,.06-.02c.34-.08,.68-.16,1.03-.2v.03c-.3,.18-.62,.31-.94,.44l.09-.08c-.03,.11-.05,.26-.08,.39-.03,.14-.06,.27-.1,.41-.06,.28-.13,.55-.21,.82l-.02,.06h-.04c-.23,.02-.45,.03-.69,.01-.11,0-.23-.03-.35-.09-.12-.06-.22-.17-.27-.29-.09-.26-.03-.51,.05-.73,.08-.22,.21-.42,.34-.59h.03Z" style="fill:#be9952;"/><path d="M63.58,33.99c.41,.03,.8,.05,1.18,.04,.19,0,.39-.01,.57-.09,.17-.09,.31-.24,.39-.41,.04-.08,.06-.18,.09-.27,.03-.1,.06-.2,.1-.3,.08-.19,.18-.38,.31-.55,.27-.33,.67-.59,1.11-.58v.03c-.37,.17-.64,.44-.86,.74-.11,.15-.22,.31-.31,.48-.05,.09-.08,.18-.13,.26-.05,.09-.11,.19-.17,.27-.28,.33-.65,.55-1.07,.66-.43,.06-.86-.03-1.21-.25v-.03Z" style="fill:#be9952;"/><path d="M64.1,35.72c.09,.21,.11,.42,.09,.63-.02,.1-.07,.21-.08,.31,0,.1,0,.21,.02,.31,.03,.1,.04,.21,.05,.31,0,.1,.02,.21,0,.31-.02,.21-.06,.41-.15,.62h-.03c-.08-.21-.11-.42-.12-.63,0-.1,.01-.21,.02-.31,.01-.1,.04-.21,.07-.31,.03-.1,.05-.21,.04-.31,0-.11-.05-.21-.07-.32-.01-.21,.02-.41,.12-.62h.03Z" style="fill:#be9952;"/><path d="M65.78,34.75c.14,.11,.26,.26,.35,.41,.1,.15,.18,.31,.23,.48,.05,.17,.07,.36,.11,.53,.02,.09,.04,.17,.07,.26,.03,.09,.06,.17,.08,.26,.13,.34,.16,.71,.14,1.07-.02,.36-.16,.72-.35,1.02h-.03c.02-.37,.07-.7,.07-1.04,.01-.09,0-.17,.01-.25,0-.09,.01-.17,0-.25,0-.17,0-.34,0-.52,0-.17-.03-.35-.09-.51-.06-.17-.16-.31-.24-.47-.15-.31-.28-.62-.39-.97l.02-.02Z" style="fill:#be9952;"/><path d="M65.83,34.16c.04-.11,.11-.16,.18-.16,.04,0,.09,.04,.12,.04,.04,0,.07-.03,.1-.06,.03-.04,.06-.07,.09-.08,.03-.02,.06-.04,.1-.05,.07,0,.15,0,.24,.07v.03c-.04,.11-.1,.16-.16,.19-.04,.02-.07,.01-.11,.01-.04,0-.08,0-.12-.03-.04-.02-.08-.02-.11,0-.03,.02-.06,.07-.09,.1-.06,.04-.14,.03-.24-.04v-.03Z" style="fill:#be9952;"/><path d="M60.58,42.21c.29-.36,.64-.69,1.01-.97,.19-.14,.4-.25,.58-.4,.18-.14,.35-.31,.51-.48,.16-.17,.33-.34,.5-.5,.17-.16,.34-.32,.52-.47,.36-.29,.74-.57,1.16-.8l.02,.02c-.3,.38-.63,.7-.98,1.02-.18,.16-.36,.3-.55,.44-.18,.15-.38,.28-.57,.41-.19,.13-.39,.27-.56,.43-.17,.16-.32,.34-.49,.51-.17,.16-.35,.31-.54,.45-.19,.14-.38,.27-.61,.37v-.03Z" style="fill:#be9952;"/><path d="M66.17,39.22c-.29-.18-.55-.41-.78-.54-.06-.03-.08-.05-.12-.02-.04,.03-.07,.11-.08,.19-.02,.16,.02,.33,.09,.48,.12,.3,.26,.59,.49,.75,.21,.18,.52,.24,.86,.23v.03c-.28,.19-.71,.22-1.04,0-.16-.11-.28-.28-.34-.44-.08-.16-.11-.34-.12-.52-.02-.17-.02-.34-.03-.51,0-.09-.01-.18,.04-.28,.03-.05,.09-.1,.16-.11,.07-.02,.12,0,.17,0,.2,.06,.33,.19,.44,.31,.11,.13,.22,.27,.28,.43l-.02,.02Z" style="fill:#be9952;"/><path d="M63.34,41.59c0,.47-.05,.93-.02,1.34,.01,.1,.05,.21,.13,.27,.08,.06,.2,.07,.3,.04,.22-.05,.39-.2,.58-.33l-.02,.02,.32-.37c.11-.12,.22-.24,.33-.36l.33-.35c.11-.12,.23-.23,.3-.37h.03c0,.19-.09,.34-.17,.48-.08,.15-.18,.28-.28,.42-.1,.13-.21,.26-.33,.37-.12,.12-.24,.23-.36,.34h-.01v.02c-.22,.11-.46,.19-.7,.22-.12,0-.25,0-.37-.06-.12-.06-.21-.17-.26-.29-.11-.24-.1-.5-.06-.73,.04-.24,.11-.47,.23-.68h.03Z" style="fill:#be9952;"/><path d="M52.2,45.35c.16,.27,.38,.49,.63,.6,.26,.11,.54,.06,.82-.03,.28-.1,.56-.24,.8-.44,.12-.1,.24-.2,.34-.32,.1-.12,.2-.24,.3-.36l.02-.03h.05c.3,0,.61,0,.91,0,.3,0,.6,0,.9,.02,.6,.03,1.2,.08,1.81,.14v.03c-.3,.06-.6,.09-.91,.11-.3,.02-.61,.02-.91,.02-.3,0-.61-.03-.91-.06-.3-.03-.6-.06-.9-.11l.07-.03-.7,.64c-.23,.21-.47,.43-.77,.59-.29,.15-.69,.19-1,.01-.31-.17-.5-.48-.56-.79h.03Z" style="fill:#be9952;"/><path d="M61.96,40.68c-.21,.02-.4,0-.59-.09-.09-.05-.21-.1-.25-.27-.01-.04,0-.09,.01-.12,.02-.04,.04-.06,.06-.09,.05-.04,.09-.07,.14-.09,.19-.08,.35-.17,.53-.26,.09-.04,.19-.08,.3-.09,.06,0,.11,0,.18,.01,.06,.02,.11,.02,.2,.09h0v.03c.07,.11,.1,.21,.09,.33,0,.12-.05,.24-.12,.33-.07,.09-.17,.15-.26,.19-.05,.01-.1,.03-.15,.03-.05,0-.1,.01-.15,0m0-.03l.11-.08s.07-.06,.1-.09c.06-.06,.11-.12,.13-.18,.03-.06,.03-.12,.03-.19,0-.06-.02-.14-.04-.19l.02,.03s-.03-.02-.06-.03c-.03-.01-.07-.02-.1-.03-.08,0-.17-.01-.26,0-.18,.01-.37,.08-.5,.21-.03,.03-.05,.07-.07,.1,0,.01,0,.03,0,.04,0,0,0,0,.01,.01,.02,.01,.07,.07,.14,.11,.14,.09,.32,.17,.48,.28" style="fill:#be9952;"/><path d="M61.25,40.91c-.33,.28-.68,.53-1.03,.79-.35,.25-.71,.5-1.07,.72v-.2c.24,.23,.38,.49,.5,.77,.1,.28,.16,.58,.16,.88,0,.29-.04,.59-.14,.87-.04,.15-.11,.27-.17,.41-.07,.13-.14,.26-.22,.39l-.06,.1-.1-.09c-.39-.35-.77-.72-1.12-1.12-.18-.2-.34-.41-.5-.62-.15-.23-.3-.43-.41-.72l.07,.08c-.16-.08-.3-.16-.44-.29-.04-.03-.07-.07-.1-.11-.03-.04-.07-.1-.06-.19,0-.09,.07-.15,.11-.17,.05-.03,.09-.05,.14-.06,.18-.05,.35-.06,.52-.06,.17,0,.33,0,.5,.02v.03c-.17,.02-.33,.04-.49,.06-.16,.03-.33,.05-.46,.11-.07,.03-.12,.08-.1,.08,0,0,.04,.07,.1,.11,.11,.09,.26,.16,.4,.22l.04,.02,.03,.06c.1,.2,.25,.43,.4,.62,.15,.21,.32,.41,.48,.61,.33,.4,.68,.78,1.04,1.16h-.16c.08-.1,.17-.21,.25-.33,.06-.12,.15-.24,.19-.38,.12-.26,.17-.55,.17-.83,0-.28-.09-.56-.22-.81-.12-.25-.31-.47-.5-.65l-.12-.11,.13-.09c.36-.25,.72-.47,1.09-.7,.37-.22,.75-.44,1.13-.63l.02,.02Z" style="fill:#be9952;"/><path d="M45.65,43.83c.88-.22,1.76-.42,2.64-.61l.65-.14-.59,.33c-.51,.29-1.02,.56-1.53,.85l-.09-.22c.5-.15,1-.29,1.51-.42l.11-.03,.04,.1c.04,.11,.11,.23,.2,.33,.08,.09,.18,.16,.29,.19,.11,.03,.23,.01,.35-.04,.06-.02,.11-.06,.17-.09l.16-.13,.05-.04,.05,.03c.3,.17,.62,.31,.95,.35,.17,.02,.34,.01,.47-.08,.13-.08,.2-.25,.22-.41,.06-.33-.06-.69-.3-.93-.23-.24-.55-.42-.87-.52h.06l-.97,.96-.11-.12c.42-.38,.84-.77,1.26-1.15l.09-.08,.08,.1,1.3,1.7-.14-.05c.3-.07,.63-.26,.66-.51,.02-.13-.02-.27-.09-.41-.05-.07-.08-.14-.13-.2l-.16-.19,.25-.16c.24,.58,.22,1.18,.4,1.68,.09,.25,.24,.45,.49,.49,.24,.05,.52,0,.78-.09,.25-.1,.51-.22,.68-.41,.18-.19,.21-.47,.03-.69-.07-.11-.16-.22-.27-.29-.11-.07-.24-.05-.34,.03-.2,.18-.31,.46-.41,.73h-.03c.08-.28,.16-.57,.38-.8,.06-.05,.13-.1,.21-.11,.04,0,.08,0,.13,0,.04,.01,.08,.02,.12,.04,.14,.08,.25,.19,.34,.31,.05,.06,.08,.12,.12,.2,.03,.08,.04,.16,.04,.24,0,.17-.07,.33-.17,.45-.2,.25-.48,.39-.75,.51-.28,.1-.58,.18-.91,.13-.08-.02-.16-.05-.24-.08-.07-.05-.15-.08-.21-.15l-.09-.09-.07-.11c-.05-.07-.07-.14-.11-.21-.11-.29-.15-.58-.21-.86-.05-.28-.11-.56-.21-.8l-.41-.97,.66,.8,.18,.22c.06,.08,.11,.16,.16,.24,.08,.18,.16,.38,.12,.61-.04,.22-.2,.4-.37,.51-.17,.11-.34,.18-.54,.22l-.09,.02-.05-.07-1.27-1.74,.17,.02c-.43,.37-.87,.73-1.3,1.09l-.11-.12,1.01-.93,.03-.02h.03c.34,.13,.66,.31,.91,.57,.25,.26,.38,.64,.33,1-.02,.18-.09,.38-.25,.49-.17,.11-.36,.13-.54,.12-.37-.03-.7-.17-1.03-.32h.11l-.17,.14c-.07,.04-.13,.09-.2,.12-.14,.07-.31,.11-.48,.07-.17-.03-.31-.14-.42-.25-.11-.12-.19-.25-.25-.4l.15,.07c-.5,.15-1.01,.29-1.51,.42l-1.05,.27,.96-.5c.52-.27,1.03-.55,1.55-.81l.07,.19c-.89,.16-1.78,.31-2.68,.44v-.03Z" style="fill:#be9952;"/><path d="M48.21,41.19c-.33-.13-.67-.26-1-.31-.08-.01-.16-.02-.22,0-.07,.01-.09,.03-.1,.07-.01,.05,0,.12,0,.22,0,.09,0,.19-.01,.28-.03,.19-.08,.38-.19,.54-.11,.17-.29,.27-.47,.31-.18,.05-.37,.04-.55,.01-.18-.02-.36-.06-.53-.11-.17-.05-.35-.09-.52-.15-.17-.05-.34-.11-.48-.11-.06,0-.11,.02-.15,.06-.04,.04-.07,.1-.1,.17-.05,.15-.09,.31-.12,.48-.13,.69-.26,1.41-.54,2.07h-.03c.1-.72,.17-1.42,.27-2.13,.03-.18,.07-.36,.15-.55,.04-.09,.09-.19,.19-.27,.09-.09,.23-.12,.34-.12,.22,.01,.39,.09,.55,.16l.49,.21c.16,.06,.33,.13,.5,.16,.17,.04,.35,.04,.51,0,.16-.05,.3-.16,.36-.31,.07-.14,.09-.31,.09-.48,0-.08,0-.17,0-.25,0-.08-.02-.19,.02-.31,.04-.13,.19-.22,.3-.23,.11-.01,.21,0,.31,.03,.37,.1,.68,.29,.97,.51v.02Z" style="fill:#be9952;"/><path d="M42.05,32.47c-.02-.24-.05-.48-.1-.71-.04-.23-.1-.47-.21-.64-.06-.09-.12-.13-.19-.12-.07,0-.16,.06-.25,.13-.16,.13-.28,.31-.33,.53-.06,.21-.05,.44,0,.66,.05,.22,.17,.43,.36,.57,.09,.07,.2,.11,.31,.17,.11,.06,.23,.14,.26,.3,.02,.15-.08,.27-.16,.36-.09,.09-.19,.17-.29,.24-.1,.07-.21,.14-.3,.2-.09,.07-.17,.15-.25,.23-.16,.17-.29,.36-.4,.55-.11,.19-.19,.42-.16,.59,.02,.09,.05,.15,.12,.21,.07,.05,.17,.09,.27,.11,.21,.05,.44,.04,.68,.03h.72c.48-.01,.96,0,1.45,.02v.03c-.48,.07-.95,.12-1.43,.17l-.72,.06c-.24,.02-.5,.04-.76-.01-.13-.03-.27-.07-.39-.17-.12-.09-.21-.25-.23-.4-.03-.31,.1-.55,.22-.77,.13-.22,.29-.41,.48-.58,.09-.08,.19-.17,.3-.23,.12-.06,.22-.11,.32-.17,.1-.06,.2-.12,.29-.2,.08-.07,.16-.17,.15-.26,0-.1-.1-.18-.2-.23-.1-.05-.22-.09-.32-.17-.41-.3-.62-.83-.54-1.36,.04-.26,.19-.51,.41-.68,.11-.08,.22-.17,.4-.17,.08,0,.18,.03,.24,.08,.06,.05,.11,.11,.15,.17,.13,.24,.15,.5,.17,.74,.01,.25,0,.49-.03,.73h-.03Z" style="fill:#be9952;"/><path d="M43.9,36.58c-.56,.34-1.18,.6-1.82,.77-.64,.16-1.33,.24-1.99,.03-.33-.1-.63-.28-.87-.51-.24-.24-.42-.52-.55-.83-.07-.15-.12-.31-.17-.47l-.11-.48c-.07-.32-.13-.64-.19-.97v-.05l.03-.04c.48-.45,.96-.88,1.45-1.32l.17,.23c-.34,.21-.68,.44-1,.69-.32,.25-.63,.51-.89,.82-.06,.07-.13,.15-.18,.23-.06,.08-.1,.16-.15,.25-.05,.08-.06,.18-.1,.27,0,.09-.03,.18-.02,.28,0,.1,.01,.2,.04,.29,.02,.09,.06,.17,.11,.17,.07,0,.15-.09,.22-.16,.06-.08,.13-.16,.18-.25h.03c-.04,.11-.09,.2-.15,.29-.06,.09-.12,.18-.25,.23-.07,.02-.16-.02-.19-.08-.04-.05-.06-.11-.08-.16-.03-.11-.05-.21-.07-.32-.02-.1,0-.22,0-.33,.03-.11,.04-.22,.09-.32,.04-.1,.09-.2,.15-.29,.05-.1,.12-.18,.18-.27,.26-.34,.57-.63,.9-.89,.33-.26,.68-.49,1.05-.7l.17,.23c-.5,.42-1,.84-1.51,1.25l.03-.09c.03,.32,.07,.65,.11,.97,.02,.16,.05,.32,.08,.48,.05,.15,.08,.31,.15,.46,.13,.29,.31,.57,.56,.76,.25,.2,.54,.33,.84,.4,.61,.13,1.26,.08,1.88-.04,.63-.13,1.25-.33,1.85-.57v.03Z" style="fill:#be9952;"/><path d="M36.87,38.1c-.02,.26,.04,.44,.11,.64,.03,.1,.06,.23,.14,.32,.07,.09,.18,.17,.27,.26,.1,.09,.18,.19,.24,.31,.06,.11,.12,.24,.15,.36,.05,.25,.05,.52-.05,.76h-.03c-.09-.24-.15-.47-.22-.69-.06-.22-.12-.44-.22-.66-.05-.11-.12-.2-.21-.29-.09-.08-.21-.16-.28-.28-.15-.23-.14-.59,.08-.77l.02,.02Z" style="fill:#be9952;"/><path d="M37.8,38.93c.2-.3,.4-.61,.6-.91,.2-.3,.4-.6,.61-.9l.21-.29-.06,.36c-.08,.45-.12,.91-.14,1.36-.02,.46,0,.91,.06,1.36,.07,.44,.19,.88,.41,1.26,.11,.19,.25,.36,.41,.5,.17,.14,.35,.24,.56,.32,.41,.17,.86,.27,1.31,.31,.46,.04,.91,0,1.38,.04,.12,0,.24,.02,.36,.08,.12,.05,.22,.16,.25,.29,.03,.13,.02,.25,0,.36l-.06,.34c-.08,.45-.19,.91-.33,1.35-.14,.44-.34,.87-.61,1.26-.27,.38-.68,.7-1.17,.78-.49,.07-.97-.08-1.39-.29-.43-.22-.8-.61-.94-1.09-.15-.47-.11-.97,0-1.44,.1-.46,.27-.91,.47-1.33,.4-.85,.9-1.64,1.48-2.38h0v-.02c.68-.61,1.35-1.22,2.03-1.83l.09,.2c-.39,.02-.76-.02-1.13-.1-.18-.04-.37-.09-.54-.15-.09-.04-.17-.06-.26-.08-.09-.01-.17-.04-.26-.04-.17-.01-.35,0-.52,.05-.17,.05-.34,.12-.45,.25-.12,.12-.15,.31-.08,.47,.06,.17,.2,.3,.33,.43l-.02,.02c-.14-.12-.29-.24-.37-.42-.09-.17-.06-.41,.07-.56,.13-.16,.31-.25,.49-.31,.18-.06,.38-.09,.57-.08,.1,0,.19,.02,.29,.03,.09,.02,.19,.05,.28,.07,.17,.05,.35,.1,.53,.13,.35,.06,.72,.1,1.07,.07l.34-.03-.25,.23c-.66,.62-1.31,1.25-1.98,1.87h.02c-.55,.71-1.05,1.48-1.44,2.3-.2,.41-.36,.83-.46,1.27-.11,.43-.14,.89-.02,1.3,.11,.42,.42,.75,.8,.96,.39,.21,.83,.37,1.26,.32,.44-.05,.82-.33,1.1-.68,.28-.35,.47-.78,.62-1.21,.15-.43,.25-.88,.32-1.34,.03-.22,.09-.46,.05-.66-.04-.21-.29-.26-.51-.26-.45,0-.92,.05-1.39,.02-.47-.02-.94-.1-1.38-.27-.22-.08-.45-.2-.64-.35-.19-.16-.35-.35-.47-.56-.24-.42-.36-.89-.43-1.36-.12-.94-.04-1.87,.15-2.79l.14,.06c-.22,.29-.44,.58-.66,.87-.22,.29-.44,.58-.66,.87l-.02-.02Z" style="fill:#be9952;"/><path d="M42.75,33.64c.03,.61,.02,1.2-.04,1.8-.04,.3-.09,.59-.11,.89-.02,.3,0,.6,.03,.9,.06,.6,.1,1.19,.17,1.78,.06,.59,.11,1.18,.21,1.77h-.03c-.28-.54-.41-1.14-.49-1.74-.07-.6-.07-1.21-.03-1.81,.02-.3,.05-.6,.04-.9,0-.3-.03-.6-.04-.9,0-.3,.03-.6,.07-.9,.04-.3,.1-.59,.18-.89h.03Z" style="fill:#be9952;"/><path d="M43.41,40.16c.31-.22,.64-.42,.99-.58,.18-.08,.35-.15,.56-.19,.05,0,.11-.02,.18,0,.03,0,.08,.02,.12,.04,.02,.02,.05,.04,.06,.06,.01,.03,.02,.05,.03,.08,0,.1-.02,.16-.04,.21-.03,.05-.05,.1-.08,.14-.25,.32-.55,.55-.83,.8-.14,.12-.29,.25-.43,.37-.14,.13-.28,.25-.43,.37-.58,.5-1.21,.92-1.86,1.31-.66,.37-1.34,.71-2.05,.98v-.03c.62-.42,1.26-.82,1.89-1.21,.65-.39,1.29-.78,1.92-1.18,.32-.2,.62-.42,.89-.68,.27-.26,.51-.56,.7-.86,.02-.04,.04-.07,.06-.11,.02-.04,.02-.07,.02-.06,0,0,0,.01,0,.02,0,0,0,.01,.01,.01,0,0,0,0-.01,0-.02,0-.06,0-.1,0-.17,.03-.34,.09-.52,.15l-1.06,.4v-.03Z" style="fill:#be9952;"/><path d="M36.44,41.33c.14,.09,.27,.18,.4,.26,.14,.07,.27,.14,.4,.17,.13,.05,.29,.09,.45,.06,.08-.02,.15-.05,.22-.09,.07-.04,.12-.1,.18-.15,.06-.05,.1-.12,.16-.18,.05-.06,.11-.11,.15-.18l.14-.19c.05-.06,.09-.12,.13-.19,.08-.13,.19-.25,.28-.39,.09-.13,.19-.26,.31-.39h.03c-.07,.34-.18,.66-.37,.94-.19,.28-.43,.54-.73,.7l-.23,.11c-.08,.02-.16,.06-.24,.09-.08,.02-.16,.05-.25,.07-.09,0-.18,.03-.27,0-.37-.06-.66-.33-.78-.64l.02-.02Z" style="fill:#be9952;"/><path d="M48.16,45.62c.27-.03,.52-.01,.76,.05,.12,.04,.24,.1,.37,.12,.12,.02,.25,.02,.38,0,.25-.05,.5-.06,.74-.1l.75-.06v.03c-.18,.19-.45,.29-.71,.34-.13,.02-.27,.02-.4,.01-.13,0-.26-.02-.39-.06-.13-.03-.26-.06-.38-.06-.13,0-.26,.03-.39,.02-.26-.02-.51-.09-.73-.25v-.03Z" style="fill:#be9952;"/><path d="M42.94,46.6c.12-.17,.27-.31,.43-.45,.16-.13,.34-.25,.55-.32,.1-.03,.22-.05,.33-.05,.11,0,.26,.05,.31,.17,.06,.11,.05,.22,.07,.31,.01,.1,.04,.2,.06,.3,.06,.19,.11,.38,.2,.53,.09,.15,.22,.21,.39,.22,.34,.03,.73-.11,1.13-.21v.02c-.07,.07-.15,.13-.24,.19-.09,.06-.18,.11-.28,.16-.19,.08-.4,.16-.65,.15-.12,0-.25-.04-.35-.12-.05-.03-.09-.08-.14-.13-.04-.05-.07-.1-.1-.15-.11-.21-.12-.43-.12-.64,0-.1,0-.21,0-.31,0-.1,0-.21-.05-.28-.04-.08-.13-.08-.22-.06-.08,.02-.17,.07-.25,.11-.34,.17-.68,.39-1.05,.56l-.02-.02Z" style="fill:#be9952;"/><path d="M23.79,43.48c.12-.17,.27-.31,.43-.44,.16-.13,.34-.25,.55-.32,.11-.03,.22-.05,.33-.05,.11,0,.26,.05,.31,.17,.06,.11,.05,.22,.07,.32,.01,.1,.04,.2,.06,.3,.06,.19,.11,.38,.2,.53,.09,.15,.22,.21,.39,.22,.34,.03,.73-.11,1.13-.21v.03c-.07,.07-.15,.13-.24,.19-.09,.06-.18,.1-.28,.15-.19,.09-.4,.16-.65,.15-.12,0-.25-.04-.35-.12-.05-.03-.09-.08-.14-.13-.04-.05-.07-.1-.1-.15-.11-.21-.12-.43-.12-.64,0-.1,0-.21,0-.31,0-.1,0-.21-.05-.28-.04-.08-.13-.08-.22-.06-.08,.02-.17,.07-.25,.11-.34,.17-.68,.39-1.05,.56l-.02-.02Z" style="fill:#be9952;"/><path d="M47.84,46.67c.14-.09,.3-.13,.45-.15,.16-.02,.31-.03,.47,0,.16,.03,.3,.09,.45,.12,.15,.04,.3,.05,.46,.06,.16,.01,.31,.03,.45,.05,.15,.02,.29,.02,.43,.04,.28,.02,.57,.04,.85-.06l.02,.02c-.1,.14-.25,.22-.4,.28-.16,.06-.32,.07-.48,.07-.32-.02-.64-.11-.91-.24-.14-.06-.28-.11-.43-.12-.15-.02-.31,.01-.45,.02-.3,0-.58-.02-.9-.05v-.03Z" style="fill:#be9952;"/><path d="M36.38,30.39c.21,.61,.33,1.25,.39,1.89,.02,.32,.01,.65,.03,.97,.02,.32,.06,.64,.1,.96,.04,.32,.07,.64,.08,.97,.01,.33,.01,.65-.02,.97-.06,.64-.2,1.32-.58,1.86h-.02c.21-.62,.26-1.25,.3-1.88,.05-.63,.07-1.27,.08-1.91,0-.32,0-.64-.04-.96-.04-.32-.11-.63-.17-.95-.1-.63-.17-1.27-.19-1.91h.03Z" style="fill:#be9952;"/><path d="M34.46,30.13c.29,.38,.57,.76,.86,1.14l.06,.08-.1,.03-1.12,.36,.07-.12c.29,.92,.52,1.86,.7,2.8,.18,.95,.28,1.91,.32,2.87,.02,.48,.02,.96,.02,1.44-.02,.48-.05,.96-.1,1.44-.12,.95-.34,1.91-.83,2.77l-.48,.83,.29-.92c.15-.47,.3-.94,.41-1.42,.11-.47,.18-.96,.08-1.41-.09-.46-.38-.84-.7-1.22-.32-.37-.67-.72-1.01-1.07-.7-.69-1.47-1.31-2.24-1.94-.38-.32-.76-.64-1.11-1-.17-.18-.34-.38-.46-.6-.12-.22-.2-.5-.07-.73h.03c-.1,.24-.01,.49,.12,.69,.13,.2,.31,.38,.48,.54,.36,.34,.75,.64,1.15,.94,.78,.61,1.6,1.19,2.32,1.89,.36,.35,.71,.7,1.04,1.09,.32,.38,.64,.83,.74,1.35,.1,.53,.01,1.05-.11,1.53-.13,.49-.29,.96-.46,1.43l-.19-.09c.5-.79,.79-1.73,.92-2.67,.13-.94,.12-1.91,.03-2.86-.09-.95-.25-1.9-.42-2.83-.17-.94-.38-1.88-.63-2.79l-.03-.1,.09-.03,1.14-.31-.04,.11c-.26-.4-.51-.8-.76-1.2l.02-.02Z" style="fill:#be9952;"/><path d="M30.6,30.72c-.15,.08-.29,.18-.42,.28-.13,.1-.25,.22-.34,.34-.1,.13-.15,.27-.19,.41,0,.07-.03,.15-.02,.22,0,.04,0,.07,0,.11l.02,.11c.06,.31,.22,.61,.41,.9,.19,.28,.41,.55,.6,.85l.13,.23c.04,.08,.07,.17,.1,.26,.04,.18,.07,.39,0,.57-.13,.39-.44,.63-.73,.82-.62,.36-1.29,.55-1.97,.68v-.03c.61-.3,1.25-.56,1.81-.91,.27-.18,.53-.38,.64-.65,.06-.13,.05-.29,.04-.44l-.06-.23-.09-.23c-.14-.31-.33-.6-.54-.87-.21-.26-.45-.54-.57-.89l-.04-.13s0-.1-.01-.14c-.01-.1,0-.19,.02-.29,.05-.19,.13-.37,.26-.5,.25-.28,.59-.44,.93-.51v.03Z" style="fill:#be9952;"/><path d="M33.17,28.79c-.12-.12-.24-.24-.38-.34-.13-.1-.27-.19-.42-.24-.15-.06-.3-.08-.45-.08-.07,.01-.15,0-.22,.04-.04,0-.07,.02-.11,.03l-.1,.05c-.28,.14-.54,.36-.76,.63-.23,.26-.43,.53-.67,.79l-.19,.19c-.07,.06-.14,.11-.22,.16-.17,.09-.36,.16-.56,.14-.4-.02-.72-.26-.98-.5-.5-.51-.86-1.11-1.16-1.73l.02-.02c.45,.52,.86,1.07,1.34,1.52,.24,.21,.5,.42,.79,.45,.14,.02,.29-.02,.43-.08l.21-.12,.2-.15c.26-.21,.49-.47,.7-.74,.2-.27,.41-.58,.72-.78l.12-.07s.09-.03,.14-.05c.09-.04,.19-.04,.28-.05,.19,0,.39,.04,.55,.13,.33,.17,.57,.46,.73,.77l-.02,.02Z" style="fill:#be9952;"/><path d="M31.05,29.81c.15,.03,.28,.1,.39,.17,.06,.04,.11,.08,.16,.13,.05,.05,.09,.11,.13,.17h-.06c.16-.01,.3-.08,.44-.16,.14-.08,.28-.13,.43-.19l.07-.03,.08,.06c.1,.08,.18,.18,.25,.28,.08,.1,.14,.22,.2,.35l-.02,.02c-.13-.05-.25-.11-.35-.19-.11-.07-.21-.16-.29-.25l.15,.04c-.15,.03-.3,.06-.46,.06-.16,0-.31,.02-.45,.11h-.06c-.06-.04-.13-.06-.19-.1-.06-.03-.11-.08-.16-.13-.1-.1-.19-.2-.26-.34l.02-.02Z" style="fill:#be9952;"/><path d="M31.91,32.09c.1,.02,.18,.05,.26,.09,.07,.05,.15,.09,.21,.15,.06,.06,.1,.15,.15,.22,.05,.07,.12,.12,.2,.17h-.06c.08-.07,.14-.16,.22-.22,.08-.06,.16-.13,.25-.18,.18-.1,.37-.17,.59-.18v.02c-.11,.19-.26,.32-.44,.43-.09,.05-.18,.09-.27,.13-.09,.04-.2,.06-.3,.09l-.05,.02-.02-.02c-.05-.07-.12-.13-.2-.16-.08-.04-.17-.06-.24-.11-.07-.05-.13-.11-.19-.18-.05-.07-.11-.14-.14-.24l.02-.02Z" style="fill:#be9952;"/><path d="M33.1,35.19c.09,.02,.12,.05,.12,.1,0,.02-.04,.05-.04,.08,0,.02,.02,.04,.04,.05,.06,.03,.08,.06,.09,.11,0,.04-.01,.09-.07,.15h-.02c-.08-.01-.12-.05-.14-.08-.01-.04-.01-.09,.02-.14,.01-.03,.02-.05,0-.07-.01-.02-.05-.03-.07-.05-.03-.04-.02-.08,.05-.15h.02Z" style="fill:#be9952;"/><path d="M26.55,28.72c.09,.02,.12,.05,.12,.1,0,.02-.04,.05-.04,.08,0,.02,.02,.04,.04,.05,.06,.03,.08,.07,.09,.11,0,.04-.01,.09-.07,.15h-.02c-.08-.01-.12-.05-.14-.08-.01-.04-.01-.09,.02-.14,.01-.03,.02-.05,0-.07-.01-.02-.05-.03-.07-.05-.03-.04-.02-.08,.05-.15h.02Z" style="fill:#be9952;"/><path d="M37.69,31.26c.1-.1,.21-.14,.32-.12,.06,.02,.11,.06,.17,.06,.05,0,.11,0,.16-.04,.05-.03,.11-.05,.16-.07,.05-.01,.11-.03,.16-.03,.11,0,.22,.03,.33,.12v.03c-.1,.1-.21,.14-.32,.16-.05,0-.11,0-.17,0-.06,0-.11-.02-.17-.05-.06-.02-.11-.03-.17-.02-.06,.01-.11,.06-.16,.08-.11,.03-.22,0-.33-.09v-.03Z" style="fill:#be9952;"/><path d="M39.87,31.43c.02-.12,.08-.18,.16-.2,.04,0,.1,.02,.14,.01,.04,0,.07-.04,.09-.08,.02-.04,.05-.08,.08-.1,.03-.03,.06-.06,.1-.07,.07-.02,.16-.03,.27,.02v.03c-.01,.12-.07,.18-.13,.23-.03,.02-.07,.03-.11,.04-.04,.01-.08,.01-.13,0-.05,0-.09,0-.12,.03-.03,.03-.05,.09-.07,.12-.06,.06-.14,.06-.26,.01v-.03Z" style="fill:#be9952;"/><path d="M16.41,32.58c.16-.36,.36-.71,.57-1.04,.22-.33,.44-.66,.72-.95,.14-.14,.29-.28,.44-.41,.16-.12,.32-.25,.53-.31,.1-.03,.24,0,.31,.1,.06,.09,.1,.19,.11,.29,.05,.2,.05,.4,.05,.6h0v.02c-.08,.37-.18,.73-.31,1.09-.13,.36-.28,.71-.44,1.04-.08,.16-.17,.35-.19,.47v.03s.01,.02,.05,.03c.07,.02,.15,.01,.26,.02,.05,0,.1,0,.16,.02,.03,0,.05,0,.08,.02,.03,.01,.06,.03,.08,.04,.03,.02,.05,.05,.08,.08,.01,.04,.03,.08,.03,.11,0,.07-.03,.12-.05,.17-.11,.18-.26,.29-.42,.4l-.02-.02c.12-.14,.25-.29,.31-.44,.02-.04,.02-.07,.02-.1,0-.01-.01-.01-.01-.02-.01,0-.02,0-.03-.01-.05-.02-.14-.02-.22-.02-.08,0-.19,.02-.3,0-.06,0-.13-.02-.2-.09-.07-.07-.08-.17-.08-.23,0-.13,.04-.22,.08-.31,.03-.09,.07-.18,.11-.26,.15-.34,.31-.67,.46-1.01,.14-.34,.27-.69,.4-1.04v.02c.02-.19,.04-.39,.01-.57,0-.09-.04-.18-.08-.26-.05-.07-.13-.09-.22-.07-.17,.04-.32,.19-.45,.33-.13,.14-.25,.29-.37,.45l-.71,.93c-.24,.31-.48,.62-.73,.93h-.02Z" style="fill:#be9952;"/><path d="M19.54,31.05c.07-.24,.25-.41,.42-.56l.14-.11,.15-.09c.1-.07,.21-.11,.31-.15,.22-.08,.45-.13,.67-.19,.22-.07,.43-.14,.65-.23,.43-.16,.88-.27,1.33-.33,.46-.05,.92-.06,1.38,0v.03c-.22,.07-.44,.12-.67,.16-.22,.04-.44,.09-.66,.12-.22,.03-.44,.07-.67,.09-.22,.04-.44,.07-.67,.09-.22,.04-.45,.07-.66,.16-.21,.08-.4,.21-.6,.31-.39,.22-.79,.4-1.1,.72h-.03Z" style="fill:#be9952;"/><path d="M22.75,30.72c.16-.07,.34-.11,.51-.13,.17-.02,.35-.04,.53,0,.09,.01,.18,.04,.27,.07,.04,.02,.09,.04,.13,.07,.04,.03,.09,.07,.1,.14,0,.13-.1,.18-.16,.25-.07,.06-.13,.12-.2,.17-.14,.11-.28,.21-.43,.3-.15,.09-.29,.18-.45,.26-.31,.15-.63,.28-.98,.36v-.02c.25-.24,.54-.43,.83-.6,.3-.16,.62-.3,.94-.42,.08-.04,.16-.07,.22-.11,.07-.04,.13-.11,.13-.16,0-.04-.1-.06-.17-.06-.08,0-.16,0-.25,0-.33,0-.67,0-1.02-.07v-.03Z" style="fill:#be9952;"/><path d="M17.29,34.98c.61,.42,1.27,.8,1.96,1.01,.35,.1,.71,.17,1.06,.14,.17-.01,.35-.04,.52-.11,.17-.06,.32-.16,.46-.27l-.02,.03c.24-.7,.33-1.47,.23-2.2-.05-.36-.14-.73-.31-1.03-.09-.14-.21-.27-.31-.27-.1,0-.23,.11-.3,.25-.14,.28-.17,.66-.17,1.02,0,.37,.05,.73,.09,1.1,.11,.73,.27,1.47,.44,2.2h-.03c-.29-.69-.51-1.41-.67-2.15-.08-.37-.13-.75-.15-1.14,0-.39,.01-.79,.23-1.17,.05-.1,.12-.18,.21-.25,.09-.07,.21-.13,.35-.12,.14,.01,.25,.09,.33,.16,.08,.08,.13,.17,.18,.26,.18,.36,.23,.75,.25,1.13,.03,.76-.09,1.51-.26,2.25h0l-.02,.03c-.14,.13-.3,.25-.48,.34-.18,.09-.37,.15-.57,.17-.4,.06-.79-.02-1.16-.14-.36-.13-.71-.3-1.02-.51-.32-.21-.62-.44-.88-.72l.02-.02Z" style="fill:#be9952;"/><path d="M23.37,32.34c-.07,.51-.19,.99-.33,1.47l-.13-.17c.44-.03,.89,.02,1.33,0h.07l-.03,.06c-.14,.36-.21,.74-.23,1.12-.02,.38-.02,.76,.09,1.1,.1,.34,.29,.65,.59,.83,.3,.19,.68,.28,1.06,.33v.03c-.19,.03-.39,.05-.59,.02-.2-.01-.4-.07-.59-.16-.39-.17-.67-.57-.76-.98-.09-.41-.08-.82,0-1.21,.09-.39,.21-.76,.34-1.13l.05,.06c-.44,.04-.88,.14-1.32,.16h-.19l.06-.17c.15-.48,.32-.95,.55-1.41h.03Z" style="fill:#be9952;"/><path d="M25.51,30.58c.25,.05,.47,.16,.66,.32,.09,.08,.16,.19,.26,.26,.1,.07,.2,.13,.32,.18,.11,.04,.22,.09,.33,.15,.11,.06,.21,.12,.31,.19,.19,.15,.37,.31,.52,.52v.02c-.27-.06-.48-.17-.69-.29-.1-.06-.19-.14-.29-.22-.1-.08-.18-.16-.27-.25-.08-.09-.17-.17-.28-.23-.1-.06-.23-.09-.34-.14-.21-.12-.39-.28-.54-.49l.02-.02Z" style="fill:#be9952;"/><path d="M27.55,31.26c.08,.83,.17,1.65,.27,2.47,.1,.82,.23,1.63,.36,2.45,.14,.81,.31,1.63,.66,2.37,.17,.37,.38,.73,.67,1.02,.28,.29,.64,.49,1.02,.51l-.09,.04c.4-.56,.87-1.05,1.38-1.5,.51-.45,1.06-.85,1.64-1.2,.58-.35,1.21-.64,1.86-.84,.65-.18,1.37-.29,2.02-.05v.03l-.26-.04c-.08-.02-.16-.02-.25-.02h-.25l-.25,.04c-.33,.04-.64,.14-.95,.25-.62,.22-1.21,.54-1.77,.89-.56,.35-1.1,.74-1.61,1.17-.51,.43-.98,.89-1.39,1.41l-.04,.05h-.05c-.45-.05-.84-.32-1.11-.64-.28-.33-.48-.7-.65-1.07-.17-.38-.31-.77-.44-1.17-.13-.39-.25-.8-.34-1.2-.2-.81-.31-1.64-.39-2.46-.07-.83-.1-1.66-.07-2.49h.03Z" style="fill:#be9952;"/><path d="M25.98,31.43c-.02,.98-.05,1.95-.09,2.92-.03,.48-.07,.97-.06,1.46,0,.49,.05,.97,.13,1.46,.15,.96,.33,1.92,.6,2.84,.26,.93,.61,1.83,1.14,2.65l-.02,.02c-.68-.72-1.12-1.64-1.41-2.59-.14-.47-.24-.96-.32-1.44-.08-.49-.12-.98-.14-1.47-.02-.49-.04-.98-.06-1.47-.03-.49-.07-.98-.09-1.47,0-.98,.08-1.96,.3-2.92h.03Z" style="fill:#be9952;"/><path d="M23.19,38.55c-.35-.1-.71-.19-1.06-.21-.17,0-.35,0-.45,.09-.1,.07-.14,.21-.13,.38,0,.17,.03,.34,.12,.47,.05,.06,.11,.12,.18,.16,.08,.03,.16,.06,.25,.06,.36,.03,.72-.08,1.08-.17,.36-.09,.74-.17,1.14-.08,.2,.05,.4,.15,.55,.29,.16,.14,.25,.34,.33,.5,.16,.34,.28,.7,.37,1.06,.08,.37,.13,.75,.04,1.12h-.03c0-.37-.11-.72-.23-1.06-.12-.34-.27-.67-.43-1-.08-.17-.15-.31-.26-.43-.11-.12-.25-.2-.4-.24-.32-.09-.69-.06-1.05-.03-.37,.03-.73,.11-1.11,.11-.19,0-.4-.05-.55-.21-.15-.16-.21-.36-.24-.56-.01-.1-.01-.21,.02-.32,.03-.11,.1-.22,.21-.29,.21-.14,.43-.12,.62-.1,.39,.06,.74,.21,1.05,.41v.03Z" style="fill:#be9952;"/><path d="M20.73,28.16c-.35-.1-.71-.19-1.06-.21-.17,0-.35,0-.45,.09-.1,.07-.14,.21-.13,.38,0,.17,.03,.34,.12,.47,.04,.06,.11,.12,.18,.16,.08,.03,.16,.06,.25,.06,.36,.03,.72-.08,1.08-.17,.36-.09,.74-.17,1.15-.08,.2,.05,.4,.15,.55,.3,.15,.14,.25,.34,.32,.5,.16,.34,.28,.7,.37,1.06,.08,.37,.13,.75,.04,1.12h-.03c0-.37-.11-.72-.22-1.06-.12-.34-.27-.67-.43-1-.08-.17-.15-.31-.26-.43-.11-.12-.24-.2-.4-.24-.32-.09-.69-.06-1.05-.03-.37,.03-.73,.11-1.11,.11-.19,0-.4-.05-.55-.21-.15-.16-.21-.36-.24-.56-.01-.1-.01-.21,.02-.32,.03-.11,.1-.22,.2-.29,.21-.13,.43-.12,.62-.1,.39,.06,.73,.21,1.05,.41v.03Z" style="fill:#be9952;"/><path d="M29.29,41.61c.29,.11,.49,.42,.52,.74,.04,.32-.05,.64-.18,.9-.14,.27-.34,.5-.54,.72-.1,.11-.21,.21-.31,.32-.05,.05-.11,.11-.11,.15,0,0,.05,.05,.11,.08,.52,.21,1.09,.39,1.62,.66,.26,.15,.52,.31,.74,.52,.11,.1,.21,.22,.29,.36,.04,.07,.07,.14,.1,.21,.02,.07,.03,.15,0,.23h-.03c0-.15-.1-.26-.19-.36-.1-.1-.21-.19-.32-.27-.23-.16-.48-.3-.73-.42-.25-.13-.51-.26-.78-.38-.26-.13-.53-.25-.78-.42-.03-.02-.07-.05-.1-.08-.03-.03-.07-.1-.05-.16,.04-.11,.11-.14,.16-.19,.11-.1,.22-.19,.31-.31,.18-.22,.3-.49,.39-.76,.1-.26,.18-.52,.18-.79,0-.26-.1-.53-.31-.73v-.02Z" style="fill:#be9952;"/><path d="M31.35,41.76c.47,.12,.91,.29,1.34,.5,.21,.11,.41,.24,.63,.34,.22,.1,.45,.16,.67,.22,.24,.05,.46,.09,.69,.11,.28,.03,.52,.17,.71,.33,.38,.35,.62,.78,.77,1.24h-.03c-.3-.36-.6-.73-.94-1.01-.17-.14-.35-.26-.55-.3-.25-.04-.48-.13-.7-.23-.22-.1-.44-.2-.66-.28-.22-.08-.46-.13-.69-.21-.45-.17-.87-.39-1.26-.69v-.03Z" style="fill:#be9952;"/><path d="M36.51,46.1c.43,.51,.91,.94,1.46,1.28,.26,.18,.55,.35,.87,.44,.31,.11,.65,.11,.97,.1,.66-.05,1.32-.11,1.97-.18l1.98-.18v.03c-.62,.24-1.28,.37-1.95,.45-.33,.04-.66,.05-1,.06-.33,0-.67,0-1-.03-.17-.02-.34-.03-.5-.07-.08-.02-.17-.03-.25-.04l-.24-.06c-.08-.02-.16-.03-.24-.06l-.25-.07c-.16-.06-.32-.11-.47-.2-.6-.32-1.1-.85-1.36-1.47h.03Z" style="fill:#be9952;"/></svg>