<?xml version="1.0" encoding="UTF-8"?><svg id="a" xmlns="http://www.w3.org/2000/svg" viewBox="0 0 85 65"><path d="M52.56,24.27c-.01,.61-.32,1-.82,1.02-.5,.03-.84-.28-.87-.88-.02-.32-.15-.4-.44-.44-.64-.07-.95-.42-.91-.93,.04-.47,.41-.76,1-.79,1.13-.05,2.07,.87,2.05,2.01" style="fill:#be9952;"/><path d="M51.67,25.43c-.26,0-.48-.08-.64-.24-.18-.17-.28-.44-.3-.76-.01-.23-.07-.29-.33-.32-.69-.08-1.07-.48-1.02-1.07,.05-.54,.47-.88,1.12-.91,.03,0,.07,0,.1,0,.54,0,1.05,.21,1.45,.59,.42,.41,.65,.96,.64,1.56-.01,.68-.38,1.12-.95,1.15-.02,0-.05,0-.07,0m-1.07-3.04s-.06,0-.09,0c-.31,.01-.83,.12-.88,.67-.05,.57,.4,.74,.79,.79,.32,.04,.54,.15,.56,.56,.01,.26,.09,.46,.22,.59,.13,.12,.29,.18,.51,.17,.43-.02,.69-.36,.7-.9,.01-.52-.19-1.01-.56-1.36-.35-.33-.79-.51-1.27-.51" style="fill:#be9952;"/><path d="M55.71,24.47c.37-1.06,.3-2.25-.19-3.25-.45-.92-1.21-1.61-2.14-1.92-1.26-.43-2.54-.28-3.93,.45-1.41,.74-2.68,1.81-3.89,3.26-.74,.89-1.48,1.2-2.59,1.08-2.18-.21-4.4-.35-6.55-.48-1.09-.07-2.19-.13-3.28-.21-.68-.05-1.17,.13-1.59,.56-.37,.38-.74,.75-1.11,1.12-.28,.28-.57,.56-.85,.85-.42,.43-.61,.88-.52,1.27,.09,.39,.44,.71,1,.91,.79,.28,1.58,.57,2.37,.85,.79,.28,1.58,.56,2.37,.85,.94,.34,1.88,.68,2.82,1.01l1.2,.43-.02,.11s0,.05-.01,.07c0,.05-.01,.09-.05,.14-.21,.31-.44,.62-.66,.93-.48,.67-.98,1.37-1.41,2.09-.49,.84-1.11,1.16-2.18,1.16h-.02c-.45,0-.81-.01-1.1-.02q-1.25-.03-2.03,.78c-.22,.23-.5,.52-.88,.89-.37,.36-.53,.69-.48,.95,.06,.26,.35,.5,.84,.67,.54,.19,1.08,.38,1.61,.57l.74,.26v.1c-.07,.62,.1,1.15,.46,1.5,.35,.33,.87,.46,1.4,.37l.11-.02,.03,.1c.09,.25,.18,.5,.26,.75,.2,.57,.4,1.16,.62,1.73,.14,.35,.33,.57,.57,.62,.23,.06,.52-.05,.81-.32q1.79-1.66,1.82-4.11l.13-.04h-.13c-.19-.99,.19-1.71,1.19-2.26,.54-.29,1.04-.66,1.53-1.02,.23-.17,.47-.34,.7-.5,.18-.13,.37-.25,.56-.38l.47-.32,.17,.46c.07,.21,.14,.4,.22,.59,.18,.45,.53,.65,.9,.53,.42-.13,.6-.51,.48-.98-.07-.26-.18-.64-.34-.99-.22-.46,0-.71,.26-.92,.73-.55,1.45-1.11,2.17-1.66,.43-.33,.86-.66,1.29-.99,.08-.06,.18-.11,.27-.17,.05-.02,.09-.05,.14-.08l.18-.1,.17,2.67c.16,2.52,.32,5.01,.48,7.5,0,.17-.06,.38-.18,.5-.37,.39-.75,.78-1.15,1.19l-.56,.57-.17-.41c-.07-.16-.12-.28-.16-.4-.13-.37-.27-.75-.4-1.12-.27-.76-.54-1.53-.83-2.28-.15-.41-.42-.63-.72-.63-.08,0-.16,.01-.23,.04-.44,.16-.59,.56-.4,1.1,.51,1.44,1.05,2.99,1.61,4.52,.18,.49,.49,.8,.87,.89,.4,.09,.82-.07,1.2-.44,.27-.26,.52-.52,.78-.78,.36-.37,.73-.74,1.11-1.1,.56-.51,.77-1.1,.71-1.98-.09-1.24-.17-2.47-.25-3.71-.12-1.97-.25-4.01-.44-6.01-.11-1.14,.31-1.76,1.03-2.39,1.45-1.27,3.03-2.86,3.79-5.05m-22.96,3.05l-1.97-.71,.6-.59c.43-.42,.83-.83,1.24-1.22,.09-.09,.25-.12,.47-.11,3.26,.2,6.51,.41,9.77,.62,.05,0,.09,.03,.13,.05,.02,.01,.05,.03,.09,.05l.13,.07-.79,1.02c-.79,1.03-1.58,2.05-2.38,3.06-.08,.1-.25,.17-.4,.17-.04,0-.09,0-.12-.02-2.24-.79-4.48-1.59-6.78-2.42m1.23,11.09l-.1-.04c-.54-.19-1.05-.37-1.56-.55l-.15-.05,.08-.14c.39-.64,.9-.76,2.34-.57l.2,.03-.82,1.32Zm3.88,1.75c-.06,.28-.05,.57-.03,.85,.03,.57,.06,1.17-.61,1.61l-.14,.09-.18-.49c-.09-.23-.17-.46-.25-.69-.05-.14-.09-.28-.14-.43l-.09-.29,1.5-.98-.07,.31Zm7.18-7.13c-2.22,1.61-4.52,3.18-6.74,4.71-.93,.64-1.86,1.28-2.79,1.92-.06,.04-.13,.08-.2,.11-.03,.02-.06,.03-.09,.05l-.09,.05-.21-.22,.05-.08c.23-.35,.45-.69,.67-1.04,.48-.74,.97-1.51,1.48-2.25,3.1-4.59,5.87-8.27,8.71-11.61,1.06-1.24,2.32-2.64,3.94-3.61,.87-.52,1.92-.98,3.11-.55,1.13,.41,1.79,1.57,1.56,2.76-.3,1.53-1.22,2.67-2.08,3.59-2.37,2.5-5.04,4.53-7.33,6.19" style="fill:#be9952;"/></svg>