<?xml version="1.0" encoding="UTF-8"?><svg id="a" xmlns="http://www.w3.org/2000/svg" viewBox="0 0 85 65"><path d="M30.71,51.64c-.14-.18-.34-.34-.4-.55-.12-.38,.23-.72,.68-.72,1.13,0,2.27,0,3.4,0h.42V26.05c-.31,0-.63,0-.95,0-.5,0-.78-.26-.77-.67,0-.4,.28-.63,.76-.64,.42,0,.85,0,1.27,0,.83,0,.99,.17,.99,.98v24.62h2.3v-17.49c0-.11,0-.22,0-.34,.02-.38,.28-.66,.62-.67,.35-.01,.64,.27,.65,.67,.01,.4,0,.8,0,1.23,.16,0,.29,.02,.42,.02,1.71,0,3.42,0,5.12,0,.46,0,.73,.23,.75,.61,.02,.39-.25,.66-.68,.66-.9,0-1.79,0-2.69,0h-2.88c0,.14-.02,.26-.02,.38,0,1.18,0,2.37,0,3.55,0,.33,.11,.39,.41,.39,1.83-.01,3.67,0,5.5,0,.1,0,.2,0,.3,0,.5,.01,.8,.25,.8,.64,0,.39-.31,.65-.8,.65-1.73,0-3.47,0-5.2,0h-.98v4.28h.43c1.87,0,3.74,0,5.61,0,.11,0,.22,0,.33,0,.35,.05,.61,.33,.6,.66,0,.32-.24,.57-.58,.62-.14,.02-.27,.02-.41,.02h-5.97v4.11c.12,0,.24,.02,.36,.02,2.42,0,4.84,0,7.26,0,.29,0,.4-.08,.5-.35,1.18-3.56,1.78-7.2,1.56-10.95-.33-5.46-2.15-10.28-6.21-14.09-.96-.89-2.1-1.59-3.16-2.38-.08-.06-.17-.09-.3-.16v5.7c.12,0,.26,.02,.38,.02,1.02,0,2.05,0,3.07,0,.6,0,.96,.53,.65,.97-.12,.16-.38,.32-.58,.32-1.38,.03-2.77,.02-4.15,0-.44,0-.68-.28-.68-.72,0-2.44,0-4.88,0-7.33,0-.61,.49-.87,1.08-.57,3.17,1.59,5.73,3.86,7.65,6.84,1.74,2.71,2.77,5.69,3.24,8.87,.37,2.43,.38,4.87,.12,7.3-.22,2.07-.66,4.1-1.29,6.08-.04,.13-.07,.26-.12,.42,.72,0,1.41,0,2.09-.01,.1,0,.24-.16,.27-.27,.45-1.7,.94-3.4,1.3-5.13,.41-2,.54-4.05,.47-6.1-.16-5.02-1.42-9.69-4.44-13.78-2.64-3.58-6.16-5.93-10.38-7.25-.45-.14-.67-.38-.65-.71,.03-.44,.43-.7,.9-.56,2.82,.85,5.4,2.17,7.67,4.06,3.98,3.3,6.34,7.57,7.5,12.56,.73,3.17,.86,6.38,.54,9.62-.24,2.45-.75,4.84-1.5,7.18-.04,.11-.06,.23-.1,.39,.39,0,.75,.01,1.11,0,.37-.02,.68,.06,.8,.45,.13,.4-.11,.63-.4,.83H30.71Z" style="fill:#be9952;"/><path d="M34.83,18.1c0-1.33,0-2.67,0-4,0-.45,.24-.73,.61-.74,.34-.02,.61,.2,.66,.53,.02,.14,.02,.27,.02,.41,0,2.54,0,5.09,0,7.63,0,.11,0,.22,0,.34-.03,.36-.28,.61-.62,.62-.35,0-.64-.25-.65-.63-.01-.43,0-.87,0-1.31v-2.84Z" style="fill:#be9952;"/></svg>