<?xml version="1.0" encoding="UTF-8"?><svg id="a" xmlns="http://www.w3.org/2000/svg" viewBox="0 0 85 65"><path d="M27.71,45.52c-.93-.05-1.75-.35-2.5-.91-1.54-1.16-2.48-1.15-4-.02-1.65,1.23-3.4,1.23-5.05-.02-1.48-1.12-2.49-1.11-4,.04-1.52,1.16-3.51,1.18-4.91,.04-.34-.27-.64-.57-.32-1.02,.32-.45,.67-.27,1.05-.02,1.34,.87,2.3,.82,3.59-.15,1.78-1.35,3.51-1.34,5.25,.02,1.29,1,2.38,1,3.72,0,1.86-1.38,3.49-1.38,5.33,.01,1.29,.97,2.37,.98,3.65,.01,1.85-1.39,3.47-1.41,5.32-.04,1.38,1.03,2.39,1.01,3.79-.04,1.74-1.31,3.44-1.31,5.19,.02,1.36,1.03,2.44,1.04,3.8,.01,1.79-1.35,3.5-1.35,5.25,0,1.3,1,2.39,1.01,3.72,.01,1.85-1.38,3.49-1.38,5.33,0,1.29,.98,2.37,.98,3.65,.02,1.88-1.42,3.49-1.41,5.4,0,1.2,.89,2.22,.94,3.45,.13,.39-.26,.78-.5,1.12,.01,.29,.44-.03,.75-.36,1.02-1.32,1.05-3.26,1.08-4.7,.06-1.88-1.33-2.53-1.33-4.35-.04-1.49,1.07-3.2,1.07-4.7,0-1.84-1.3-2.47-1.3-4.35,.03-1.44,1.02-3.2,1.02-4.63,0-1.87-1.33-2.53-1.34-4.34-.02-1.43,1.04-3.18,1.05-4.63,.04-1.95-1.36-2.52-1.36-4.42-.02-1.47,1.04-3.23,1.02-4.7-.06-1.7-1.25-2.53-1.26-4.21-.01-.73,.54-1.54,.79-2.42,.85" style="fill:#be9952;"/><path d="M78.15,30.15c-.13-.34-.43-.45-.78-.44-.38,0-.76-.05-1.13,0-1.31,.22-2.22-.22-2.76-1.46-.33-.76-.95-.95-1.77-.95-5.66,.03-11.32,.01-16.98,.03-.6,0-1.04-.17-1.48-.57-1.44-1.3-2.93-2.55-4.37-3.86-.44-.4-.9-.56-1.49-.55-2.99,.02-5.98-.07-8.97,.05-1.32,.05-1.99-.6-2.76-1.62,.91,0,1.68,0,2.45,0,.42,0,.78-.18,.81-.62,.03-.45-.31-.68-.73-.68-2.47-.01-4.93-.01-7.4,0-.43,0-.76,.22-.74,.68,.02,.41,.33,.61,.72,.62,.61,.02,1.23-.01,1.83,0,1.25,0,1.88,.65,2.61,1.6h-10.84q-1.56,0-1.68,1.58c-.07,.91,.12,1.13,1.03,1.22,1.84,.18,3.69,.36,5.63,.55q-1.26,1.6-3.08,1.6c-2.38,0-4.76,.02-7.14-.01-.74,0-1.19,.24-1.49,.93-.38,.88-.84,1.72-1.23,2.59-.17,.37-.41,.55-.81,.49-.93-.16-1.54,.28-2.01,1.03-.25,.39-.61,.71-.85,1.1-.53,.87-1.21,1.27-2.28,1.16-.89-.09-1.13,.35-.77,1.2,.36,.86,.7,1.72,1.13,2.55,.34,.67,.06,.85-.55,.97-.86,.17-1.61,0-2.29-.53-.37-.29-.75-.37-1.05,.07-.3,.42,0,.69,.3,.95,1.3,1.13,3.36,1.16,4.83,.06,1.72-1.29,2.54-1.28,4.27,0,1.45,1.08,3.33,1.07,4.77-.02,1.66-1.27,2.48-1.27,4.2-.01,1.56,1.15,3.37,1.12,4.91-.06,1.52-1.17,2.47-1.17,3.99-.02,1.6,1.22,3.38,1.23,4.98,.05,1.63-1.21,2.51-1.21,4.13,.02,1.5,1.13,3.32,1.13,4.84,0,1.66-1.23,2.47-1.23,4.14-.04,1.63,1.17,3.31,1.17,4.91,0,1.68-1.22,2.46-1.21,4.14,.03,1.49,1.11,3.28,1.13,4.78,.06,1.89-1.35,2.46-1.35,4.33,0,1.41,1.02,3.25,1.03,4.63,.02,.39-.29,.81-.61,.43-1.13-.35-.47-.76-.21-1.13,.06-1.01,.72-2.07,.76-3.08,.06-.66-.46-1.3-.94-2.15-1.25,1.89-1.46,3.7-2.87,5.51-4.27,1.05-.82,2.11-1.64,3.16-2.46,.25-.2,.5-.44,.35-.81m-29.5-5.75c1,.99,2.11,1.87,3.32,2.93-.86,0-1.56,0-2.26,0-.26,0-.43-.12-.59-.3-.95-1.08-1.91-2.16-2.94-3.32,1.06-.23,1.79,.01,2.47,.69m-3.45,.09c.71,.96,1.57,1.82,2.46,2.84-1.13,0-2.1,0-3.08,0-.3,0-.48-.1-.59-.39-.42-1.07-.85-2.13-1.29-3.22,1.2-.05,1.84-.12,2.5,.77m-7.31,2.31c.41-.92,.78-1.87,1.21-2.78,.28-.59,.78-.51,1.32-.49,.36,0,.89,.09,1.05,.54,.33,.89,.68,1.78,1.07,2.65,.25,.57,0,.64-.48,.62-.61-.02-1.21,0-1.82,0-.66,0-1.33,0-1.99,0-.41,0-.51-.15-.35-.53m-13.22-2.82c-.2-.02-.62-.1-.62-.18-.08-.16,.53-.16,.77-.16,4.06,0,8.12,0,12.18-.02,.66,0,.83,.04,.56,.79-.33,.92-.56,1.76-1.29,2.32-.74,.58-1.43,.47-3.13,.46-1.1,0-2.13,0-3.44-.02,.44-.4,.88-.78,1.3-1.19,.25-.23,.58-.46,.44-.87-.15-.46-.58-.53-.99-.57-1.93-.19-3.86-.37-5.8-.55m-5.96,5.01c.11-.23,.27-.36,.54-.34,.14,.01,.29,0,.43,0,17.24,0,34.47,0,51.71-.02,.78,0,1.16,.3,1.4,1.08-1.58,0-3.11,.08-4.63-.02-3.23-.19-6.35,.23-9.39,1.34-.48,.18-.99,.3-1.53,.3-13.03,0-26.06,0-39.09,0-.14,0-.28-.02-.57-.04,.41-.84,.77-1.57,1.11-2.3m33.04,5.23c.04,.39-.27,.37-.53,.37-.26,0-.52,0-.78,0-.23,0-.47-.02-.7,0-.43,.04-.65-.11-.61-.58,.03-.32,0-.64,0-.95,0-.18,.02-.38,.24-.39,.72-.01,1.51,.02,2.14,.06,.33,.1,.18,.98,.22,1.49m-3.87,.03c-.06,.25-.18,.34-.41,.34-.32,0-.64,0-.95,0-1.32,0-1.3,0-1.28-1.3,0-.48,.13-.71,.64-.65,.26,.03,.52,0,.78,0,1.21,0,1.34,.04,1.22,1.61m-4.63,.36c-2.09-.05-4.18-.01-6.27-.01s-4.07-.05-6.1,.02c-.87,.03-.75-.47-.74-.99,.01-.5-.15-1.01,.73-1,4.12,.04,8.24,.04,12.36,0,.9,0,.69,.55,.7,1.03,0,.48,.14,.97-.68,.95m-15.74-.01c-1.27,0-1.34-.3-1.2-1.57,.06-.53,1.19-.4,1.98-.38,.36,0,.57,.04,.61,.49,.11,1.44,.12,1.45-1.39,1.45m-3.88,0c-.11,0-.23,.02-.35,0-.32-.06-.81,.2-.91-.22-.12-.49-.05-1.03,0-1.55,.02-.19,.27-.18,.44-.18,.55,0,1.1,.01,1.65,0,.39-.01,.47,.17,.5,.52,.11,1.43,.12,1.43-1.32,1.43m-7.11-1.99c1.76,.05,2.66,.03,3.99,.03,.45,0,.53,.46,.53,.82,.02,.4,.14,1.13-.46,1.13-2.31,0-4.62,0-7.06,0,.78-1.17,1.33-2.03,2.99-1.99m48.37,6.54c-.94,.55-1.9,.33-2.77-.29-2.26-1.62-3.44-1.61-5.74,.02-1.09,.77-2.22,.76-3.3-.04-2.16-1.58-3.51-1.58-5.67,0-1.11,.81-2.27,.8-3.37-.03-2.03-1.53-3.52-1.54-5.53-.05-1.24,.92-2.35,.92-3.58-.02-1.89-1.44-3.49-1.44-5.39-.02-1.29,.97-2.36,.97-3.65,0-1.91-1.43-3.48-1.42-5.39,.02-1.24,.93-2.37,.97-3.57,0-1.34-1.09-2.78-1.35-4.38-.7-.1,.04-.21,.11-.32,.1-.16-.01-1.07-2-1.01-2.15,.05-.14,.18-.12,.29-.13,.17,0,.35,0,.52,0,18.95,0,37.91,0,56.86,0,.09,0,.17,0,.48,.03-1.52,1.27-2.93,2.37-4.47,3.27m6.33-4.68c-.2,.16-.44,.13-.67,.13-5.57,0-11.15-.02-16.72,.02-.87,0-.75-.47-.74-.99,0-.51-.15-1.09,.73-.99,3.14,.37,6.09-.51,9.02-1.44,.56-.18,1.12-.25,1.71-.25,3.63,0,7.25,0,10.88,0,.03,.06,.06,.11,.09,.17-1.44,1.11-2.87,2.23-4.3,3.34" style="fill:#be9952;"/></svg>