<?xml version="1.0" encoding="UTF-8"?><svg id="a" xmlns="http://www.w3.org/2000/svg" viewBox="0 0 85 65"><path d="M53.25,53.27c-.15-.39-.47-.44-.83-.42-.11,0-.23-.01-.34,0-.25,.03-.36-.05-.34-.32,.02-.31,.01-.62,0-.93-.04-.78-.55-1.27-1.33-1.28-.59,0-1.18-.02-1.77,0-.35,.02-.45-.09-.44-.44,.02-2.24,0-4.47,0-6.71,0-.72-.27-1.23-.96-1.46-.24-.08-.32-.22-.31-.46,.01-.72,0-3.97,0-4.97,.22-.96-.09-1.77-.92-2.31-.26-.16-.35-.34-.35-.65,.01-2.18-.02-4.36,.02-6.54,.02-.83-.23-1.43-.98-1.79-.25-.12-.32-.31-.31-.58,.01-.52,.01-1.04,0-1.55,0-1.08-.05-4.47,.01-5.08,.1-1.01-.18-1.83-1.01-2.43-.23-.17-.27-.39-.27-.66,.01-.97,0-1.94,0-2.91,0-.17,0-.35-.06-.5-.12-.29-.36-.43-.68-.37-.35,.07-.52,.32-.52,.67,0,.86-.05,1.72,.01,2.57,.05,.68-.13,1.19-.67,1.6-.47,.36-.63,.86-.61,1.45,.02,.98-.03,1.97,.02,2.95,.03,.62-.13,1.08-.62,1.45-.53,.4-.68,.95-.67,1.6,.03,1.66,0,3.32,.02,4.98,0,.37-.09,.61-.43,.78-.63,.32-.87,.84-.86,1.55,.02,2.07,0,4.14,.01,6.2,0,.28-.05,.49-.32,.62-.76,.36-.98,.98-.96,1.8,.04,1.87,.02,3.74,.01,5.61,0,.17,.06,.34-.21,.43-.83,.28-1.05,.62-1.05,1.5,0,.91,0,1.83,0,2.74s0,.89-.9,.9c-.04,0-.09,0-.13,0-.69,.03-1.18,.51-1.24,1.2-.02,.21,0,.42,0,.63,0,.7,0,.7-.67,.7-.36,0-.68,.03-.83,.42-.15,.4,.09,.63,.36,.85h20.77c.27-.22,.51-.45,.36-.85m-6.31-9.78v3.16c0,1.1-.01,2.19,0,3.29,0,.32-.09,.4-.4,.39-.87-.02-.87,0-.87-.89,0-2.09,.01-4.18-.01-6.28,0-.44,.21-.49,.52-.48,.52,.02,.76,.28,.76,.8m-2.27-8.62c.19-.07,.33-.04,.51,.06,.38,.2,.56,.46,.5,.9-.02,.11-.01,.23,0,.34,0,.79-.02,4.18,0,4.85,.01,.33-.09,.48-.43,.5-.59,.05-1.17,.13-1.75,.23-.3,.05-.36-.05-.36-.32,0-1.91,0-3.83,0-5.74,0-.23,.06-.36,.3-.42,.42-.12,.83-.26,1.24-.41m-.27-8.18c0,2.18,0,4.36,0,6.53,0,.33-.12,.46-.42,.55-.86,.27-.86,.28-.86-.64v-6.45c0-.32,.37-.76,.64-.76,.27,0,.63,.44,.63,.76m-2.95-4.75c.34-.24,.43-.59,.42-1-.02-1.2,.02-2.39-.02-3.59-.02-.48,.25-.71,.53-.98,.05-.05,.12-.11,.18-.04,.23,.26,.59,.42,.57,.87-.02,.77-.01,4.14,0,5.5-.02,.4-.04,.8,0,1.18,.09,.69-.14,1.15-.78,1.43-.4,.17-.52,.51-.5,.93,.02,.6,0,1.21,0,1.82,0,.92,0,.9-.87,.64-.31-.09-.41-.24-.4-.56,.02-1.38,.06-2.76-.01-4.13-.05-.88,.15-1.56,.87-2.07m-.86,16.99c0-.32,.1-.38,.39-.31,.88,.2,.88,.19,.88,1.08,0,1.72,0,3.43,0,5.14,0,.34-.09,.43-.43,.4-.84-.08-.85-.06-.85-.91v-2.45c0-.98,0-1.97,0-2.95m-1.26-8.43c0-.39,.57-.8,.94-.69,.4,.12,.79,.29,1.2,.39,.33,.08,.4,.25,.4,.57-.02,1.05,0,2.11,0,3.16v3.08c0,.52,0,.52-.53,.41-.56-.12-1.12-.26-1.69-.37-.23-.05-.33-.13-.32-.39,0-2.05,0-4.1,0-6.15m-1.27,8.55c0-.38,.47-.88,.84-.87,.25,0,.44,.06,.44,.41-.02,1.03,0,2.05,0,3.08s0,2.03,0,3.04c0,.29-.04,.42-.39,.41-.88-.04-.89-.02-.89-.92v-5.15m-1.27,7.69c0-.19,.04-.31,.26-.36,.7-.16,1.4,.01,2.1,0,.21,0,.18,.18,.18,.32,0,.55,0,1.1,0,1.65s0,1.1,0,1.65c0,.24-.05,.35-.33,.35-.63-.02-1.27-.02-1.9,0-.24,0-.32-.07-.32-.31,0-1.1,0-2.19,0-3.29m2.98,6.13h-2.23c-.89,0-1.77,0-2.65,0-.25,0-.37-.04-.37-.34,0-.93-.02-.93,.91-.93,1.59,0,3.17,.01,4.76,0,.34,0,.42,.11,.42,.43-.01,.85,0,.85-.83,.85m1.74-2.53c-.91,0-.91,0-.91-.89v-1.1c0-.52,0-1.04,0-1.56,0-.24,.04-.35,.33-.33,.94,.03,.95,.02,.95,.95,0,.86,0,1.72,0,2.57,0,.28-.08,.35-.36,.35m.96,2.53q-.61,0-.6-.68t.74-.58c.52,0,.53,0,.52,.72,0,.66,.08,.53-.66,.54m1.57-2.52c-.91,0-.91,0-.91-.9,0-1.97,0-3.94,0-5.91,0-.32,.05-.46,.41-.5,.86-.1,.86-.13,.86,.76v2.87c0,1.1,0,2.19,0,3.29,0,.28-.05,.39-.36,.39m5.54,2.52h-2.15c-.9,0-1.8,0-2.7,0-.26,0-.33-.07-.34-.33-.02-.94-.03-.94,.9-.94,1.6,0,3.2,0,4.8,0,.29,0,.38,.08,.38,.37,0,.9,0,.9-.9,.9" style="fill:#be9952;"/></svg>