<?xml version="1.0" encoding="UTF-8"?><svg id="a" xmlns="http://www.w3.org/2000/svg" viewBox="0 0 85 65"><path d="M49.53,51.25c-.24-.22-.31-.48-.31-.81,.01-2.98,0-5.96,0-8.94,0-.1,0-.2,0-.29,.03-.31,.22-.49,.52-.5,.31-.01,.5,.17,.57,.47,.02,.08,0,.17,0,.25,0,3.03,0,6.06,0,9.08,0,.33-.1,.56-.37,.74h-.44Z" style="fill:#be9952;"/><path d="M49.23,30.95c0-2.44,0-4.88,0-7.32,0-.53,.15-.94,.54-1.3,.42-.39,.8-.82,1.22-1.21,.21-.19,.27-.4,.27-.68,0-1.91,0-3.81,0-5.71,0-.1,0-.19,0-.29,.01-.46,.21-.7,.57-.7,.36,0,.55,.25,.55,.71,0,2.06,0,4.13,0,6.19,0,.44-.15,.81-.46,1.11-.44,.44-.87,.89-1.33,1.32-.2,.18-.26,.38-.26,.64,0,4.87,0,9.74,0,14.61,0,.12,0,.25,0,.37-.04,.3-.28,.52-.58,.5-.31-.02-.5-.19-.52-.51-.01-.17,0-.34,0-.51v-7.21" style="fill:#be9952;"/><path d="M28.07,31.91c1.09,0,2.17,0,3.26,0,.72,0,1.06,.34,1.06,1.04,0,1.05,0,2.1,0,3.15,0,.71-.35,1.06-1.05,1.07-.71,0-1.42,0-2.12,0-.45,0-.71-.21-.71-.56,0-.35,.25-.55,.71-.56,.59,0,1.17,0,1.76,0,.22,0,.32-.04,.32-.3-.02-.82-.02-1.64,0-2.45,0-.25-.09-.3-.31-.3-1.94,0-3.88,0-5.82,0-.26,0-.33,.07-.32,.33,.02,.81,.02,1.61,0,2.42,0,.24,.07,.32,.31,.31,.4-.02,.81-.01,1.21,0,.41,.01,.64,.21,.64,.55,0,.34-.25,.56-.66,.57-.54,0-1.08,.01-1.61,0-.61-.01-.97-.39-.98-.99,0-1.1,0-2.2,0-3.3,0-.61,.37-.97,.99-.97,1.11,0,2.22,0,3.33,0" style="fill:#be9952;"/><path d="M28.94,18.44c0,1.28,0,2.56,0,3.84,0,.94-.51,1.45-1.44,1.45-1.01,0-2.03,0-3.04,0-.47,0-.71-.19-.71-.55,0-.37,.25-.57,.73-.57,.96,0,1.93-.02,2.89,0,.35,0,.46-.1,.46-.45-.01-2.5,0-5,0-7.5,0-.13,0-.27,0-.4,.03-.32,.25-.52,.55-.52,.3,0,.53,.2,.55,.52,.02,.3,0,.61,0,.91v3.26" style="fill:#be9952;"/><path d="M55.91,15.21c0-.3,0-.61,0-.91,.01-.34,.24-.55,.55-.55,.31,0,.54,.22,.55,.56,0,.59,0,1.19,0,1.79,0,.35-.25,.59-.57,.58-.3,0-.52-.24-.53-.58,0-.29,0-.58,0-.88" style="fill:#be9952;"/><path d="M57.01,19.62c0,.29,0,.58,0,.87-.01,.34-.23,.57-.54,.57-.32,0-.56-.22-.56-.58,0-.58,0-1.17,0-1.75,0-.36,.23-.6,.55-.59,.32,0,.54,.24,.55,.6,0,.29,0,.58,0,.88" style="fill:#be9952;"/><path d="M44.12,41.63c0-.84-.49-1.34-1.33-1.37-2.43-.08-4.86-.16-7.28-.22-.35,0-.48-.08-.47-.47,.02-2.06,0-4.13,0-6.19,0-3.21-.01-6.42,0-9.63,0-.62-.17-1.11-.64-1.52-.39-.35-.74-.75-1.12-1.11-.21-.19-.28-.39-.28-.67,0-2,0-4,0-6.01,0-.47-.2-.71-.56-.71-.36,0-.56,.25-.56,.7,0,2.08,0,4.15,0,6.23,0,.41,.14,.76,.43,1.05,.44,.44,.87,.89,1.33,1.32,.21,.2,.29,.41,.29,.7,0,5.15,0,10.3,0,15.45,0,.79,0,.79-.81,.77-2.88-.09-5.76-.19-8.64-.28-.54-.02-.73,.18-.73,.71,0,2.78,0,5.57,0,8.35,0,.69,.35,1.04,1.03,1.04,1.13,0,2.27,0,3.4,0,.7,0,1.06-.35,1.06-1.06,0-1.16,0-2.32,0-3.48,0-.27,.07-.36,.34-.36,1.33-.02,2.66-.05,3.99-.11,.33-.01,.38,.1,.37,.39-.01,1.77,0,3.54-.01,5.31,0,.33,.07,.6,.37,.78h.44c.26-.22,.31-.51,.31-.84-.01-1.75,0-3.49-.01-5.24,0-.34,.06-.45,.43-.45,2.45-.05,4.9-.14,7.36-.21,.78-.02,1.29-.56,1.3-1.34,0-.51,0-1.03,0-1.54m-16.26,7.07c-.91-.01-1.83-.01-2.74,0-.2,0-.27-.05-.27-.26,.01-1.05,0-2.09,0-3.14,0-.19,.06-.26,.25-.26,.93-.02,1.85-.04,2.78-.08,.21,0,.27,.06,.27,.27-.01,.54,0,1.07,0,1.61s0,1.05,0,1.57c0,.21-.05,.3-.28,.3m3.23-4.96c-1.01,0-2.02,0-3.03,0v.19c-.95,0-1.9,0-2.85,0-.25,0-.36-.03-.36-.33,.02-.83,.02-1.66,0-2.49,0-.22,.06-.29,.29-.28,1.99,.06,3.98,.12,5.96,.17,.22,0,.29,.07,.29,.29-.01,.72-.02,1.44,0,2.16,0,.24-.09,.29-.3,.28m2.1-.05c-.68,.05-.68,.06-.68-.61,0-.55,0-1.1,0-1.64,0-.27,.04-.39,.36-.38,.61,.03,.61,.01,.61,.63v.69c0,.33-.01,.66,0,.99,0,.22-.06,.3-.28,.31m2.1-.06c-.7,.05-.7,.06-.7-.66,0-.51,.01-1.02,0-1.53,0-.23,.05-.32,.3-.31,.67,.02,.67,0,.67,.68v.55c0,.33,0,.66,0,.99,0,.2-.05,.27-.26,.29m2.32-.4c0,.25-.07,.33-.33,.34-.64,0-.64,.02-.64-.62v-1.13c0-.63,0-.62,.62-.62,.28,0,.35,.08,.34,.35-.02,.56-.02,1.12,0,1.68m2.07-.84v.44c0,.74,0,.73-.75,.67-.16-.01-.21-.07-.21-.22,0-.61,0-1.22,0-1.83,0-.16,.06-.23,.22-.21,0,0,.02,0,.04,0q.7,0,.7,.7v.44Zm3.07,1c-.58,.02-1.17,.03-1.75,.04-.15,0-.19-.07-.19-.2,0-.57,0-1.15,0-1.72,0-.19,.09-.22,.25-.21,.28,.02,.56,.03,.84,.05h0c.28,.01,.56,.02,.84,.01,.2,0,.28,.09,.28,.29,0,.48,0,.95,0,1.43,0,.2-.08,.3-.27,.31" style="fill:#be9952;"/><path d="M60.08,24.57c-.91,.03-1.83,0-2.75,.01-.25,0-.35-.05-.33-.32,.02-.37,0-.73,0-1.1,0-.38-.24-.64-.56-.63-.31,0-.53,.25-.53,.62,0,.38-.01,.76,0,1.13,.01,.23-.06,.29-.29,.29-.65-.01-1.29,0-1.94,0-.74,0-1.07,.34-1.07,1.07,0,3.8,0,7.59,0,11.39,0,.76,.33,1.09,1.09,1.09,2.12,0,4.25-.01,6.37,.01,.55,0,.94-.17,1.18-.67v-12.23c-.23-.5-.62-.69-1.18-.67m-5.73,1.11c1.82,0,3.64,0,5.46,0,.3,0,.36,.09,.36,.37-.02,.6,0,.6-.59,.6h-2.67c-.95,0-1.9,0-2.85,0-.24,0-.34-.04-.34-.31,.01-.65,0-.65,.65-.65m-.64,2.65c.02-.1,.01-.2,0-.29-.03-.23,.08-.28,.3-.28,.98,0,1.95,0,2.93,0s1.93,0,2.89,0c.24,0,.34,.05,.33,.32,0,.65,0,.65-.63,.65-1.81,0-3.61,0-5.42,0-.31,0-.47-.05-.41-.39m0,1.78c0-.21,.06-.27,.27-.27,1.98,0,3.95,0,5.93,0,.21,0,.26,.08,.26,.28,0,.82-.01,1.63,0,2.45,0,.24-.07,.31-.31,.3-.99-.01-1.97,0-2.96,0s-1.9,0-2.85,0c-.24,0-.34-.04-.34-.31,.02-.82,.01-1.63,0-2.45m0,4.44c.02-.09,.01-.2,0-.29-.03-.24,.08-.28,.3-.28,.98,0,1.95,0,2.93,0s1.93,0,2.89,0c.24,0,.34,.05,.33,.32,0,.64,0,.64-.63,.64-1.81,0-3.61,0-5.42,0-.3,0-.47-.05-.41-.39m5.8,2.48c-1.81,0-3.61,0-5.42,0-.29,0-.41-.05-.4-.37,.03-.6,0-.6,.6-.6h2.67c.95,0,1.9,0,2.85,0,.24,0,.34,.04,.34,.31,0,.65,0,.65-.65,.65" style="fill:#be9952;"/><path d="M60.26,41.65c-2.22,.01-4.44,0-6.66,0-.64,0-.99,.36-.99,1,0,1.04,0,2.08,0,3.11,0,.82,.33,1.15,1.15,1.15,2.09,0,4.17-.01,6.26,0,.55,0,.97-.16,1.23-.66v-3.95c-.21-.41-.49-.67-.99-.67m-.1,3.83c0,.23-.05,.32-.3,.32-1.95-.01-3.9,0-5.86,0-.21,0-.31-.04-.3-.28,.02-.83,.02-1.66,0-2.49,0-.25,.09-.28,.3-.27,.98,0,1.95,0,2.93,0s1.93,.01,2.89,0c.28,0,.34,.08,.34,.35-.02,.79-.01,1.59,0,2.38" style="fill:#be9952;"/><path d="M31.36,25.47c-2.2,0-4.39,0-6.59,0-.66,0-1.02,.36-1.02,1.02,0,1.06,0,2.12,0,3.18,0,.71,.35,1.06,1.05,1.06,1.09,0,2.17,0,3.26,0s2.2,0,3.3,0c.68,0,1.04-.36,1.04-1.04,0-1.06,0-2.12,0-3.18,0-.68-.35-1.04-1.03-1.04m-.06,3.88c0,.24-.08,.28-.3,.28-.98-.01-1.95,0-2.93,0s-1.93,0-2.89,0c-.24,0-.34-.05-.34-.32,.02-.8,.01-1.61,0-2.42,0-.23,.04-.32,.3-.32,1.95,0,3.91,0,5.86,0,.21,0,.3,.04,.3,.28-.01,.83-.01,1.66,0,2.49" style="fill:#be9952;"/><path d="M44.57,27.47c0-1.43-.13-2.84-.41-4.24-.42-2.11-1.15-4.11-2.17-6-.06-.1-.11-.19-.25-.19s-.2,.09-.25,.2c-.25,.5-.51,.99-.74,1.5-.9,2.01-1.48,4.12-1.71,6.31-.1,.92-.12,1.85-.17,2.78h.04c0,.57,0,1.13,0,1.7,0,.68,.51,1.19,1.19,1.19,1.09,0,2.18,0,3.27,0,.68,0,1.19-.51,1.19-1.19,0-.68,0-1.37,0-2.05m-2.83-9.69c1.65,3.19,2.41,6.54,2.36,10.1h-4.71c-.06-3.55,.71-6.91,2.35-10.1m2.35,11.79c0,.12-.04,.23-.09,.32-.05,.09-.13,.17-.22,.23-.09,.06-.19,.1-.3,.11h-.01s-.04,0-.07,0c-.28,0-.55,0-.83,0h0c-.83,0-1.66,0-2.5,0h0s-.08,0-.12-.01c-.03,0-.06-.01-.1-.03-.02,0-.05-.02-.07-.03-.22-.11-.38-.33-.4-.59,0-.04,0-.08,0-.12v-1.1h4.71c0,.41,.01,.8,0,1.2" style="fill:#be9952;"/><path d="M42.92,23.85c0-.64-.53-1.15-1.17-1.15-.65,0-1.18,.51-1.18,1.16,0,.64,0,1.29,0,1.93,0,.64,.53,1.15,1.17,1.15,.65,0,1.18-.51,1.18-1.16,0-.32,0-.64,0-.96s0-.65,0-.97m-.47,1.88c0,.42-.31,.73-.7,.74-.4,0-.71-.32-.71-.74,0-.15,0-.31,0-.46s0-.3,0-.46,0-.3,0-.45,0-.3,0-.45c0-.42,.31-.75,.71-.75,.39,0,.7,.32,.7,.74,0,.61,0,1.22,0,1.83" style="fill:#be9952;"/></svg>