<?xml version="1.0" encoding="UTF-8"?><svg id="a" xmlns="http://www.w3.org/2000/svg" viewBox="0 0 85 65"><path d="M41.3,50.15c-.32-.23-.48-.56-.48-.98,0-.53,.26-1.04,.69-1.35h0l.06-.05c.48-.35,.8-.86,.92-1.45,.12,.59,.44,1.1,.92,1.46,.01,0,.02,.02,.03,.02h.02s.02,.03,.04,.04c.42,.32,.66,.8,.66,1.33,0,.91-.72,1.19-1.25,1.27-.17,.03-.33,.03-.42,.03h0c-.49,0-.9-.11-1.2-.32m-4.35-.56c-.46-.15-.82-.38-1.04-.68-.23-.31-.28-.68-.15-1.08,.17-.51,.57-.91,1.08-1.07h0l.07-.02c.56-.18,1.02-.57,1.32-1.1-.07,.6,.08,1.19,.43,1.67,0,.01,.02,.02,.02,.03v.02s.03,.02,.04,.04c.3,.43,.38,.97,.22,1.47-.18,.56-.56,.77-.95,.83-.09,.01-.18,.02-.27,.02-.32,0-.62-.08-.77-.13m9.87,.06c-.37-.12-.63-.38-.76-.79-.17-.51-.08-1.07,.24-1.5h0l.04-.07c.34-.48,.49-1.06,.43-1.66,.3,.52,.76,.91,1.33,1.1,.01,0,.03,0,.04,.01h.02s.03,.02,.04,.02c.5,.17,.88,.56,1.04,1.06,.37,1.15-.81,1.64-1.19,1.76-.15,.05-.29,.08-.43,.11-.12,.02-.23,.03-.34,.03-.17,0-.33-.02-.47-.07m-6.71-2.01c-.51-.08-.87-.19-1.12-.51,0-.01-.02-.03-.04-.05-.31-.43-.43-.96-.34-1.5,.17-1.06,1.11-1.8,2.09-1.65,.98,.16,1.64,1.15,1.47,2.22-.09,.54-.37,1.02-.79,1.32h0l-.06,.05h0c-.13,.09-.27,.14-.43,.16-.08,.01-.16,.02-.25,.02-.16,0-.34-.02-.53-.05m3.57-.14s-.03-.02-.05-.04c-.42-.31-.71-.78-.79-1.33-.17-1.06,.5-2.06,1.48-2.22,.98-.15,1.92,.59,2.08,1.65,.09,.54-.04,1.08-.34,1.5h0l-.04,.06h0c-.24,.3-.6,.42-1.1,.5-.2,.03-.37,.05-.53,.05-.26,0-.49-.05-.69-.19m-10.54-3.22c.46-.07,.89-.28,1.24-.61-.25,.55-.29,1.15-.11,1.72v.04l.02,.02s0,.03,.01,.05c.15,.51,.06,1.04-.25,1.46-.71,.98-1.8,.3-2.12,.07-.4-.29-.67-.62-.78-.97-.12-.37-.06-.73,.19-1.07,.31-.43,.82-.69,1.35-.69h.08c.12,0,.24,0,.35-.03m17.81,2.69c-.32-.43-.4-.99-.24-1.5h0l.02-.08c.18-.56,.14-1.17-.11-1.71,.44,.41,1,.63,1.6,.63h.06s.03,0,.05,0c.53,.01,1.01,.26,1.32,.69,.71,.98-.27,1.81-.59,2.04-.32,.23-.64,.38-.95,.43-.07,.01-.14,.02-.21,.02h0c-.39,0-.71-.17-.96-.51m-15.4-.81c-.46-.23-.77-.45-.91-.83,0-.02-.01-.04-.02-.06-.16-.5-.11-1.05,.14-1.54,.49-.96,1.61-1.37,2.5-.92,.88,.45,1.2,1.6,.72,2.56-.25,.49-.66,.85-1.16,1.02h0l-.07,.02h0s-.08,.02-.12,.03c-.05,0-.11,.01-.16,.01-.28,0-.57-.11-.91-.29m12.72,.24s-.04-.01-.06-.02c-.5-.17-.91-.53-1.16-1.02-.49-.96-.17-2.11,.72-2.56,.88-.45,2-.03,2.49,.93,.25,.49,.3,1.04,.14,1.54h0l-.02,.08h0c-.13,.37-.44,.58-.9,.82-.27,.14-.51,.24-.73,.27-.06,0-.12,.02-.18,.02-.1,0-.2-.01-.29-.04m-7.51-2.86c-.08-.01-.15-.05-.22-.12l-.39-.4c-.14-.14-.21-.39-.17-.64,.04-.25,.18-.46,.36-.56l.5-.26c.16-.09,.34-.06,.46,.07l.39,.4c.13,.13,.19,.35,.17,.58v.06c-.05,.25-.19,.46-.37,.56l-.5,.26s-.09,.04-.13,.04c-.02,0-.04,0-.06,0s-.04,0-.06,0m3.26-.04l-.5-.26c-.18-.09-.32-.31-.36-.56s.03-.49,.17-.64l.4-.4c.13-.13,.3-.16,.46-.07l.5,.26c.17,.09,.29,.27,.34,.5v.06c.05,.25-.02,.49-.16,.64l-.4,.4c-.06,.06-.14,.1-.22,.12-.02,0-.04,0-.05,0-.06,0-.13-.02-.19-.05m-2.71,.23l.36-.18c.28-.14,.48-.45,.54-.8,0-.02,0-.04,0-.06l.3-1.89s0-.03,0-.04c0,.01,0,.02,0,.03l.3,1.95c.05,.36,.26,.67,.53,.81l.37,.19c-.62,.29-1.06,.88-1.21,1.58-.15-.7-.59-1.29-1.21-1.58m-9.97-3.11c-.41,.44-.63,1.01-.63,1.6v.06s0,.03,0,.05c-.01,.53-.26,1.01-.69,1.32-.19,.14-.37,.21-.55,.24-.73,.12-1.3-.57-1.49-.83-.29-.4-.44-.8-.44-1.16,0-.39,.17-.71,.51-.96,.43-.32,.99-.4,1.5-.24h0l.07,.03c.23,.07,.47,.11,.71,.11,.34,0,.68-.07,1.01-.22m23.68,3.03c-.43-.31-.69-.82-.69-1.35h0v-.08c0-.59-.23-1.15-.63-1.59,.55,.25,1.15,.29,1.72,.11,.01,0,.03,0,.04-.01h.02s.03-.01,.05-.02c.51-.15,1.04-.06,1.46,.25,.98,.71,.3,1.8,.07,2.12-.29,.4-.62,.67-.97,.78-.06,.02-.13,.04-.19,.05-.06,0-.11,.01-.17,.01-.24,0-.48-.08-.71-.25m-17.58-1.19c-.07-.04-.13-.1-.17-.18l-.25-.5c-.09-.18-.07-.43,.04-.66,.12-.22,.31-.39,.51-.42l.56-.09c.18-.03,.34,.05,.42,.21l.25,.5c.08,.17,.08,.39-.01,.6l-.03,.06c-.12,.22-.31,.38-.51,.42l-.56,.09h0s-.05,0-.07,0c-.06,0-.12-.01-.17-.04m9.91,.04l-.55-.09c-.2-.03-.4-.2-.51-.42-.11-.23-.13-.48-.04-.66l.25-.5c.08-.16,.24-.24,.42-.21l.55,.09c.18,.03,.36,.17,.48,.36l.03,.06c.11,.23,.13,.48,.04,.66l-.25,.5c-.04,.08-.1,.14-.17,.18-.03,.02-.07,.03-.11,.03-.02,0-.04,0-.06,0-.02,0-.05,0-.07,0m-9.46,.31l.4-.07c.31-.05,.6-.28,.76-.59,0-.02,.02-.04,.02-.06l.87-1.7s.01-.03,.02-.04c0,.01,0,.02,0,.03l-.31,1.95c-.06,.35,.04,.71,.26,.93l.29,.3c-.68,.09-1.28,.51-1.64,1.12,.08-.71-.17-1.41-.67-1.87m6.94,.75l.28-.29c.22-.22,.32-.57,.27-.93,0-.02,0-.04-.01-.06l-.29-1.89s0-.03-.01-.04v.03l.9,1.76c.16,.32,.45,.55,.76,.6l.41,.07c-.5,.47-.74,1.16-.66,1.87-.36-.62-.96-1.04-1.64-1.12m-13.16-.22c-.36-.36-.59-.67-.61-1.07,0,0,0-.02,0-.03v-.03c0-.53,.22-1.03,.61-1.42,.76-.76,1.96-.81,2.66-.11,.7,.7,.65,1.89-.11,2.66-.32,.32-.71,.52-1.13,.58-.1,.02-.2,.02-.29,.02h-.08c-.39-.02-.69-.24-1.05-.6m19.13,0c-.76-.76-.81-1.96-.11-2.66,.7-.7,1.89-.65,2.66,.11,.39,.39,.61,.9,.61,1.42h0v.08h0c-.02,.39-.24,.69-.6,1.05-.32,.32-.6,.54-.94,.59-.04,0-.09,.01-.13,.01h-.06c-.53,0-1.03-.22-1.42-.61m-10.51-2.9c.04-.25,.18-.46,.36-.56l.5-.26c.16-.08,.33-.05,.46,.08l.39,.4c.14,.15,.21,.39,.17,.64l-.18,1.13s-.03-.04-.05-.06l-.39-.4c-.12-.12-.26-.19-.41-.22-.15-.02-.3,0-.45,.08l-.5,.26s-.05,.03-.07,.05l.18-1.13Zm2.56,.3c-.04-.25,.03-.5,.17-.64l.4-.4c.13-.13,.3-.16,.46-.07l.5,.26c.18,.1,.32,.31,.36,.56l.17,1.13s-.04-.03-.07-.04l-.5-.26c-.15-.08-.31-.1-.46-.08-.15,.02-.29,.1-.41,.21l-.4,.4s-.04,.04-.06,.07l-.18-1.14Zm-7.25,.2c.23-.03,.45-.15,.63-.33,.01-.02,.03-.03,.04-.05l1.36-1.35s.02-.02,.03-.03c0,.01-.01,.02-.02,.03l-.9,1.75c-.16,.32-.18,.69-.04,.97l.18,.37c-.67-.13-1.38,.09-1.91,.56,.29-.65,.28-1.39-.05-1.99l.4,.06s.09,.01,.13,.01c.05,0,.1,0,.15-.01m12.72,1c.14-.28,.13-.65-.03-.97,0-.02-.02-.04-.03-.05l-.86-1.7s-.01-.03-.02-.04c0,0,.01,.02,.02,.03l1.39,1.4c.25,.25,.6,.38,.91,.34l.41-.06c-.33,.6-.34,1.34-.05,1.99-.53-.48-1.24-.69-1.91-.56l.18-.36Zm-6.07-2.07l-.39-.4c.28-.08,.51-.26,.65-.51,.14,.25,.38,.43,.65,.51l-.38,.39c-.15,.15-.24,.36-.27,.59-.03-.23-.12-.43-.26-.58m-4.31-.5c.12-.23,.31-.39,.51-.42l.56-.09c.18-.03,.34,.05,.42,.21l.25,.5c.09,.18,.08,.44-.04,.66l-.52,1.02s-.02-.05-.03-.07l-.25-.5c-.07-.15-.19-.26-.32-.33-.13-.07-.29-.09-.45-.07l-.56,.09s-.06,.01-.09,.02l.53-1.02Zm7.44,.86c-.11-.23-.13-.48-.03-.66l.25-.5c.08-.16,.24-.24,.42-.21l.55,.09c.2,.03,.4,.2,.51,.42l.52,1.02s-.05-.02-.08-.02l-.55-.1c-.17-.03-.32,0-.46,.06-.13,.07-.25,.18-.32,.33l-.25,.5s-.02,.05-.03,.08l-.52-1.03Zm3.64,.13c-.18-.18-.27-.42-.24-.62l.09-.56c.03-.18,.15-.3,.33-.33l.56-.08c.18-.03,.4,.05,.57,.2l.04,.05c.18,.18,.27,.42,.24,.62l-.09,.56c-.01,.09-.05,.17-.11,.22-.06,.06-.13,.09-.22,.1h0l-.56,.08s-.05,0-.08,0c-.18,0-.38-.09-.54-.25m-13.65,.24l-.56-.09c-.09-.01-.17-.05-.22-.11-.06-.06-.09-.13-.11-.22l-.08-.56c-.03-.2,.06-.44,.24-.61,.18-.18,.42-.27,.62-.24l.56,.09c.18,.03,.3,.15,.33,.33l.08,.56c.03,.18-.05,.4-.2,.57l-.04,.04c-.13,.13-.29,.21-.44,.24-.03,0-.06,0-.09,0-.03,0-.05,0-.08,0m4.58-1.68c.21-.03,.4-.13,.56-.27,.06,.28,.23,.53,.47,.69l-.48,.25c-.19,.1-.34,.27-.44,.48,.04-.22,.02-.45-.07-.63l-.25-.5s.03,0,.04,0c.06,0,.11,0,.17-.01m4.59,.67l-.49-.26c.24-.16,.4-.4,.46-.68,.21,.19,.49,.29,.78,.28l-.25,.49c-.09,.19-.12,.42-.07,.64-.1-.21-.25-.38-.43-.47m2.09-.97l-.55-.09c.18-.22,.26-.51,.23-.79,.26,.12,.56,.13,.83,.03l-.08,.54c-.03,.21,.02,.43,.13,.63-.16-.17-.35-.28-.55-.32m-7.92-.88c-.03,.29,.05,.57,.23,.8l-.54,.09c-.21,.03-.4,.15-.56,.32,.11-.2,.16-.42,.13-.62l-.08-.55c.12,.04,.25,.07,.38,.07,.15,0,.3-.03,.45-.09m2.74,1.48c-.43-.07-.73-.47-.66-.9,.07-.43,.48-.73,.91-.66,.43,.07,.73,.47,.66,.91-.06,.35-.33,.61-.66,.66-.04,0-.08,.01-.12,.01s-.08,0-.12-.01m1.22-.66c-.07-.43,.23-.84,.66-.91,.43-.07,.84,.23,.9,.66,.07,.43-.23,.84-.66,.91-.04,0-.08,.01-.12,.01-.38,0-.72-.28-.78-.67m-6.1,1.15l-.08-.56c-.02-.17-.1-.31-.2-.42-.11-.11-.25-.18-.41-.2l-.56-.09s-.06,0-.09,0l.82-.81c.18-.18,.42-.27,.62-.24l.56,.09c.18,.03,.3,.15,.33,.33l.08,.56c.03,.2-.06,.44-.24,.62l-.81,.81s0-.05,0-.08m11.06-.74c-.18-.18-.27-.42-.24-.62l.09-.56c.03-.18,.15-.3,.33-.33l.56-.08c.2-.03,.44,.06,.62,.24l.81,.81s-.05,0-.08,0l-.56,.08c-.17,.02-.31,.1-.42,.2-.11,.11-.18,.25-.2,.41l-.09,.56s0,.06,0,.09l-.81-.82Zm-13.96-.58c.12-.02,.24-.06,.36-.12,.02,0,.04-.02,.06-.03l1.7-.86s.02-.01,.04-.02c0,0-.02,.01-.03,.02l-1.4,1.39c-.25,.25-.38,.6-.34,.91l.06,.41c-.6-.33-1.34-.34-1.99-.05,.48-.53,.69-1.24,.56-1.91l.36,.18c.13,.06,.27,.1,.43,.1,.06,0,.12,0,.18-.01m17.27,1.3c.05-.31-.08-.65-.33-.91-.01-.01-.03-.03-.05-.04l-1.35-1.36s-.02-.02-.03-.03c.01,0,.02,.01,.03,.02l1.75,.9c.32,.16,.69,.18,.97,.04l.37-.18c-.13,.67,.09,1.38,.56,1.91-.65-.29-1.39-.28-1.99,.05l.06-.4Zm-11.52-1.14c-.39-.2-.54-.67-.35-1.06,.2-.39,.68-.54,1.06-.35,.39,.2,.54,.68,.35,1.06-.12,.24-.34,.38-.58,.42-.04,0-.08,0-.12,0-.12,0-.24-.03-.36-.09m5.1-.35c-.2-.39-.04-.87,.35-1.06,.39-.2,.87-.04,1.06,.35,.2,.39,.04,.87-.35,1.06-.08,.04-.16,.06-.24,.08-.04,0-.08,0-.12,0-.29,0-.57-.16-.71-.43m-14.79,2.18h0l-.07-.03h0c-.36-.13-.58-.44-.81-.9-.23-.46-.36-.82-.24-1.21,0-.02,.01-.04,.02-.06,.17-.5,.53-.91,1.02-1.16,.96-.49,2.11-.17,2.56,.72,.45,.89,.03,2-.93,2.49-.2,.1-.42,.17-.63,.21-.1,.02-.21,.03-.31,.03-.2,0-.4-.03-.59-.09m24.01-.14c-.96-.49-1.38-1.61-.92-2.5,.45-.88,1.6-1.2,2.56-.72,.49,.25,.85,.66,1.02,1.16h0l.02,.08h0c.11,.37-.02,.73-.25,1.19-.23,.46-.45,.77-.83,.91-.02,0-.04,.01-.06,.02-.09,.03-.19,.05-.29,.07-.1,.02-.21,.02-.31,.02-.32,0-.64-.08-.94-.23m-11.33-2.63c-.12-.02-.23-.07-.32-.16-.11-.11-.17-.26-.17-.41,0-.32,.26-.58,.58-.58,.16,0,.3,.06,.41,.17,.11,.11,.17,.26,.17,.41,0,.29-.21,.53-.49,.57-.03,0-.06,0-.09,0h0s-.06,0-.09,0m1.23-.28c-.14-.07-.24-.19-.29-.34-.1-.31,.07-.63,.37-.73,.15-.05,.31-.04,.45,.03,.14,.07,.24,.19,.29,.34,.1,.31-.07,.64-.37,.73-.03,.01-.06,.02-.09,.02-.03,0-.06,0-.09,0-.09,0-.18-.02-.26-.06m-2.72,.03s-.06-.02-.09-.04c-.11-.05-.2-.14-.25-.25-.07-.14-.08-.3-.03-.44,.1-.31,.43-.47,.73-.37,.15,.05,.27,.15,.34,.29,.07,.14,.08,.3,.03,.44-.07,.22-.25,.36-.46,.4-.03,0-.06,0-.09,0-.06,0-.12,0-.18-.03m10.21,.59c-.22-.12-.38-.31-.42-.51l-.09-.56c-.03-.18,.05-.34,.21-.42l.51-.25c.17-.08,.39-.08,.6,.01l.06,.03c.22,.11,.39,.31,.42,.51l.09,.56c.02,.09,0,.17-.03,.24-.04,.07-.1,.13-.18,.17l-.5,.25s-.1,.04-.16,.05c-.03,0-.07,0-.11,0-.13,0-.26-.03-.39-.1m-17.91,.03l-.5-.25c-.08-.04-.14-.1-.18-.17-.04-.07-.05-.16-.03-.24l.09-.55c.03-.2,.19-.4,.42-.51,.23-.11,.48-.13,.66-.04l.5,.25c.16,.08,.24,.24,.21,.42l-.09,.55c-.03,.18-.17,.36-.36,.48l-.06,.03c-.09,.04-.18,.07-.26,.09-.04,0-.08,.01-.12,.01-.1,0-.19-.02-.27-.06m3.18-1.38l.09-.55c.22,.18,.51,.26,.79,.23-.12,.26-.13,.56-.02,.83l-.54-.08c-.21-.03-.43,.02-.63,.13,.17-.16,.28-.35,.32-.55m11.63-.33c.19-.03,.36-.11,.51-.22l.09,.54c.03,.21,.15,.41,.32,.56-.2-.11-.42-.16-.62-.13l-.55,.08c.1-.26,.09-.56-.03-.82,.04,0,.08,0,.12,0,.06,0,.11,0,.17-.01m8.29,.46c.36-.06,.71-.2,1.01-.42,.01,0,.02-.02,.03-.02h.01l.04-.04c.43-.3,.97-.38,1.47-.22,1.15,.37,.85,1.62,.72,1.99-.15,.47-.38,.82-.68,1.04-.31,.23-.68,.28-1.08,.15-.51-.17-.91-.57-1.07-1.08h0l-.02-.08c-.18-.56-.57-1.02-1.1-1.32,.09,.01,.19,.02,.28,.02,.13,0,.25,0,.38-.03m-30.9,1.3c-.15-.46-.17-.89-.06-1.24,.12-.37,.38-.63,.78-.76,.51-.17,1.07-.08,1.5,.24h0l.06,.05c.48,.34,1.06,.49,1.66,.43-.52,.3-.91,.76-1.1,1.33,0,.01,0,.03-.01,.04v.02s-.02,.03-.02,.04c-.17,.5-.56,.88-1.06,1.04-.08,.03-.16,.05-.23,.06-.07,.01-.13,.02-.19,.02-.85,0-1.23-.94-1.33-1.26m12.29-.75c-.31-.31-.31-.81,0-1.12,.31-.31,.81-.31,1.12,0,.31,.31,.31,.81,0,1.12-.12,.12-.28,.2-.43,.22-.04,0-.08,0-.12,0-.2,0-.41-.08-.56-.23m8.48,0c-.31-.31-.31-.81,0-1.12,.31-.31,.81-.31,1.12,0,.31,.31,.31,.81,0,1.12-.12,.12-.28,.2-.44,.22-.04,0-.08,0-.13,0-.2,0-.41-.08-.56-.23m-1.1-.55c-.15-.02-.29-.11-.38-.23-.19-.26-.13-.63,.13-.81,.13-.09,.28-.13,.43-.1,.15,.02,.29,.11,.38,.23,.19,.26,.13,.63-.13,.82-.02,.02-.05,.03-.08,.05-.05,.03-.11,.05-.17,.06-.03,0-.06,0-.09,0-.03,0-.06,0-.09,0m-5.59-.11s-.05-.04-.07-.06c-.09-.09-.14-.2-.16-.32-.02-.15,.01-.31,.1-.43,.19-.26,.55-.32,.81-.13,.13,.09,.21,.23,.23,.38,.03,.15-.01,.31-.1,.43-.1,.13-.23,.21-.38,.23-.03,0-.06,0-.09,0-.12,0-.24-.04-.34-.11m-4.86,.87l.09-.56c.03-.17,0-.32-.07-.46-.07-.13-.18-.25-.33-.32l-.5-.25s-.05-.02-.08-.03l1.03-.52c.23-.11,.48-.13,.66-.04l.5,.25c.16,.08,.24,.24,.21,.42l-.09,.56c-.03,.2-.2,.4-.42,.51l-1.02,.52s.02-.05,.02-.08m14.74-.45c-.22-.12-.38-.31-.42-.51l-.09-.56c-.03-.18,.05-.34,.21-.42l.5-.25c.18-.09,.44-.08,.66,.04l1.02,.52s-.05,.02-.07,.03l-.5,.25c-.15,.07-.26,.19-.33,.32-.07,.13-.09,.29-.07,.45l.09,.56s.01,.06,.02,.09l-1.02-.53Zm3.9-1.95l.3-.29c.09,.68,.51,1.28,1.12,1.64-.71-.08-1.41,.17-1.87,.67l-.07-.4c-.05-.3-.28-.6-.6-.76-.02-.01-.04-.02-.06-.03l-1.7-.87s-.03-.01-.04-.02c.01,0,.02,0,.03,0l1.94,.32c.07,.01,.13,.02,.2,.02,.29,0,.56-.1,.74-.28m-21.83-.29l.29,.28c.22,.22,.58,.32,.93,.26,.02,0,.04,0,.06-.01l1.89-.29s.03,0,.04,0c-.01,0-.02,0-.03,.01l-1.76,.89c-.32,.16-.55,.45-.6,.76l-.07,.41c-.47-.5-1.17-.74-1.87-.66,.62-.36,1.04-.96,1.13-1.64m14.39,.82c-.26-.19-.32-.55-.13-.81,.09-.13,.23-.21,.38-.23,.15-.02,.31,.01,.43,.1,.26,.19,.32,.55,.13,.81-.02,.02-.04,.05-.06,.07-.09,.09-.2,.14-.32,.16-.03,0-.06,0-.09,0-.12,0-.24-.04-.34-.11m-7.48-.13s-.03-.05-.05-.08c-.06-.11-.07-.23-.06-.35,.02-.15,.11-.29,.23-.38,.26-.19,.63-.13,.81,.13,.09,.13,.13,.28,.1,.43-.02,.15-.11,.29-.23,.38-.08,.06-.16,.09-.25,.1-.03,0-.06,0-.09,0-.18,0-.36-.08-.47-.24m-1.9,.07c-.2-.39-.04-.87,.35-1.06,.39-.2,.87-.04,1.06,.35,.2,.39,.04,.87-.35,1.06-.08,.04-.16,.06-.23,.08-.04,0-.08,0-.12,0-.29,0-.57-.16-.71-.43m11.04,.35c-.39-.2-.54-.68-.35-1.06,.2-.39,.68-.55,1.07-.35,.39,.2,.54,.68,.34,1.06-.12,.23-.34,.38-.58,.42-.04,0-.08,0-.12,0-.12,0-.24-.03-.36-.09m-12.07-1.4l.26-.49c.16,.24,.4,.4,.68,.46-.19,.21-.29,.49-.28,.78l-.49-.25c-.19-.09-.41-.12-.64-.07,.21-.1,.37-.25,.47-.43m13.24-.03c.28-.06,.53-.23,.68-.47l.25,.48c.1,.19,.27,.34,.48,.44-.22-.04-.45-.02-.63,.07l-.5,.25c.01-.28-.09-.56-.28-.77m-2.01-.04c-.31-.1-.47-.43-.37-.74,.05-.15,.15-.27,.29-.34,.14-.07,.3-.08,.44-.03,.31,.1,.47,.43,.37,.73,0,.03-.02,.06-.03,.09-.06,.11-.14,.2-.25,.25-.06,.03-.11,.05-.17,.06-.03,0-.06,0-.09,0-.06,0-.12,0-.18-.03m-9.02-.38s-.02-.06-.02-.09c-.02-.12,0-.24,.06-.35,.07-.14,.19-.24,.34-.29,.3-.1,.63,.07,.73,.37,.05,.15,.04,.31-.03,.45-.07,.14-.19,.24-.34,.29-.03,0-.06,.02-.09,.02-.03,0-.06,0-.09,0-.25,0-.47-.16-.55-.4m14.77,.95c-.25-.04-.46-.18-.56-.36l-.26-.5c-.08-.16-.05-.34,.08-.46l.4-.39c.13-.13,.35-.19,.58-.17h.06c.25,.05,.46,.19,.56,.37l.26,.5c.04,.08,.06,.16,.04,.24-.01,.08-.05,.15-.12,.22l-.4,.39c-.09,.09-.22,.15-.36,.17-.05,0-.09,.01-.14,.01s-.09,0-.14-.01m-20.43-.17l-.4-.4c-.07-.06-.11-.14-.12-.22-.01-.08,0-.16,.05-.24l.26-.5c.09-.18,.31-.32,.56-.36,.25-.04,.49,.03,.64,.17l.4,.4c.13,.13,.16,.3,.07,.46l-.26,.5c-.09,.17-.27,.29-.49,.34h-.06s-.1,.02-.14,.02c-.2,0-.38-.07-.5-.18m1.5-.02l.26-.5c.08-.15,.1-.31,.08-.46-.02-.15-.1-.29-.21-.41l-.4-.4s-.04-.04-.07-.06l1.14-.18c.25-.04,.5,.03,.64,.17l.4,.4c.13,.13,.16,.3,.07,.46l-.26,.5c-.1,.18-.31,.32-.56,.36h0l-1.13,.18s.03-.05,.04-.07m16.98-.11c-.25-.04-.46-.18-.56-.36l-.26-.5c-.08-.16-.06-.33,.07-.46l.4-.39c.15-.14,.39-.21,.64-.17l1.13,.18s-.04,.03-.06,.05l-.4,.39c-.12,.12-.19,.26-.22,.41-.02,.15,0,.3,.08,.45l.26,.5s.03,.05,.05,.08l-1.13-.18Zm-22.53,1.34h0l-.06-.05h0c-.3-.24-.42-.6-.49-1.11-.08-.51-.09-.89,.14-1.22,.01-.02,.02-.03,.04-.05,.31-.42,.78-.71,1.32-.79,1.07-.17,2.06,.5,2.22,1.48,.15,.98-.59,1.92-1.65,2.08h0c-.11,.02-.23,.03-.34,.03-.42,0-.83-.13-1.17-.37m27.67,.34c-1.06-.17-1.8-1.11-1.65-2.09,.16-.98,1.15-1.64,2.22-1.47,.54,.09,1.02,.37,1.33,.79h0l.04,.07h0c.22,.32,.21,.7,.13,1.21-.08,.51-.19,.87-.51,1.12l-.05,.04c-.25,.18-.54,.3-.84,.34-.11,.02-.21,.03-.32,.03s-.22,0-.34-.03m-19.79-2.84c-.07-.43,.23-.84,.66-.91,.43-.07,.84,.23,.91,.66s-.23,.84-.66,.91c-.04,0-.08,0-.13,0-.38,0-.72-.28-.78-.67m12.51,.66c-.43-.07-.73-.47-.66-.91,.07-.43,.47-.73,.91-.66,.43,.07,.73,.48,.66,.91-.05,.35-.33,.61-.66,.66-.04,0-.08,0-.12,0s-.08,0-.13,0m-1.84-1.72c0-.16,.06-.3,.17-.41,.11-.11,.26-.17,.41-.17,.32,0,.58,.26,.58,.58,0,.03,0,.06,0,.09-.02,.12-.08,.23-.16,.32-.09,.09-.2,.14-.32,.16-.03,0-.06,0-.09,0-.32,0-.58-.26-.58-.58m-9.09,0s0-.06,0-.09c.02-.12,.08-.23,.16-.32,.11-.11,.26-.17,.41-.17,.32,0,.58,.26,.58,.58,0,.16-.06,.3-.17,.41-.09,.09-.2,.14-.32,.16-.03,0-.06,0-.09,0h0c-.32,0-.58-.26-.58-.58m-2.23,.27c-.15-.15-.36-.24-.59-.27h.03c.21-.04,.41-.13,.55-.26l.4-.39c.08,.28,.26,.51,.51,.65-.25,.14-.43,.38-.51,.66l-.39-.38Zm13.82-.27c.25-.14,.43-.38,.51-.66l.39,.38c.15,.15,.36,.24,.59,.27-.23,.03-.43,.12-.58,.26l-.4,.39c-.08-.28-.26-.51-.51-.65m4.59,.85c-.14-.27-.45-.48-.8-.54-.02,0-.04,0-.06,0l-1.89-.3s-.03,0-.04,0c.01,0,.02,0,.03,0l1.95-.3h0c.35-.06,.66-.26,.8-.53l.19-.37c.29,.62,.88,1.06,1.57,1.21-.7,.15-1.29,.59-1.58,1.21l-.19-.36Zm-23.87-.85c.7-.15,1.29-.59,1.58-1.21l.18,.36c.14,.28,.45,.48,.8,.54,.02,0,.04,0,.06,0l1.89,.3s.03,0,.04,0c-.01,0-.02,0-.03,0l-1.95,.3c-.36,.05-.66,.26-.81,.53l-.19,.37c-.29-.62-.88-1.06-1.57-1.21m28.13,.99h0l-.04-.07c-.35-.48-.86-.8-1.45-.92,.59-.12,1.1-.44,1.46-.93l.02-.03h.01l.03-.05c.32-.42,.8-.66,1.33-.66,1.21,0,1.31,1.28,1.31,1.67,0,.49-.11,.9-.32,1.2-.18,.26-.43,.41-.75,.46-.07,.01-.15,.02-.23,.02h0c-.53,0-1.04-.26-1.35-.69m-33.29-.99c0-.49,.11-.9,.32-1.2,.23-.32,.56-.48,.98-.48,.53,0,1.04,.26,1.35,.69h0l.04,.07c.35,.48,.86,.8,1.45,.92-.59,.12-1.1,.44-1.46,.93,0,.01-.02,.02-.02,.03v.02s-.03,.02-.04,.04c-.27,.35-.64,.57-1.07,.64-.09,.01-.17,.02-.26,.02h0c-1.21,0-1.3-1.28-1.31-1.67m11.92-.16c-.43-.07-.73-.48-.66-.91,.07-.43,.47-.73,.91-.66,.43,.07,.73,.47,.66,.9-.05,.35-.33,.61-.66,.66-.04,0-.08,0-.12,0s-.08,0-.13,0m11.19-.66c-.07-.43,.23-.84,.66-.9,.43-.07,.84,.23,.9,.66,.07,.43-.23,.84-.66,.91-.04,0-.08,0-.13,0-.38,0-.72-.28-.78-.67m-1.38-.41c-.05-.15-.04-.3,.03-.44,.07-.14,.19-.24,.34-.29,.31-.1,.64,.07,.73,.37,.01,.03,.02,.06,.02,.09,.02,.12,0,.24-.06,.35-.07,.14-.19,.24-.34,.29-.03,0-.06,.02-.09,.02-.03,0-.06,0-.09,0-.25,0-.47-.16-.56-.4m-8.27,.37c-.31-.1-.47-.43-.37-.74,.01-.03,.02-.06,.03-.09,.06-.11,.14-.2,.26-.25,.14-.07,.3-.08,.44-.03,.31,.1,.47,.43,.38,.73-.05,.15-.15,.27-.29,.34-.06,.03-.11,.05-.17,.06-.03,0-.06,0-.09,0-.06,0-.12,0-.18-.03m12.1,.34l-.4-.4c-.13-.13-.16-.3-.07-.46l.26-.5c.09-.18,.31-.32,.56-.36l1.13-.18s-.03,.04-.04,.07l-.26,.5c-.08,.15-.1,.31-.08,.46,.02,.15,.1,.29,.21,.41l.4,.4s.04,.04,.07,.06l-1.14,.18s-.09,.01-.14,.01c-.2,0-.38-.07-.5-.18m-15.85,.18l-1.13-.18s.04-.03,.06-.05l.4-.39c.12-.12,.19-.26,.22-.41,.02-.15,0-.3-.08-.45l-.26-.5s-.03-.05-.05-.08l1.13,.18c.25,.04,.46,.18,.56,.36l.26,.5c.09,.16,.06,.33-.07,.46l-.4,.39c-.09,.09-.22,.14-.36,.17-.04,0-.09,.01-.14,.01s-.1,0-.15-.01m17.8-.48l-.4-.4c-.13-.13-.16-.3-.07-.46l.26-.5c.09-.17,.27-.29,.49-.34h.06c.25-.05,.49,.02,.64,.16l.4,.4c.07,.06,.1,.14,.12,.22,.01,.08,0,.16-.04,.24l-.26,.5c-.09,.18-.31,.32-.56,.36-.05,0-.1,.01-.14,.01-.2,0-.38-.07-.5-.18m-19.68,.18h-.06c-.25-.05-.46-.19-.56-.37l-.26-.5c-.04-.08-.06-.16-.04-.24,.01-.08,.05-.15,.12-.22l.4-.39c.15-.14,.39-.21,.64-.17,.25,.04,.46,.18,.56,.36l.26,.5c.08,.16,.06,.34-.07,.46l-.4,.39c-.09,.09-.22,.14-.36,.17-.04,0-.09,.01-.14,.01-.03,0-.05,0-.08,0m2.95-1.8c.09-.01,.17-.04,.25-.08l.5-.25c-.01,.28,.09,.56,.28,.77-.28,.06-.53,.23-.69,.47l-.25-.48c-.1-.19-.27-.34-.48-.44,.07,.01,.14,.02,.22,.02,.06,0,.11,0,.16-.01m13.33,.45c.19-.21,.29-.49,.28-.78l.49,.25c.19,.09,.41,.12,.64,.07-.21,.1-.38,.25-.47,.43l-.26,.49c-.16-.24-.4-.4-.68-.46m-2.94-.33c-.09-.13-.13-.28-.1-.43,.02-.15,.11-.29,.23-.38,.26-.19,.63-.13,.81,.13,.02,.02,.03,.05,.05,.08,.06,.11,.07,.23,.06,.35-.02,.15-.11,.29-.23,.38-.08,.06-.16,.09-.25,.1-.03,0-.06,0-.09,0-.18,0-.36-.08-.47-.24m-7.22,.13c-.26-.19-.32-.55-.13-.81,.02-.03,.04-.05,.06-.07,.09-.09,.2-.14,.32-.16,.15-.02,.31,.01,.43,.1,.26,.19,.32,.55,.13,.81-.09,.13-.23,.21-.38,.23h0s-.06,0-.09,0c-.12,0-.24-.04-.34-.11m-1.69,.18c-.39-.2-.54-.68-.35-1.06,.2-.39,.67-.54,1.06-.35,.39,.2,.54,.68,.35,1.06-.12,.23-.34,.38-.58,.42-.04,0-.08,0-.12,0-.12,0-.24-.03-.36-.09m10.34-.35c-.2-.39-.04-.87,.35-1.06,.39-.2,.87-.04,1.06,.34,.2,.39,.04,.87-.34,1.06-.08,.04-.16,.06-.24,.08-.04,0-.08,0-.12,0-.29,0-.57-.16-.71-.43m-18.29,2.03c-.54-.09-1.02-.37-1.32-.79h0l-.04-.07h0c-.22-.32-.21-.7-.13-1.21,.08-.51,.19-.87,.51-1.12,.01-.01,.03-.02,.05-.04,.43-.31,.96-.43,1.5-.34,1.06,.17,1.81,1.11,1.65,2.09-.12,.77-.77,1.35-1.56,1.47-.11,.02-.21,.03-.32,.03s-.22,0-.33-.03m25.07-1.48c-.15-.98,.59-1.92,1.65-2.08,.54-.09,1.08,.03,1.5,.34h0l.06,.05h0c.3,.24,.42,.6,.49,1.11,.08,.51,.09,.89-.14,1.23-.01,.01-.02,.03-.04,.05-.31,.42-.78,.7-1.32,.79h0c-.11,.02-.22,.03-.33,.03-.93,0-1.75-.62-1.89-1.5m-10.79-2.19s.01,.04,.02,.06c.08,.16,.21,.29,.36,.37,.04,.02,.08,.04,.12,.05,.24,.08,.49,.04,.7-.09,0,.02,0,.04,0,.07,.03,.18,.11,.34,.23,.46,.03,.03,.06,.06,.1,.09,.21,.15,.46,.19,.69,.13,0,.02-.01,.04-.02,.06-.03,.18,0,.35,.08,.51,.02,.04,.04,.08,.07,.11,.15,.21,.38,.32,.61,.34-.01,.02-.02,.04-.03,.06-.08,.16-.11,.34-.08,.51,0,.04,.02,.09,.03,.13,.08,.24,.26,.42,.48,.51-.02,.01-.04,.03-.05,.04-.13,.13-.21,.29-.24,.46,0,.04-.01,.09-.01,.13,0,.25,.12,.48,.3,.63-.02,0-.04,.02-.06,.02-.16,.08-.29,.21-.37,.36-.02,.04-.04,.08-.05,.12-.08,.24-.04,.49,.09,.69-.02,0-.05,0-.07,0-.18,.03-.34,.11-.46,.23-.03,.03-.06,.07-.09,.1-.15,.21-.19,.46-.13,.69-.02,0-.04-.01-.06-.02-.18-.03-.35,0-.51,.08-.04,.02-.08,.04-.11,.07-.21,.15-.32,.38-.34,.61-.02-.01-.04-.02-.06-.03-.16-.08-.34-.11-.51-.08-.04,0-.09,.02-.13,.03-.24,.08-.42,.26-.51,.48-.01-.02-.03-.03-.04-.05-.13-.13-.29-.21-.46-.24-.04,0-.09-.01-.13-.01-.25,0-.48,.12-.63,.3,0-.02-.01-.04-.02-.06-.08-.16-.21-.29-.36-.37-.04-.02-.08-.04-.12-.05-.24-.08-.49-.04-.69,.09,0-.02,0-.04,0-.07-.03-.18-.11-.34-.23-.46-.03-.03-.06-.06-.1-.09-.21-.15-.46-.19-.69-.13,0-.02,.01-.04,.02-.06,.03-.18,0-.35-.08-.51-.02-.04-.04-.08-.07-.11-.15-.21-.38-.32-.61-.34,.01-.02,.03-.04,.04-.06,.08-.16,.11-.34,.08-.51,0-.04-.02-.09-.03-.13-.08-.24-.26-.42-.48-.51,.02-.01,.03-.03,.05-.04,.13-.13,.21-.29,.23-.46,0-.04,.01-.09,.01-.13,0-.25-.12-.48-.3-.63,.02,0,.04-.01,.06-.02,.16-.08,.29-.21,.37-.37,.02-.04,.04-.08,.05-.12,.08-.24,.04-.49-.09-.69,.02,0,.04,0,.07,0,.18-.03,.34-.11,.46-.23,.03-.03,.06-.07,.09-.1,.15-.2,.19-.46,.13-.69,.02,0,.04,.01,.06,.02,.18,.03,.36,0,.51-.08,.04-.02,.08-.04,.11-.07,.21-.15,.32-.38,.34-.61,.02,.01,.04,.02,.06,.04,.12,.06,.25,.09,.38,.09,.04,0,.09,0,.13-.01,.04,0,.09-.02,.13-.03,.24-.08,.42-.26,.51-.48,.01,.02,.03,.03,.04,.05,.13,.13,.29,.21,.46,.24,.04,0,.09,.01,.13,.01,.25,0,.48-.12,.63-.3m1.69,.8c-.13-.09-.21-.23-.23-.38-.02-.15,.01-.31,.1-.43,.19-.26,.55-.32,.81-.13,.03,.02,.05,.04,.07,.06,.09,.09,.14,.2,.16,.32,.03,.15-.01,.31-.1,.43-.09,.13-.23,.21-.38,.23-.03,0-.06,0-.09,0-.12,0-.24-.04-.34-.11m-5.09,.1c-.15-.02-.29-.11-.38-.23-.19-.26-.13-.62,.13-.81,.03-.02,.05-.03,.08-.05,.11-.06,.23-.07,.35-.06,.15,.02,.29,.11,.38,.23,.19,.26,.13,.63-.13,.81-.08,.06-.16,.09-.25,.1-.03,0-.06,0-.09,0s-.06,0-.09,0m10.65,.53l1.76-.89c.32-.16,.55-.45,.6-.76l.07-.41c.47,.5,1.16,.74,1.87,.66-.62,.36-1.04,.96-1.13,1.64l-.29-.28c-.22-.22-.58-.32-.93-.27-.02,0-.04,0-.06,.01l-1.89,.29s-.03,0-.04,0c.01,0,.02,0,.03-.01m-19.45-1.41c.48-.08,.92-.3,1.25-.65l.07,.4c.05,.31,.28,.6,.59,.76,.02,0,.04,.02,.06,.03l1.7,.87s.03,.01,.04,.02c-.01,0-.02,0-.03,0l-1.94-.32c-.35-.06-.71,.04-.93,.26l-.3,.29c-.09-.68-.51-1.28-1.12-1.64,.09,.01,.17,.01,.25,.01,.12,0,.25,0,.37-.03m5.45-.13c-.03-.21-.15-.4-.32-.56,.2,.11,.42,.16,.62,.13l.55-.08c-.1,.27-.09,.56,.03,.82-.29-.03-.57,.05-.8,.23l-.09-.54Zm12.54-.57c-.16,.16-.28,.35-.31,.55l-.09,.55c-.22-.18-.51-.26-.79-.23,.12-.26,.13-.56,.03-.83l.54,.08s.08,.01,.13,.01c.17,0,.35-.05,.51-.14m-5.2,.91c-.15-.05-.27-.15-.34-.29-.07-.14-.08-.3-.04-.44,.1-.3,.43-.47,.73-.37,.03,.01,.06,.02,.09,.03,.11,.06,.2,.14,.25,.25,.07,.14,.08,.3,.03,.45-.07,.22-.25,.36-.46,.4-.03,0-.06,0-.09,0-.06,0-.12,0-.18-.03m-2.89-.04c-.14-.07-.24-.19-.29-.34-.1-.31,.07-.64,.37-.73,.03-.01,.06-.02,.09-.02,.12-.02,.24,0,.35,.06,.14,.07,.24,.19,.29,.34,.1,.31-.07,.63-.37,.73-.03,0-.06,.02-.09,.02-.03,0-.06,0-.09,0-.09,0-.18-.02-.26-.06m5.35,.12c-.31-.31-.31-.81,0-1.12,.31-.31,.81-.31,1.12,0,.31,.31,.31,.81,0,1.12-.12,.12-.28,.2-.44,.22-.04,0-.08,0-.12,0-.2,0-.41-.08-.56-.23m-8.48,0c-.31-.31-.31-.81,0-1.12,.31-.31,.81-.31,1.12,0,.31,.31,.31,.81,0,1.12-.12,.12-.28,.2-.43,.22-.04,0-.08,0-.13,0-.2,0-.41-.08-.56-.23m11.87,.84l-.5-.25c-.16-.08-.24-.24-.21-.42l.09-.56c.03-.2,.2-.4,.42-.51l1.02-.52s-.02,.05-.02,.08l-.1,.56c-.03,.17,0,.32,.07,.46,.07,.13,.18,.25,.33,.32l.5,.25s.05,.02,.08,.03l-1.03,.52c-.09,.04-.18,.07-.26,.09-.04,0-.08,.01-.12,.01-.1,0-.19-.02-.27-.06m-14.81-.03l-1.02-.52s.05-.02,.07-.03l.5-.25c.15-.07,.26-.19,.33-.32,.07-.13,.09-.29,.07-.46l-.09-.56s-.01-.06-.02-.09l1.02,.53c.22,.12,.38,.31,.42,.51l.09,.56c.03,.18-.05,.34-.21,.42l-.5,.25s-.1,.04-.16,.05c-.03,0-.07,0-.11,0-.13,0-.26-.03-.39-.1m7.33-1.26c-.11-.11-.17-.26-.17-.41,0-.32,.26-.58,.58-.58,.03,0,.06,0,.09,0,.12,.02,.23,.07,.32,.16,.11,.11,.17,.26,.17,.41,0,.29-.21,.53-.49,.58-.03,0-.06,0-.09,0h0c-.15,0-.3-.06-.41-.17m9.24,.4l-.5-.25c-.16-.08-.24-.24-.21-.42l.09-.55c.03-.18,.17-.36,.36-.48l.06-.03c.23-.11,.48-.13,.66-.04l.5,.25c.08,.04,.14,.1,.18,.17,.04,.07,.05,.16,.03,.25l-.09,.55c-.03,.2-.19,.4-.42,.51-.09,.04-.18,.07-.26,.09-.04,0-.08,.01-.12,.01-.1,0-.19-.02-.27-.06m-18.26-.01l-.06-.03c-.22-.12-.38-.31-.42-.51l-.09-.56c-.02-.09,0-.17,.03-.24,.04-.07,.1-.13,.18-.17l.5-.25c.18-.09,.44-.07,.66,.04,.22,.12,.39,.31,.42,.51l.09,.56c.03,.18-.05,.34-.21,.42l-.5,.25s-.1,.04-.16,.05c-.03,0-.07,0-.11,0-.11,0-.22-.02-.33-.07m11.8-.9c-.39-.2-.54-.68-.35-1.06,.2-.39,.68-.54,1.06-.35,.39,.2,.54,.68,.35,1.06-.12,.23-.34,.38-.58,.42-.04,0-.08,.01-.12,.01-.12,0-.24-.03-.36-.09m-5.79-.35c-.2-.39-.04-.87,.35-1.06,.39-.2,.87-.04,1.06,.35,.2,.39,.04,.87-.35,1.06-.07,.04-.15,.06-.23,.08-.04,0-.08,.01-.12,.01-.29,0-.57-.16-.71-.43m-1.12-.81c.03-.21-.02-.43-.13-.63,.16,.17,.35,.28,.55,.32l.55,.09c-.18,.22-.26,.51-.23,.79-.26-.12-.56-.13-.83-.03l.08-.54Zm8.11-.23l.54-.09c.21-.03,.4-.15,.56-.32-.11,.2-.16,.42-.13,.62l.08,.55c-.27-.1-.56-.09-.82,.03,.03-.29-.05-.57-.23-.8m-5.29,.22c-.07-.43,.23-.84,.66-.91,.43-.07,.84,.23,.9,.66,.07,.43-.23,.84-.66,.91-.04,0-.08,.01-.12,.01-.38,0-.72-.28-.78-.67m2.53,.66c-.43-.07-.73-.47-.66-.91,.07-.43,.47-.73,.9-.66,.43,.07,.73,.47,.66,.91-.05,.35-.33,.61-.66,.66-.04,0-.08,.01-.12,.01s-.08,0-.12-.01m13.42-.46s0-.03,.01-.04v-.02s.02-.03,.02-.04c.17-.5,.56-.88,1.06-1.04,1.15-.38,1.64,.81,1.76,1.19,.15,.47,.17,.89,.06,1.24-.12,.37-.38,.62-.78,.76-.08,.03-.17,.05-.25,.06-.44,.07-.89-.04-1.25-.3h0l-.06-.05c-.48-.34-1.06-.49-1.66-.42,.52-.3,.91-.76,1.1-1.33m-30.61,2.04c-1.15-.37-.85-1.62-.73-1.99,.15-.47,.39-.82,.68-1.04,.31-.23,.68-.28,1.08-.15,.51,.17,.91,.57,1.07,1.07h0l.02,.08c.18,.56,.57,1.02,1.1,1.32-.6-.07-1.19,.08-1.67,.43l-.03,.02h-.02l-.04,.04c-.21,.15-.45,.24-.69,.28-.09,.01-.17,.02-.26,.02-.17,0-.35-.03-.52-.08m22.21-1.32l-.56-.09c-.18-.03-.3-.15-.33-.33l-.08-.56c-.03-.2,.06-.44,.24-.62l.81-.81s0,.05,0,.08l.08,.56c.03,.17,.1,.31,.2,.42,.11,.11,.25,.18,.41,.2l.56,.09s.06,0,.09,0l-.81,.81c-.13,.13-.29,.21-.45,.24-.03,0-.06,0-.09,0-.03,0-.06,0-.08,0m-12.32-.24l-.81-.81s.05,0,.08,0l.56-.08h0c.16-.03,.3-.1,.41-.2,.11-.11,.18-.25,.2-.41l.09-.56s0-.06,0-.09l.81,.82c.18,.18,.27,.42,.24,.62l-.09,.56c-.03,.18-.15,.3-.33,.33l-.56,.08s-.05,0-.08,0c-.18,0-.38-.09-.54-.25m3.94-1.79c.09-.19,.12-.42,.07-.64,.1,.21,.25,.37,.43,.47l.49,.26c-.24,.16-.4,.4-.46,.68-.21-.19-.5-.29-.78-.28l.25-.49Zm4.06,.08l.48-.25c.18-.1,.34-.27,.44-.48-.04,.22-.02,.45,.07,.63l.25,.5c-.28-.01-.56,.09-.77,.28-.06-.28-.23-.53-.47-.69m5.17,1.95l1.4-1.39c.25-.25,.38-.6,.34-.91l-.06-.41c.6,.33,1.34,.34,1.99,.05-.48,.53-.69,1.24-.56,1.91l-.36-.18c-.28-.14-.65-.13-.97,.03-.02,0-.04,.02-.05,.03l-1.71,.86s-.03,.01-.04,.02c0,0,.02-.01,.03-.02m-15.08-2.71l-.06,.4c-.05,.31,.08,.65,.33,.91,.02,.02,.03,.03,.05,.04l1.35,1.36s.02,.02,.03,.03c-.01,0-.02-.01-.03-.02l-1.75-.9c-.32-.17-.69-.18-.97-.04l-.37,.18c.13-.67-.09-1.38-.56-1.9,.31,.14,.63,.21,.96,.21,.36,0,.72-.09,1.03-.26m7.72,.61l.38-.39c.15-.15,.24-.36,.27-.59,.03,.23,.12,.43,.26,.58l.39,.4c-.27,.08-.51,.26-.65,.51-.14-.25-.38-.43-.66-.51m-12.22,2.44c-.49-.25-.85-.66-1.02-1.16h0l-.02-.08h0c-.11-.37,.02-.73,.25-1.19,.23-.46,.45-.77,.83-.91l.06-.02c.5-.16,1.05-.11,1.54,.14,.96,.49,1.37,1.61,.92,2.5-.26,.51-.75,.83-1.31,.92-.1,.02-.21,.02-.31,.02-.31,0-.64-.07-.94-.23m23.18-.72c-.45-.88-.03-2,.93-2.49,.49-.25,1.04-.3,1.54-.14h0l.07,.03h0c.36,.14,.58,.44,.81,.9,.23,.46,.36,.82,.25,1.21,0,.02-.01,.04-.02,.06-.17,.5-.53,.91-1.02,1.16-.2,.1-.41,.17-.62,.2-.11,.02-.21,.03-.32,.03-.68,0-1.32-.34-1.63-.95m-3.07-1.02l-.56-.09c-.18-.03-.3-.15-.33-.33l-.08-.56c-.03-.18,.05-.4,.2-.57l.04-.04c.18-.18,.42-.27,.62-.24l.56,.09c.09,.01,.17,.05,.22,.11,.06,.06,.09,.13,.11,.22l.08,.56c.03,.2-.06,.44-.24,.61-.13,.13-.29,.21-.44,.24-.03,0-.06,0-.09,0-.03,0-.05,0-.08,0m-15.06-.2l-.04-.04c-.18-.18-.27-.42-.24-.62l.09-.56c.01-.09,.05-.17,.11-.22,.06-.06,.13-.09,.22-.11l.56-.08c.2-.03,.44,.06,.61,.24,.18,.18,.27,.42,.24,.62l-.09,.56c-.03,.18-.15,.3-.33,.33h0l-.56,.08s-.05,0-.07,0c-.17,0-.34-.07-.49-.2m3.61-1.3c.07-.01,.14-.03,.21-.07,.13-.07,.25-.18,.32-.33l.25-.5s.02-.05,.03-.08l.52,1.03c.11,.23,.13,.48,.03,.66l-.25,.5c-.08,.16-.24,.24-.42,.21l-.55-.09c-.2-.03-.4-.2-.51-.42l-.52-1.02s.05,.02,.08,.02l.55,.09s.09,.01,.13,.01c.04,0,.08,0,.12,0m7.29,1.2l-.25-.5c-.09-.18-.07-.44,.04-.66l.52-1.02s.02,.05,.03,.07l.25,.5c.07,.15,.19,.26,.32,.33,.13,.07,.29,.09,.45,.07l.56-.09s.06-.01,.09-.02l-.53,1.02c-.12,.22-.31,.38-.51,.42l-.56,.09h0s-.05,0-.07,0c-.15,0-.27-.08-.34-.22m-4.46-2.12c.15-.02,.29-.1,.41-.21l.4-.4s.04-.04,.06-.07l.17,1.14c.04,.25-.03,.5-.17,.64l-.4,.4c-.06,.06-.14,.1-.22,.12-.08,.01-.16,0-.25-.04l-.5-.26c-.18-.09-.32-.31-.36-.56l-.17-1.13s.04,.03,.07,.04l.5,.26c.11,.06,.23,.09,.35,.09,.04,0,.07,0,.11,0m2.28,1.49l-.39-.4c-.14-.15-.21-.39-.17-.64l.18-1.13s.03,.04,.05,.06l.39,.4c.12,.12,.26,.19,.41,.22,.15,.02,.31,0,.45-.08l.5-.26s.05-.03,.08-.05l-.18,1.14c-.04,.25-.18,.46-.36,.56l-.5,.26s-.09,.04-.13,.04c-.02,0-.04,0-.06,0-.1,0-.2-.04-.28-.12m3.08-1.13l-.25-.5c-.08-.17-.08-.39,.01-.6l.03-.06c.12-.22,.31-.38,.51-.42l.56-.09c.09-.02,.17,0,.24,.03,.07,.04,.13,.1,.17,.18l.25,.5c.09,.18,.07,.43-.04,.66-.12,.22-.31,.38-.51,.42l-.56,.09h0s-.05,0-.07,0c-.15,0-.28-.08-.35-.22m-8.38,.22l-.55-.09c-.18-.03-.36-.17-.48-.36l-.03-.06c-.11-.22-.13-.48-.04-.66l.25-.5c.04-.08,.1-.14,.17-.18,.07-.04,.15-.05,.24-.03l.55,.09c.2,.03,.4,.2,.51,.42,.11,.23,.13,.48,.04,.66l-.25,.5c-.06,.12-.16,.19-.28,.21-.02,0-.04,0-.06,0-.02,0-.05,0-.07,0m-3.13-2.25c.53,.48,1.24,.69,1.91,.56l-.18,.36c-.14,.28-.13,.65,.03,.97,0,.02,.02,.04,.03,.05l.86,1.7s.01,.02,.02,.04c0,0-.02-.02-.02-.03l-1.39-1.4c-.25-.25-.6-.38-.91-.34l-.41,.06c.33-.6,.34-1.34,.05-1.98m13.88,.57c.43-.07,.84-.27,1.18-.57-.29,.65-.28,1.39,.05,1.99l-.4-.06c-.31-.05-.65,.08-.91,.33-.01,.01-.03,.03-.04,.05l-1.36,1.35s-.02,.02-.03,.03c0-.01,.01-.02,.02-.03l.9-1.75c.16-.32,.18-.69,.04-.97l-.18-.37c.13,.02,.26,.04,.39,.04,.11,0,.22,0,.33-.03m-5.14,.64l-.39-.4c-.13-.13-.19-.35-.17-.58v-.06c.05-.25,.19-.46,.37-.56l.5-.26c.08-.04,.16-.06,.24-.04,.08,.01,.15,.05,.22,.12l.39,.4c.14,.14,.21,.39,.17,.64-.04,.25-.18,.46-.36,.56l-.5,.26s-.08,.04-.13,.04c-.02,0-.04,0-.06,0-.1,0-.2-.04-.28-.12m-2.89,.07l-.5-.26c-.17-.09-.29-.27-.34-.49v-.06c-.05-.25,.02-.5,.16-.64l.4-.4c.06-.06,.14-.1,.22-.12,.08-.01,.16,0,.24,.04l.5,.26c.18,.1,.32,.31,.36,.56,.04,.25-.03,.5-.17,.64l-.4,.4c-.06,.06-.14,.1-.22,.12-.02,0-.04,0-.06,0-.06,0-.13-.02-.19-.05m13.49-.65s0-.03,0-.04v-.07c.01-.53,.26-1.01,.69-1.32,.98-.71,1.81,.27,2.04,.59,.29,.39,.44,.8,.44,1.16,0,.39-.17,.71-.51,.96-.43,.32-.99,.4-1.5,.24h0l-.07-.03c-.56-.18-1.16-.14-1.71,.11,.41-.44,.63-1.01,.63-1.6m-26.28,1.28c-.98-.71-.3-1.8-.07-2.12,.29-.4,.62-.67,.97-.78,.37-.12,.73-.06,1.07,.19,.43,.31,.69,.82,.69,1.35h0v.08c0,.59,.23,1.15,.63,1.6-.55-.25-1.15-.29-1.72-.11h-.04l-.02,.02s-.03,0-.05,.01c-.07,.02-.15,.04-.22,.05-.09,.01-.18,.02-.26,.02-.35,0-.69-.11-.98-.32m3.62,.15c-.39-.39-.6-.9-.61-1.42h0v-.08h0c.02-.39,.24-.69,.6-1.05,.36-.37,.67-.59,1.07-.61h.02s.03,0,.04,0c.53,0,1.03,.22,1.42,.61,.76,.76,.81,1.96,.11,2.66-.33,.33-.77,.49-1.23,.49-.51,0-1.03-.2-1.43-.61m20.56-3.16h.07c.39,.02,.69,.24,1.05,.6,.37,.36,.59,.67,.61,1.08v.06c0,.53-.22,1.03-.61,1.42-.32,.32-.72,.52-1.13,.58-.56,.09-1.13-.07-1.53-.47-.7-.7-.65-1.89,.11-2.66,.39-.39,.9-.6,1.42-.61h0m-12.29,3.57l-.89-1.76c-.16-.32-.45-.55-.76-.6l-.41-.07c.5-.47,.74-1.17,.66-1.87,.36,.62,.96,1.04,1.64,1.12l-.28,.29c-.22,.22-.32,.58-.27,.93,0,.02,.01,.04,.01,.06l.29,1.89s0,.03,0,.04c0,0,0-.02-.01-.03m5.12,0l.31-1.95c.06-.35-.04-.71-.26-.93l-.29-.3s.04,0,.06,0c.65-.1,1.23-.52,1.57-1.11-.07,.71,.17,1.41,.67,1.87l-.4,.07c-.3,.05-.6,.28-.76,.6-.01,.02-.02,.04-.03,.06l-.87,1.7s-.01,.03-.02,.04c0-.01,0-.02,0-.03m-2.56-.4l-.3-1.95c-.05-.35-.26-.66-.53-.81l-.37-.19c.62-.29,1.06-.88,1.21-1.57,.15,.7,.59,1.29,1.21,1.58l-.36,.18c-.28,.14-.48,.45-.54,.8,0,.02,0,.04,0,.06l-.31,1.89s0,.03,0,.04v-.03m-7.75-2.94c-.25-.49-.3-1.04-.14-1.54h0l.02-.07h0c.13-.37,.44-.58,.9-.82,.46-.23,.82-.36,1.21-.25,.02,0,.04,.01,.06,.02,.5,.17,.91,.53,1.16,1.02,.49,.96,.17,2.11-.72,2.56-.24,.12-.5,.18-.76,.18-.69,0-1.38-.41-1.73-1.11m13.52-2.68h0c.37-.11,.73,.02,1.18,.25,.46,.23,.77,.45,.91,.83,0,0,0,.02,.01,.03h0v.03c.17,.5,.12,1.05-.13,1.54-.49,.96-1.61,1.38-2.5,.92-.88-.45-1.2-1.6-.72-2.56,.25-.49,.66-.85,1.16-1.02h.01l.07-.02Zm2.46,1.01s0-.03-.01-.04v-.02s-.01-.03-.02-.05c-.15-.51-.06-1.04,.25-1.46,.71-.98,1.8-.3,2.12-.07,.4,.29,.67,.62,.78,.97,.12,.37,.06,.73-.19,1.07-.31,.43-.82,.69-1.36,.69h-.08c-.59,0-1.15,.23-1.59,.63,.25-.55,.29-1.15,.11-1.72m-18.06,1.09c-.53-.01-1.01-.26-1.31-.69-.71-.98,.27-1.81,.58-2.04,.39-.29,.8-.44,1.16-.44,.39,0,.71,.17,.96,.51,.32,.43,.4,1,.24,1.5h0l-.02,.08c-.18,.56-.14,1.16,.11,1.71-.44-.41-1-.63-1.6-.63h-.06s-.03,0-.05,0m6.33-2.83h0c.24-.31,.6-.42,1.1-.5,.51-.08,.89-.09,1.23,.14,.01,.01,.03,.02,.05,.04,.43,.31,.71,.78,.79,1.33,.17,1.07-.5,2.06-1.48,2.22-.98,.15-1.92-.59-2.08-1.65-.09-.55,.04-1.08,.34-1.51h0l.04-.06Zm4.7-.37h0c.32-.22,.7-.21,1.2-.13,.51,.08,.87,.19,1.12,.51,.01,.01,.02,.03,.04,.05,.31,.43,.43,.96,.34,1.51-.17,1.06-1.11,1.8-2.09,1.65-.98-.16-1.64-1.15-1.47-2.22,.09-.54,.37-1.02,.79-1.33h0l.06-.05Zm2.65,.21l-.02-.03v-.02s-.03-.03-.04-.04c-.3-.43-.38-.97-.22-1.47,.37-1.15,1.62-.85,1.99-.73,.46,.15,.83,.38,1.04,.68,.23,.31,.28,.68,.15,1.08-.17,.51-.57,.91-1.08,1.07h0l-.07,.02c-.56,.18-1.02,.57-1.32,1.1,.07-.6-.08-1.19-.43-1.67m-9.44,.57h-.04l-.02-.02s-.03-.01-.04-.02c-.5-.17-.88-.56-1.04-1.06-.37-1.15,.81-1.64,1.19-1.76,.46-.15,.89-.17,1.24-.06,.37,.12,.63,.38,.76,.78,.17,.51,.07,1.07-.24,1.5h0l-.04,.07c-.35,.48-.49,1.06-.43,1.66-.3-.52-.76-.91-1.33-1.1m4.67-1.03l-.03-.02h-.02s-.02-.03-.04-.04c-.42-.32-.66-.8-.66-1.33,0-1.21,1.28-1.31,1.67-1.31,.49,0,.9,.11,1.2,.32,.32,.23,.48,.56,.48,.98,0,.53-.26,1.04-.69,1.36h0l-.06,.05c-.48,.35-.8,.86-.92,1.45-.12-.59-.44-1.1-.93-1.46m.93-3.06c-.17,0-.33,.01-.49,.03h-.03c-.95,.16-1.52,.75-1.52,1.63,0,.4,.12,.79,.33,1.11-.26-.02-.51,.01-.75,.05-.24,.04-.49,.09-.73,.18,.1-.38,.1-.78-.03-1.16-.17-.51-.51-.86-.99-1.02-.42-.13-.92-.11-1.46,.06-1.19,.39-1.74,1.24-1.42,2.22,.13,.38,.36,.71,.66,.95-.25,.06-.49,.17-.7,.28-.21,.11-.44,.23-.63,.4-.02-.39-.15-.78-.39-1.1-.32-.44-.75-.66-1.26-.66-.44,0-.91,.18-1.37,.51-1.02,.74-1.27,1.72-.66,2.55,.24,.33,.56,.57,.92,.7-.22,.14-.41,.31-.58,.48-.17,.17-.35,.36-.48,.58-.14-.37-.38-.69-.71-.93-.44-.32-.92-.4-1.4-.24-.42,.14-.81,.45-1.15,.91-.74,1.02-.68,2.02,.16,2.63,.33,.24,.7,.37,1.09,.39-.17,.2-.29,.42-.4,.64-.11,.21-.22,.45-.28,.7-.25-.31-.58-.54-.96-.66-.51-.17-1-.1-1.41,.2-.36,.26-.63,.68-.81,1.22-.39,1.19-.02,2.14,.96,2.45,.38,.12,.78,.13,1.16,.03-.1,.24-.15,.49-.19,.73-.04,.24-.07,.49-.05,.75-.33-.22-.72-.33-1.12-.33-.54,0-.98,.22-1.27,.63-.26,.36-.39,.85-.39,1.41,0,1.26,.64,2.04,1.67,2.03,.4,0,.79-.12,1.11-.33-.02,.26,.01,.52,.05,.75,.04,.24,.09,.49,.18,.73-.38-.1-.78-.1-1.16,.03-.51,.17-.86,.51-1.02,.99-.13,.42-.11,.92,.06,1.46,.39,1.19,1.24,1.74,2.22,1.42,.38-.13,.71-.36,.95-.66,.06,.25,.17,.49,.28,.7,.11,.21,.23,.44,.4,.63-.39,.02-.78,.15-1.1,.39-.44,.32-.66,.75-.66,1.26,0,.44,.18,.91,.51,1.37,.74,1.02,1.72,1.27,2.55,.67,.33-.24,.57-.56,.7-.92,.14,.22,.31,.41,.48,.58,.17,.17,.36,.34,.58,.48-.37,.14-.69,.38-.93,.71-.32,.44-.4,.92-.24,1.4,.14,.42,.45,.81,.91,1.15,1.02,.74,2.02,.68,2.63-.15,.24-.33,.37-.7,.38-1.09,.2,.17,.42,.29,.64,.4,.21,.11,.45,.22,.7,.28-.3,.25-.54,.58-.66,.96-.17,.51-.1,1,.2,1.41,.26,.36,.68,.63,1.22,.81,1.19,.39,2.13,.02,2.45-.96,.12-.38,.13-.78,.03-1.16,.24,.1,.49,.15,.73,.19,.24,.04,.49,.07,.75,.05-.21,.33-.33,.71-.33,1.11,0,.54,.22,.98,.63,1.27,.36,.26,.84,.39,1.4,.39h0c1.26,0,2.04-.64,2.03-1.67,0-.4-.12-.79-.33-1.11,.26,.02,.51-.01,.75-.05,.24-.04,.49-.09,.73-.18-.1,.38-.1,.78,.03,1.16,.17,.51,.51,.86,.99,1.02,.42,.13,.92,.11,1.46-.06,1.19-.39,1.74-1.24,1.42-2.22-.13-.38-.36-.71-.66-.95,.25-.06,.49-.17,.7-.28,.21-.11,.44-.23,.63-.4,.02,.39,.15,.78,.39,1.1,.32,.44,.75,.66,1.26,.66,.44,0,.91-.18,1.37-.51,1.02-.74,1.27-1.72,.66-2.55-.24-.33-.56-.57-.92-.71,.22-.13,.41-.31,.58-.48,.17-.17,.35-.36,.48-.58,.14,.37,.38,.69,.71,.93,.44,.32,.92,.4,1.4,.24,.42-.14,.81-.45,1.15-.91,.74-1.02,.68-2.02-.16-2.63-.33-.24-.7-.37-1.09-.38,.17-.2,.29-.42,.4-.64,.11-.21,.22-.45,.28-.7,.25,.31,.58,.54,.96,.66,.51,.17,1,.1,1.41-.2,.36-.26,.63-.68,.81-1.22,.39-1.2,.02-2.14-.96-2.45-.38-.12-.78-.13-1.16-.03,.1-.24,.15-.49,.19-.73,.04-.24,.07-.49,.05-.75,.33,.22,.72,.33,1.12,.33,.54,0,.98-.22,1.27-.63,.26-.36,.39-.85,.39-1.41,0-.17-.01-.33-.04-.49v-.03c-.16-.95-.75-1.52-1.63-1.52-.4,0-.79,.12-1.11,.33,.02-.26-.01-.52-.05-.75-.04-.24-.09-.49-.18-.73,.38,.1,.78,.1,1.16-.03,.51-.17,.86-.51,1.02-.99,.13-.42,.11-.92-.06-1.46-.39-1.19-1.24-1.74-2.22-1.42-.38,.13-.71,.36-.95,.66-.06-.25-.17-.49-.28-.7-.11-.21-.23-.44-.4-.63,.39-.02,.78-.15,1.1-.39,.44-.32,.66-.75,.66-1.26,0-.44-.18-.91-.51-1.37-.74-1.02-1.72-1.27-2.55-.66-.33,.24-.57,.56-.7,.92-.14-.22-.31-.41-.48-.58-.17-.17-.36-.34-.58-.48,.37-.14,.69-.38,.93-.71,.32-.44,.4-.92,.24-1.4-.14-.42-.45-.81-.91-1.15-1.02-.74-2.02-.68-2.63,.16-.24,.33-.37,.71-.38,1.09-.2-.17-.42-.29-.64-.4-.21-.11-.45-.22-.7-.28,.31-.25,.54-.58,.66-.96,.17-.51,.09-1-.2-1.41-.26-.35-.68-.63-1.22-.81-1.19-.39-2.14-.02-2.45,.96-.12,.38-.13,.78-.03,1.16-.24-.1-.49-.15-.73-.19-.24-.04-.49-.07-.75-.05,.21-.33,.33-.72,.33-1.12,0-.54-.22-.98-.63-1.27-.36-.26-.84-.39-1.41-.39h0Z" style="fill:#c29e50;"/></svg>