<?xml version="1.0" encoding="UTF-8"?><svg id="a" xmlns="http://www.w3.org/2000/svg" viewBox="0 0 85 65"><path d="M38.2,13.97c-.07-.56-.12-1.06-.19-1.62,.6,.13,1.13,.24,1.67,.35,.89,.19,1.77,.4,2.67,.56,1.41,7.2,4.03,13.9,8.03,20.04,3.25,4.97,7.3,9.14,12.51,12.09,2.09,1.18,4.24,2.27,6.62,2.7,1.59,.28,3.21,.35,4.82,.5,.58,.05,1.16,.05,1.74,.1,.11,0,.28,.16,.28,.24,.02,1.23,.01,2.46,.01,3.73-22.59-.93-45.14-.65-67.75-.4,.05-.15,.08-.26,.13-.37,3.55-7.59,7.67-14.83,12.88-21.41,2.22-2.81,4.65-5.43,7.55-7.55,.86-.63,1.78-1.17,2.68-1.72,.22-.14,.32-.27,.31-.53-.02-.37,.01-.74,0-1.11-.02-.3,.07-.5,.38-.56,.49-.1,.7-.38,.6-.87-.11-.57,.13-.86,.66-1.07,.87-.35,1.7-.79,2.55-1.17,.23-.1,.33-.23,.31-.48-.02-.37,0-.74,0-1.11,0-.24,.09-.33,.32-.32,.39,.01,.78,0,1.22,0m-2.64,6.85c-.24,.06-.44,.09-.62,.15-1.63,.52-3.13,1.33-4.53,2.31-2.88,2.01-5.3,4.53-7.5,7.24-5.07,6.24-9.06,13.15-12.57,20.36-.04,.09-.06,.2-.1,.33,.21,.02,.3,.04,.46,0,1.88-.42,3.83-.17,5.75-.05,.44,.03,.72-.09,1-.4,2.88-3.14,6.06-5.92,9.8-8.01,2.46-1.38,5.06-2.35,7.92-2.48,.33-.01,.3-.21,.3-.43,.01-2.44,.02-4.87,.03-7.31,.02-3.05,.04-6.09,.06-9.14,0-.83,0-1.67,0-2.56m3.48-3.24s-.06,0-.08,0v.57c0,7.05,0,14.09-.01,21.14,3.85,5.06,8.93,8.6,15.14,10.75,1.81,.63,3.72,.97,5.63,1.06,4.88,.22,9.77,.32,14.65,.47,.31,0,.61,0,.98,0,0-.44-.02-.86,0-1.28,.02-.37-.07-.51-.48-.51-2.22-.02-4.42-.3-6.55-.89-4.39-1.2-8.33-3.31-11.9-6.13-4.74-3.74-8.56-8.29-11.77-13.37-2.31-3.65-4.32-7.46-5.53-11.63-.02-.06-.05-.12-.08-.18M18.55,50.95c.03,.06,.07,.12,.1,.17,.15,0,.3,0,.45,0,1.03,0,2.07-.03,3.1-.03,4.4-.03,8.81-.06,13.21-.07,0-3.25,.03-6.51,.05-9.76-2.33,.07-4.48,.75-6.53,1.76-3.17,1.56-5.92,3.71-8.48,6.13-.63,.6-1.27,1.21-1.9,1.81m20.47-9.89c-.04,.09-.05,.1-.05,.12,0,3.17,0,6.35-.02,9.52,0,.26,.13,.3,.34,.3,4.82,.02,9.64,.05,14.45,.07,.04,0,.08-.02,.22-.07-5.99-1.88-10.9-5.23-14.95-9.94m12.07-4.75s.06-.05,.09-.07c-.08-.11-.16-.23-.24-.35-1.89-2.58-3.5-5.32-4.88-8.2-1.24-2.58-2.27-5.25-3.14-7.98-.05-.16-.15-.41-.27-.44-.66-.14-1.33-.22-2.12-.34,2.51,6.51,6.08,12.21,10.56,17.37m-14.11-19.54c-.36,.09-.37,.09-.37,.41,0,.5-.01,.99-.02,1.49-.03,4.49-.05,8.98-.07,13.48-.03,6.13-.06,12.27-.09,18.4,0,.5,.05,.53,.55,.39V16.77Zm.95-1.88c-.12,.12-.23,.17-.23,.21-.07,.61-.19,1.21-.19,1.82-.01,11.2,0,22.39,0,33.59v.45c.48,.14,.43-.17,.43-.42v-13.61c0-7.13,0-14.26,0-21.39,0-.18,.02-.38,0-.65m-2.42,4.02c-.65,.25-1.05,.3-1.69,.56-.88,.3-.73,.53-.53,.99,.57-.19,1.15-.4,1.72-.57,.63-.19,.65-.22,.49-.97m3.97-4.51s-.09,.03-.13,.05c.23,.93,.45,1.85,.68,2.78,.04,0,.08,0,.12,0,.12-.33,.24-.66,.35-.99,.03-.1,.04-.24-.01-.32-.32-.51-.67-1-1.01-1.5m.17-.67c.41,.6,.74,1.09,1.14,1.69,.17-.52,.3-.91,.45-1.35-.54-.11-1-.21-1.59-.33m2.35,4.38c-.38-.56-.69-1.02-1.07-1.57-.17,.5-.3,.9-.46,1.34,.52,.08,.96,.14,1.52,.23m-.38-3.23s-.06-.01-.09-.02c-.08,.22-.18,.44-.24,.67-.05,.17-.12,.4-.05,.52,.28,.48,.62,.94,.93,1.4,.02-.01,.05-.02,.07-.03-.21-.84-.41-1.69-.62-2.53m-7.42,3.32c1.07-.17,1.41-.06,1.32-.84-.68,.15-1.49,.09-1.32,.84" style="fill:#be9952;"/></svg>