<?xml version="1.0" encoding="UTF-8"?><svg id="a" xmlns="http://www.w3.org/2000/svg" viewBox="0 0 85 65"><path d="M42.76,44.18h18.1c.19,0,.38,0,.57,.02,.31,.04,.49,.23,.51,.53,.02,.3-.13,.53-.42,.61-.19,.05-.4,.07-.61,.07-12.13,0-24.26,0-36.39,0-.7,0-1.03-.22-1.02-.65,.01-.41,.31-.58,1.02-.58h18.24" style="fill:#be9952;"/><path d="M64.94,25.01c-.62-.46-1.33-.73-2.07-.9-1.72-.4-3.46-.43-5.2-.16-2.49,.39-4.92,1.08-7.38,1.64q-2.83,.64-5.52-.42c-4.37-1.73-8.71-3.54-12.99-5.47-.22-.1-.43-.13-.66-.07-.81,.2-1.62,.4-2.43,.59-.38,.09-.75,.21-.82,.67-.08,.46,.23,.69,.55,.91,1.2,.8,2.39,1.6,3.58,2.42,1.91,1.3,3.82,2.6,5.73,3.92,.11,.08,.32,.12,.26,.31-.04,.14-.22,.13-.34,.16-1,.24-2,.44-2.99,.71-.65,.18-1.3,.2-1.97,.13-.79-.08-1.58-.16-2.38-.22-.5-.04-.95-.19-1.37-.47-1.75-1.17-3.56-2.25-5.26-3.49-1.12-.82-2.18-1.11-3.51-.6-.94,.36-1.15,.63-.69,1.52,.92,1.79,1.83,3.58,2.77,5.36,.2,.39,.26,.6-.19,.89-.96,.62-.96,1.77-.06,2.48,.44,.35,.96,.52,1.52,.59,2.36,.31,4.73,.16,7.42,.23,1.44,0,3.21-.01,4.97,0,.77,0,1.51-.07,2.25-.25,.98-.24,1.96-.45,2.94-.67,6.69-1.52,13.4-2.95,20.05-4.65,1.71-.44,3.12-1.37,4.17-2.78,.67-.91,.53-1.67-.38-2.36m-1.36,2.14c-.86,.81-1.85,1.35-3.01,1.64-7.71,1.93-15.47,3.58-23.21,5.35-.32,.07-.63,.11-.96,.11-3.54-.01-7.09-.03-10.63-.05-.78,0-1.55-.06-2.32-.23-.19-.04-.48-.06-.47-.32,.01-.22,.29-.18,.47-.23,.93-.22,1.12-.6,.68-1.47-.93-1.82-1.88-3.64-2.81-5.46-.08-.16-.34-.36-.1-.54,.19-.13,.45-.22,.7-.07,.15,.08,.29,.18,.43,.27,2.06,1.35,4.13,2.69,6.18,4.05,.36,.24,.73,.37,1.16,.4,.95,.07,1.89,.18,2.83,.27,.8,.09,1.58,.07,2.37-.13,1.54-.4,3.1-.74,4.65-1.11,.47-.11,1.04-.12,1.16-.74,.12-.63-.44-.83-.83-1.1-2.92-2-5.86-4-8.78-6-.18-.13-.4-.21-.52-.46,.53-.31,.97-.16,1.44,.05,4.62,2.02,9.24,4.04,13.98,5.77,1.05,.38,2.04,.49,3.15,.21,2.87-.7,5.73-1.47,8.65-1.96,1.86-.31,3.71-.28,5.5,.36,1.1,.39,1.13,.57,.28,1.37" style="fill:#be9952;"/></svg>