<?xml version="1.0" encoding="UTF-8"?>
<svg id="Layer_1" data-name="Layer 1" xmlns="http://www.w3.org/2000/svg" xmlns:xlink="http://www.w3.org/1999/xlink" viewBox="0 0 750 350">
  <defs>
    <style>
      .cls-1 {
        filter: url(#drop-shadow-1);
      }

      .cls-2 {
        fill: #b0914c;
      }
    </style>
    <filter id="drop-shadow-1" filterUnits="userSpaceOnUse">
      <feOffset dx="11.18" dy="11.18"/>
      <feGaussianBlur result="blur" stdDeviation="7.99"/>
      <feFlood flood-color="#000" flood-opacity=".75"/>
      <feComposite in2="blur" operator="in"/>
      <feComposite in="SourceGraphic"/>
    </filter>
  </defs>
  <g class="cls-1">
    <g>
      <path class="cls-2" d="m121.43,115.29l-13.26-13.26,13.78-13.78,11.01,11,9.17-8.29-20.3-20.3-24.7,24.71-24.74-24.74v80.25h98.99v-80.29l-49.96,44.7Zm-38.79-5.45v-16.51l8.42,8.1.47.48-8.89,8.89v-.95Zm34.01,30.03h-10.61v-10.87h-12.42v10.87h-10.87v-13.46l16.95-15.91,16.95,15.91v13.46Zm44.4,0h-10.63v-10.87h-12.42v10.87h-10.87v-13.46l16.95-15.91,16.97,15.91v13.46Zm0-29.37l-8.9-8.89,8.9-8.57v17.46Z"/>
      <path class="cls-2" d="m270.97,72.11v79.42h-5v-67.69c0-.97.06-2,.17-3.09l-31.26,55.51c-.52.97-1.27,1.46-2.24,1.46h-.9c-.97,0-1.72-.48-2.25-1.46l-32.11-55.62c.11,1.12.17,2.19.17,3.2v67.69h-5.05v-79.42h3.99c.52,0,.93.06,1.23.17.3.11.6.41.9.9l32.05,55.23c.56,1.05,1.05,2.17,1.46,3.37.22-.6.47-1.19.73-1.77.26-.58.54-1.13.84-1.66l31.15-55.17c.3-.48.61-.79.93-.9.32-.11.74-.17,1.26-.17h3.93Z"/>
      <path class="cls-2" d="m354.82,151.53h-4.43c-.53,0-.95-.14-1.29-.42-.34-.28-.6-.65-.79-1.09l-9.32-23.07h-39.01l-9.32,23.07c-.15.41-.41.77-.79,1.07-.37.3-.82.45-1.35.45h-4.38l32.5-79.42h5.67l32.5,79.42Zm-17.57-28.85l-16.17-40.13c-.56-1.31-1.1-2.88-1.63-4.71-.22.9-.47,1.75-.73,2.55-.26.8-.54,1.54-.84,2.22l-16.16,40.08h35.53Z"/>
      <path class="cls-2" d="m422.79,151.53h-4.94c-.64,0-1.17-.1-1.6-.31-.43-.2-.83-.59-1.21-1.15l-25.48-32.22c-.3-.41-.61-.77-.93-1.07-.32-.3-.67-.53-1.07-.7-.39-.17-.86-.29-1.4-.36-.54-.07-1.21-.11-1.99-.11h-10.38v35.92h-5.78v-79.42h20.32c9.13,0,15.97,1.77,20.51,5.3,4.55,3.54,6.82,8.73,6.82,15.58,0,3.03-.53,5.8-1.57,8.31-1.05,2.51-2.55,4.71-4.52,6.59-1.96,1.89-4.34,3.43-7.13,4.63-2.79,1.2-5.92,2-9.4,2.41.9.56,1.7,1.31,2.41,2.24l27.34,34.35Zm-35.25-40.19c3.52,0,6.67-.42,9.46-1.26,2.79-.84,5.14-2.05,7.07-3.62,1.93-1.57,3.4-3.46,4.41-5.67,1.01-2.21,1.52-4.7,1.52-7.47,0-5.65-1.84-9.84-5.53-12.57-3.68-2.73-9.06-4.1-16.14-4.1h-14.54v34.69h13.75Z"/>
      <path class="cls-2" d="m509.56,169.05h-4.83c-1.46,0-2.66-.47-3.59-1.4l-16.95-18.3c-2.36.97-4.85,1.72-7.47,2.25-2.62.52-5.39.79-8.31.79-5.61,0-10.74-.96-15.38-2.89-4.64-1.93-8.63-4.66-11.96-8.2-3.33-3.54-5.91-7.8-7.75-12.8-1.83-5-2.75-10.56-2.75-16.7s.92-11.65,2.75-16.64c1.83-5,4.41-9.26,7.75-12.8,3.33-3.53,7.31-6.28,11.96-8.22,4.64-1.95,9.76-2.92,15.38-2.92s10.75.96,15.41,2.89c4.66,1.93,8.65,4.67,11.98,8.22,3.33,3.56,5.91,7.83,7.75,12.83,1.83,4.99,2.75,10.54,2.75,16.64,0,4-.4,7.77-1.21,11.31-.81,3.54-1.96,6.79-3.45,9.77-1.5,2.97-3.32,5.64-5.47,8-2.15,2.36-4.57,4.38-7.27,6.06l20.66,22.12Zm-73.13-57.25c0,5.58.78,10.56,2.33,14.96,1.55,4.4,3.74,8.13,6.57,11.2,2.82,3.07,6.2,5.41,10.13,7.02,3.93,1.61,8.25,2.41,12.96,2.41s9.09-.8,13.02-2.41c3.93-1.61,7.3-3.95,10.1-7.02,2.81-3.07,4.98-6.8,6.51-11.2,1.53-4.4,2.3-9.38,2.3-14.96s-.77-10.51-2.3-14.93c-1.53-4.41-3.7-8.16-6.51-11.23-2.81-3.07-6.17-5.42-10.1-7.05-3.93-1.63-8.27-2.44-13.02-2.44s-9.04.81-12.96,2.44c-3.93,1.63-7.31,3.98-10.13,7.05-2.83,3.07-5.01,6.81-6.57,11.23-1.55,4.42-2.33,9.39-2.33,14.93"/>
      <path class="cls-2" d="m553.68,147.44c3.82,0,7.23-.66,10.24-1.99,3.01-1.33,5.57-3.17,7.66-5.53,2.1-2.36,3.7-5.13,4.8-8.33,1.1-3.2,1.66-6.65,1.66-10.36v-49.11h5.73v49.11c0,4.38-.69,8.47-2.08,12.26-1.38,3.8-3.38,7.11-5.98,9.93-2.6,2.83-5.76,5.04-9.48,6.65-3.72,1.61-7.91,2.42-12.54,2.42s-8.82-.81-12.55-2.42c-3.72-1.61-6.88-3.82-9.49-6.65-2.6-2.82-4.59-6.13-5.98-9.93-1.39-3.8-2.08-7.89-2.08-12.26v-49.11h5.78v49.06c0,3.7.55,7.16,1.66,10.36,1.1,3.2,2.69,5.98,4.77,8.34,2.08,2.36,4.62,4.21,7.63,5.56,3.01,1.35,6.43,2.02,10.24,2.02"/>
      <rect class="cls-2" x="606.21" y="72.11" width="5.78" height="79.42"/>
      <path class="cls-2" d="m674.01,81.77c-.34.64-.82.96-1.46.96-.49,0-1.11-.35-1.88-1.04-.77-.69-1.81-1.46-3.12-2.3-1.31-.84-2.95-1.62-4.91-2.33-1.96-.71-4.39-1.07-7.27-1.07s-5.42.41-7.6,1.23c-2.19.82-4.02,1.95-5.5,3.37-1.48,1.42-2.6,3.07-3.37,4.94-.77,1.87-1.15,3.84-1.15,5.89,0,2.69.57,4.92,1.71,6.68,1.14,1.76,2.65,3.26,4.52,4.49,1.87,1.23,3.99,2.27,6.37,3.12,2.37.84,4.82,1.68,7.32,2.5,2.51.82,4.95,1.73,7.32,2.72,2.37.99,4.5,2.23,6.37,3.73,1.87,1.5,3.38,3.34,4.52,5.53,1.14,2.19,1.71,4.91,1.71,8.17s-.57,6.47-1.71,9.4c-1.14,2.94-2.8,5.49-4.97,7.66-2.17,2.17-4.83,3.88-7.97,5.14-3.14,1.25-6.74,1.88-10.78,1.88-5.24,0-9.75-.93-13.53-2.78-3.78-1.85-7.09-4.39-9.93-7.61l1.57-2.47c.45-.56.97-.84,1.57-.84.34,0,.77.23,1.29.67.52.45,1.16,1,1.91,1.66.75.65,1.65,1.37,2.69,2.13,1.05.77,2.26,1.48,3.65,2.13,1.38.65,2.97,1.21,4.77,1.65,1.8.45,3.84.67,6.12.67,3.14,0,5.95-.48,8.42-1.43,2.47-.95,4.55-2.25,6.26-3.9,1.7-1.65,3-3.6,3.9-5.87.9-2.26,1.35-4.69,1.35-7.27,0-2.81-.57-5.12-1.71-6.93-1.14-1.81-2.65-3.33-4.52-4.55-1.87-1.21-4-2.23-6.37-3.06-2.38-.82-4.82-1.63-7.33-2.41-2.51-.78-4.95-1.66-7.32-2.64-2.38-.97-4.5-2.22-6.37-3.73-1.87-1.51-3.38-3.4-4.52-5.67-1.14-2.26-1.71-5.1-1.71-8.5,0-2.66.51-5.22,1.52-7.69,1.01-2.47,2.49-4.65,4.43-6.54,1.95-1.89,4.35-3.4,7.21-4.55,2.86-1.14,6.13-1.71,9.79-1.71,4.11,0,7.81.66,11.08,1.96,3.27,1.31,6.26,3.31,8.95,6.01l-1.35,2.58Z"/>
    </g>
    <g>
      <path class="cls-2" d="m200.75,227.35c2.35,0,4.27.78,5.91,2.42s2.42,3.56,2.42,5.84v31.69c-1.71,2.35-4.13,4.27-7.26,5.84h-.07c-1.21.5-2.49,1-3.77,1.35-5.27,1.78-10.75,2.64-16.38,2.64-28.13,0-40.53-22.15-40.53-49.07s12.39-49.14,40.53-49.14c8.55,0,16.6,1.99,24.22,5.91,9.9,5.63,6.34,19.37,6.34,19.3h.71l5.91-18.09s-3.06,2.42-7.05-.36c-9.26-5.98-19.3-8.97-30.13-8.97-14.24,0-27.42,5.27-37.61,15.03-10.04,9.76-15.6,22.58-15.6,36.32s5.56,26.42,15.6,36.32c10.19,9.69,23.36,15.03,37.61,15.03,9.76,0,18.95-2.49,27.49-7.41l12.68,6.27v-42.66c0-2.28.78-4.2,2.42-5.84s3.56-2.42,5.84-2.42v-1.14h-29.27v1.14Z"/>
      <path class="cls-2" d="m322.69,270.02c0,2.28-.78,4.2-2.42,5.84-1.64,1.64-3.56,2.42-5.84,2.42v1.14h29.2v-1.14c-2.28,0-4.2-.78-5.84-2.42-1.64-1.64-2.42-3.56-2.42-5.84v-80.48c0-2.28.78-4.06,2.42-5.27,1.64-1.21,3.56-1.85,5.84-1.85v-1.14l-20.94-2.35v91.1Z"/>
      <path class="cls-2" d="m373.11,270.02v-91.1l-20.94,2.35v1.14c2.28,0,4.2.64,5.84,1.85,1.64,1.21,2.42,2.99,2.42,5.27v80.48c0,2.28-.78,4.2-2.42,5.84-1.64,1.64-3.56,2.42-5.84,2.42v1.14h29.2v-1.14c-2.28,0-4.2-.78-5.84-2.42-1.64-1.64-2.42-3.56-2.42-5.84Z"/>
      <path class="cls-2" d="m420.4,204.56c0-3.92,1.35-7.19,4.06-9.9,2.78-2.78,6.05-4.13,9.9-4.13-3.85,0-7.12-1.35-9.9-4.06-2.71-2.78-4.06-6.05-4.06-9.9,0,3.85-1.35,7.12-4.13,9.9-2.71,2.71-5.98,4.06-9.9,4.06,3.92,0,7.19,1.35,9.9,4.13,2.78,2.71,4.13,5.98,4.13,9.9Z"/>
      <path class="cls-2" d="m496.26,213.18c-5.34.57-10.04,2.21-13.96,4.99-3.42,2.42-5.98,5.48-7.62,9.26v-13.39l-20.94,2.28v1.14c2.28,0,4.2.64,5.84,1.85,1.64,1.28,2.42,3.06,2.42,5.34v29.86c-7.21,8.39-29.66,22.48-41.81,22.63-16.74.2-23.22-20.44-20.44-38.24h48.29l-.21-1.35c-1.35-6.91-4.27-12.54-8.76-17.02-5.06-4.91-11.4-7.41-18.87-7.55-9.19,0-17.09,3.2-23.72,9.62-6.77,6.98-10.11,15.03-10.11,24.22-.28,18.45,15.39,32.83,33.83,32.62,12.62,0,34.99-13.64,41.81-22.35v12.95c0,2.28-.78,4.2-2.42,5.84-1.64,1.64-3.56,2.42-5.84,2.42v1.14h29.2v-1.14c-2.28,0-4.2-.78-5.84-2.42-1.64-1.64-2.42-3.56-2.42-5.84v-31.12h.07c0-8.19,2.92-14.53,8.83-18.87,6.91-4.84,20.73-4.7,22.79,5.91l4.42-11.18c-4.63-1.5-9.47-2.07-14.53-1.57Zm-76.07,1.99c11.18,0,14.24,7.41,14.96,14.81.21,3.7-2.42,6.62-6.05,6.62h-28.92c2.42-11.75,9.26-21.44,20.01-21.44Z"/>
      <path class="cls-2" d="m540.27,270.02v-57.05s-20.94,2.12-20.94,2.12v1.14c2.28,0,4.2.64,5.84,1.85,1.64,1.28,2.42,3.06,2.42,5.34v46.59c0,2.28-.78,4.2-2.42,5.84-1.64,1.64-3.56,2.42-5.84,2.42v1.14h29.27v-1.14c-2.35,0-4.27-.78-5.91-2.42-1.64-1.64-2.42-3.56-2.42-5.84Z"/>
      <path class="cls-2" d="m533.58,204.56c0-3.85,1.35-7.12,4.06-9.83,2.78-2.78,6.05-4.13,9.97-4.13-3.92,0-7.19-1.35-9.97-4.13-2.71-2.78-4.06-6.05-4.06-9.9,0,3.85-1.35,7.12-4.13,9.9-2.71,2.78-5.98,4.13-9.9,4.13,3.92,0,7.19,1.35,9.9,4.13,2.78,2.71,4.13,5.98,4.13,9.83Z"/>
      <path class="cls-2" d="m615.84,273.43c-1.42-1.14-2.21-2.78-2.42-4.84v-25.36c-3.7.85-7.91,1.71-12.68,2.49v25.5c0,.07,0,.21.07.28v.14c0,.07,0,.21.07.28v.21c.07.07.07.21.07.28v.14c-5.63,2.49-11.04,3.92-16.17,4.34-5.06.36-9.05-.93-12.04-3.7-2.99-2.85-4.7-6.34-5.2-10.47s.5-7.98,2.99-11.54c2.49-3.63,6.7-5.98,12.61-7.19l6.2-1.07c3.42-.5,7.19-1.14,11.4-1.85,4.27-.78,8.48-1.57,12.61-2.49-.07-.78-.14-1.57-.28-2.35s-.28-1.57-.5-2.35c-1.64-6.13-4.99-11.11-9.9-15.03-4.91-3.92-10.68-5.91-17.16-5.91-12.32,0-19.94,3.92-25.28,11.61l7.55,11.75c-.64-6.41,1-21.15,17.73-21.08,12.82-.07,14.81,9.12,15.17,21.15.07.78.07,1.57.07,2.35-6.34,1.14-11.47,1.99-15.38,2.64l-2.64.43c-6.05.78-11.68,2.07-16.88,3.99-5.77,2.35-9.26,5.98-10.4,10.75-1.21,5.7-.07,10.61,3.49,14.67,4.77,5.13,13.03,8.19,22.15,8.19,1.28,0,2.56-.07,3.92-.21,5.34-.5,10.97-2.07,16.88-4.56.07.14.21.29.28.5h.07v.07l.28.36v.07h.07c.07.14.21.29.36.43v.07h.07l.28.36h.07v.07q.07,0,.14.07v.07h.07q0,.07.07.07l.14.14h.07l.14.14.07.07h.07v.07q.07,0,.14.07l.14.14q.07,0,.14.07l.21.14q.07,0,.14.07t.14.07c.07.07.14.07.21.07l.14.14c.07,0,.14,0,.21.07q.07,0,.14.07c.07,0,.14,0,.21.07q.07.07.14.07c.07,0,.14,0,.21.07q.07,0,.14.07c.07,0,.14,0,.21.07h.14c.07.07.14.07.21.07h.07q.07,0,.14.07h.28l.07.07h.36c.14.07.28.07.36.07h.43c1.64,0,3.21-.28,4.63-.78,4.84-1.5,8.26-5.06,8.19-5.06v-.07c-3.06,1.92-4.34,1.78-5.77.57Z"/>
      <path class="cls-2" d="m585.17,253.91c0,1.64-.58,3.04-1.76,4.23-1.16,1.16-2.56,1.73-4.23,1.73,1.67,0,3.07.58,4.23,1.76,1.19,1.16,1.76,2.56,1.76,4.23,0-1.67.58-3.07,1.73-4.23,1.19-1.19,2.59-1.76,4.23-1.76-1.64,0-3.04-.58-4.23-1.73-1.16-1.19-1.73-2.59-1.73-4.23Z"/>
      <path class="cls-2" d="m300.11,273.43c-1.42-1.14-2.21-2.78-2.42-4.84v-25.36c-3.7.85-7.91,1.71-12.68,2.49v25.5c0,.07,0,.21.07.28v.14c0,.07,0,.21.07.28v.21c.07.07.07.21.07.28v.14c-5.63,2.49-11.04,3.92-16.17,4.34-5.06.36-9.05-.93-12.04-3.7-2.99-2.85-4.7-6.34-5.2-10.47-.5-4.13.5-7.98,2.99-11.54,2.49-3.63,6.7-5.98,12.61-7.19l6.2-1.07c3.42-.5,7.19-1.14,11.4-1.85,4.27-.78,8.48-1.57,12.61-2.49-.07-.78-.14-1.57-.28-2.35s-.28-1.57-.5-2.35c-1.64-6.13-4.99-11.11-9.9-15.03-4.91-3.92-10.68-5.91-17.16-5.91-12.32,0-19.94,3.92-25.28,11.61l7.55,11.75c-.64-6.41,1-21.15,17.73-21.08,12.82-.07,14.81,9.12,15.17,21.15.07.78.07,1.57.07,2.35-6.34,1.14-11.47,1.99-15.38,2.64l-2.64.43c-6.05.78-11.68,2.07-16.88,3.99-5.77,2.35-9.26,5.98-10.4,10.75-1.21,5.7-.07,10.61,3.49,14.67,4.77,5.13,13.03,8.19,22.15,8.19,1.28,0,2.56-.07,3.92-.21,5.34-.5,10.97-2.07,16.88-4.56.07.14.21.29.28.5h.07v.07l.28.36v.07h.07c.07.14.21.29.36.43v.07h.07l.28.36h.07v.07q.07,0,.14.07v.07h.07q0,.07.07.07l.14.14h.07l.14.14.07.07h.07v.07q.07,0,.14.07l.14.14q.07,0,.14.07l.21.14q.07,0,.14.07t.14.07c.07.07.14.07.21.07l.14.14c.07,0,.14,0,.21.07q.07,0,.14.07c.07,0,.14,0,.21.07q.07.07.14.07c.07,0,.14,0,.21.07q.07,0,.14.07c.07,0,.14,0,.21.07h.14c.07.07.14.07.21.07h.07q.07,0,.14.07h.28l.07.07h.36c.14.07.28.07.36.07h.43c1.64,0,3.2-.28,4.63-.78,4.84-1.5,8.26-5.06,8.19-5.06v-.07c-3.06,1.92-4.34,1.78-5.77.57Z"/>
      <path class="cls-2" d="m269.43,253.91c0,1.64-.58,3.04-1.76,4.23-1.16,1.16-2.56,1.73-4.23,1.73,1.67,0,3.07.58,4.23,1.76,1.19,1.16,1.76,2.56,1.76,4.23,0-1.67.58-3.07,1.73-4.23,1.19-1.19,2.59-1.76,4.23-1.76-1.64,0-3.04-.58-4.23-1.73-1.16-1.19-1.73-2.59-1.73-4.23Z"/>
    </g>
  </g>
</svg>