<?xml version="1.0" encoding="UTF-8"?><svg id="a" xmlns="http://www.w3.org/2000/svg" viewBox="0 0 85 65"><path d="M59.59,34.92c-1.18-5.56-4.33-9.7-9.36-12.31-1.87-.97-3.96-1.55-6.39-1.76-.53-.04-.58-.39-.58-.65,0-.34,0-.69,0-1.03,0-.45,0-.89,0-1.34,0-.05,0-.09,0-.11-.01,0-.05,0-.11,0-.48,.02-.96,.01-1.43,0h-.6c-.32,0-.64,0-.7,.04-.04,.06-.04,.39-.04,.68,0,.11-.01,.23-.03,.35-.02,.17-.05,.38,.02,.44,.05,.05,.28,.02,.43,0,.12-.01,.25-.05,.33-.03,.17,0,.37,.02,.51,.18,.1,.12,.14,.28,.11,.48-.01,.1-.01,.21,0,.31,.02,.18,0,.33-.1,.44-.12,.15-.3,.19-.46,.21-.63,.07-1.34,.14-2.02,.28-4.15,.83-7.6,2.93-10.26,6.23-2.33,2.9-3.59,6.15-3.73,9.64-.09,2.32-.08,4.69-.06,6.98,0,1.1,.02,2.19,.02,3.29h0c.48,0,.92-.02,1.36,0,.09,0,.13,0,.15,0,0,0,0-.05,0-.16-.01-2.91-.01-5.83,0-8.74,0-2.25,.38-4.22,1.13-6.02,2.16-5.14,6.02-8.39,11.49-9.68,.49-.11,.94-.21,1.47-.19l.44,.02-.83,1.69c-.86,1.71-1.71,3.42-2.57,5.13-.11,.22-.16,.42-.16,.65,0,1,0,2,0,3v2.42c0,1.84,0,3.68,0,5.51,.02,.19,.05,.46-.21,.63-.29,.2-.72,.11-.89,.06-.17-.05-.57-.19-.71-.5l-.6-1.35c-.44-.99-.87-1.98-1.33-2.96-.25-.55-.37-1.12-.35-1.75,.01-.36,.01-.72,0-1.09,0-.31,0-.62,0-.93v-.05h-.06c-.32,0-.65,0-.97,0-.33,0-.67,0-1,0-.13,0-.26,0-.39-.03-.19-.02-.42-.05-.48,.02-.06,.06-.03,.31-.01,.47,.01,.13,.03,.26,.03,.38,0,.28,0,.6,.04,.66,.06,.04,.35,.04,.64,.04h.22c.18,0,.29,.07,.35,.14,.06,.06,.12,.17,.11,.34,0,.11,0,.23,0,.34,0,.3,.01,.64-.14,.98-.64,1.42-1.28,2.84-1.91,4.27l-.54,1.22c-.09,.2-.17,.38-.17,.58,0,1.6,.01,3.19,0,4.78,0,.05,0,.08,0,.1,.01,0,.04,0,.08,0h.01c1.4-.01,2.79-.01,4.18,0h2.34c1.05,0,2.11,0,3.17,0,.04,0,.06,0,.08,0,0,0,0-.03,0-.05-.03-.34,0-.68,.04-1l.02-.13c.14-1.33,1.07-2.41,2.42-2.81,1.22-.36,2.68,.1,3.48,1.08,.58,.72,.83,1.6,.79,2.77,0,.07,0,.11,0,.13,.01,0,.06,0,.14,0,3.18,0,6.37-.01,9.55,0,.09,.02,.14,0,.16-.01,0,0,0-.05,0-.15-.01-2.91-.01-5.82,0-8.74,0-.22-.04-.42-.14-.63-.18-.4-.35-.8-.52-1.2-.33-.76-.66-1.54-1.04-2.27-.92-1.78-1.26-3.38-1.06-5.03,0-.04,0-.08,0-.12,0-.08,0-.15,0-.22,0-.03,0-.06,0-.07h-.05s-.02,0-.04,0c-.49,.01-.97,0-1.46,.01h-.58c-.31,0-.67,0-.73,.05-.05,.05-.05,.41-.05,.75,0,.32,0,.64,.05,.7,.06,.05,.38,.05,.68,.06,.12,0,.17,0,.23,0,.13,0,.24,.06,.32,.15,.07,.09,.11,.2,.11,.33,0,.11,0,.23,0,.35,0,.31,0,.66-.16,1.02-.48,1.05-.95,2.11-1.42,3.17l-.66,1.49c-.22,.52-.32,.59-.86,.6h-.28c-.15,0-.37,0-.52-.15-.16-.15-.17-.37-.17-.55,.02-1.18,.01-2.36,0-3.54v-.46c0-.33,.01-.66,.03-.99,.03-.76,.07-1.49-.09-2.16-.16-.66-.5-1.28-.87-1.94-.16-.29-.32-.57-.47-.87l-2.24-4.48,1.01,.16c.31,.04,.58,.08,.85,.14,.56,.12,1.11,.25,1.64,.43,4.12,1.34,7.26,3.96,9.31,7.8,.95,1.78,1.53,3.74,1.73,5.83,.11,1.18,.1,2.38,.09,3.54,0,.38,0,.76,0,1.14v.56c0,1.73,0,3.47,0,5.21,0,.07,0,.11,0,.13,.01,0,.04,0,.09,0,.42-.03,.85-.03,1.29,0,.07,0,.11,0,.13,0,0-.01,0-.05,0-.13-.02-3.09-.02-6.17,0-9.26,0-1.09-.09-2.06-.28-2.97m-28.11,6.08c.24-.53,.48-1.06,.73-1.62l.58-1.3,.56,1.26c.25,.56,.48,1.08,.72,1.6,.04,.08,.14,.31,.02,.5-.11,.17-.31,.19-.44,.19h-.04c-.4,0-.79,0-1.19,0h-.48c-.14,0-.35,0-.46-.17-.12-.18-.03-.39,0-.45m7.1,2.59c-.41,.59-.67,1.15-.83,1.76-.11,.41-.48,.41-.6,.41-1.92,0-3.84,0-5.76,0-.07,0-.3,0-.45-.16-.14-.14-.15-.33-.15-.47,.02-.47,.02-.93,0-1.4,0-.12,0-.3,.14-.44,.13-.14,.32-.15,.44-.15,1.72,0,3.43,0,5.19,0h2.34l-.31,.45Zm.54-8.26c0-.12,0-.29,.14-.43,.14-.15,.35-.15,.41-.15,1.89,0,3.79,0,5.68,0,.07,0,.26,0,.4,.14,.1,.1,.14,.22,.14,.4,0,.54-.01,1.08,0,1.63,0,.17-.04,.31-.14,.41-.15,.15-.34,.15-.47,.14h-3.53c-.66,0-1.32,0-1.98,0h-.02c-.15,0-.34-.02-.49-.17-.15-.15-.16-.36-.15-.5,.02-.48,.01-.98,0-1.46v-.03Zm15.11,9.79c0,.08,.01,.31-.14,.47-.14,.14-.33,.16-.48,.16h-.01c-1.91,0-3.81,0-5.72,0-.34,0-.55-.15-.62-.45-.14-.56-.39-1.09-.82-1.72l-.3-.45h5.36c.7,0,1.4,0,2.11,0,.14,0,.35,.02,.49,.16,.16,.16,.15,.4,.14,.47-.02,.44-.02,.89,0,1.35m-3.3-8.29c.24-.52,.47-1.03,.71-1.59l.59-1.31,.58,1.31c.25,.56,.49,1.09,.73,1.62,.08,.17,.08,.32,0,.44-.12,.18-.34,.17-.43,.18h-.25c-.5,0-1,0-1.5,0h-.02c-.1,0-.3,0-.42-.18-.12-.18-.02-.39,.01-.47m-4.25,2.17h1.71c1.71,0,3.42,0,5.13,0,.21,0,.42,.02,.58,.19,.15,.17,.15,.4,.14,.55-.03,.4-.03,.77,0,1.11,.02,.17,.02,.41-.15,.59-.17,.18-.42,.19-.63,.19-.51-.02-1.03-.01-1.55,0h-3.04c-3,0-6,0-9,.01h-.01c-.2,0-.44-.03-.6-.2-.16-.17-.16-.41-.14-.6,.03-.36,.03-.71,0-1.02-.02-.18-.03-.43,.14-.62,.17-.19,.44-.19,.67-.21,1.69,.02,3.38,.01,5.06,.01h1.69Zm-.79-7.77c-.02,.55-.02,.96,0,1.35,0,.08,.01,.3-.14,.47-.16,.16-.39,.16-.5,.16-.67,0-1.34,0-2.01,0h-1.5c-.66,0-1.31,0-1.97,0h-.03c-.14,0-.33-.02-.47-.16-.15-.15-.16-.36-.15-.5,.02-.39,.02-.8,0-1.26,0-.15,0-.36,.16-.51,.15-.15,.36-.15,.5-.16,.33,.02,.65,.01,.97,0h1.53c1.01,0,2.01,0,3.02,0,.1,0,.32,.01,.46,.16,.14,.14,.15,.33,.14,.46m-.5-2.18h-5.77l2.88-5.78,2.89,5.78Z" style="fill:#be9952;"/></svg>