<?xml version="1.0" encoding="UTF-8"?>
<svg id="Layer_1" data-name="Layer 1" xmlns="http://www.w3.org/2000/svg" viewBox="0 0 200 200">
  <defs>
    <style>
      .cls-1 {
        fill: #be9952;
      }
    </style>
  </defs>
  <g id="Group_215" data-name="Group 215">
    <g id="palm-jumeirah-monument-dubai">
      <path id="Path_1513" data-name="Path 1513" class="cls-1" d="m74.5,98.19l-4.4.55c.78,7.2,5.73,13.47,12.96,17.34v-4.39c-4.86-3.36-8.06-8.14-8.56-13.5Zm25.5-21.4c13.58,0,24.69,8.26,25.52,18.7l4.48.56c-.47-12.61-13.72-22.73-30-22.73s-29.52,10.11-30,22.73l4.48-.55c.83-10.44,11.94-18.7,25.52-18.7Zm16.95,34.9v4.39c7.23-3.87,12.18-10.14,12.96-17.34l-4.41-.55c-.49,5.36-3.7,10.13-8.55,13.49h0Zm-16.76-12.87h0c10.93-1.73,18.61,5.39,18.68,5.46.34.3.86.27,1.16-.07.29-.32.27-.81-.03-1.12-5.44-4.74-12.66-6.9-19.81-5.94v-.05c11.11-4.46,20.76,2.53,20.85,2.6.36.27.87.19,1.14-.17.27-.36.19-.87-.17-1.14-.39-.29-8.88-6.47-19.53-3.76,3.74-1.64,11.29-4.24,17.71-1.96.43.14.89-.1,1.03-.52.13-.41-.08-.86-.49-1.02-8.08-2.87-17.41,1.2-20.43,2.71.04-.03.07-.06.1-.09.06-.06,6.61-6.49,15.18-6.25.45.02.83-.32.85-.77s-.32-.83-.77-.85c-.01,0-.02,0-.04,0-6.6-.19-11.94,3.14-14.59,5.19,1.06-1.75,3.89-5.77,8.13-7.17.43-.13.67-.59.53-1.02s-.59-.67-1.02-.53c0,0-.01,0-.02,0-3,1.12-5.61,3.09-7.51,5.67.78-1.92,2.05-4.32,3.22-4.93.4-.22.54-.71.32-1.11-.21-.38-.69-.53-1.08-.34-1.44.75-2.63,2.8-3.43,4.5v-3.48l-.5-1.07h-.11l-.51,1.07v3.49c-.79-1.7-1.99-3.75-3.42-4.5-.4-.21-.89-.06-1.11.34-.21.4-.06.89.34,1.11,0,0,0,0,.01,0,1.17.61,2.44,3.02,3.22,4.93-1.9-2.58-4.5-4.55-7.5-5.67-.43-.14-.89.09-1.03.51-.14.43.09.89.51,1.03h0c4.24,1.4,7.07,5.42,8.14,7.18-2.65-2.05-7.99-5.37-14.6-5.18-.44,0-.8.36-.79.81,0,0,0,.02,0,.03.02.45.39.8.84.79,8.56-.24,15.11,6.18,15.18,6.24.03.03.06.06.1.09-3.01-1.52-12.34-5.58-20.41-2.71-.43.15-.65.62-.5,1.04.15.43.62.65,1.04.5h0c6.41-2.28,13.96.32,17.71,1.96-10.66-2.71-19.16,3.47-19.54,3.76-.36.27-.44.78-.17,1.15.27.36.78.43,1.14.16h0c.1-.07,9.74-7.06,20.85-2.6v.05c-7.15-.96-14.37,1.21-19.81,5.94-.33.31-.35.83-.04,1.16s.83.35,1.16.04c.08-.08,7.76-7.2,18.68-5.48v.02c-6.22.45-12.01,3.34-16.11,8.04-.27.36-.19.87.17,1.14.35.26.83.2,1.11-.13,3.57-4,8.46-6.59,13.78-7.31-6.33,1.84-10.87,8.9-11.08,9.22-.25.37-.15.88.23,1.13.37.25.88.15,1.13-.23,0-.01.01-.02.02-.03.05-.08,4.72-7.32,10.75-8.68v.46c-.39.15-.69.48-.82.88-.2.69-.82.55-1.7,1.44-.5.52-.81,1.19-.88,1.91-.14.27-2.52,0-2.99.27s.47.82.88,1.22.27,1.17.68,1.84,2.04.27,2.04.27c0,0-.48,12.45,0,14.37.41,1.65,2.69,1.97,3.28,2.04h0s.05,0,.07,0c.02,0,.05,0,.07,0v-.02c.59-.06,2.87-.38,3.28-2.04.47-1.91,0-14.36,0-14.36,0,0,1.63.41,2.04-.27s.28-1.44.69-1.84,1.37-.95.89-1.22-2.86,0-3-.27c-.08-.72-.39-1.39-.88-1.91-.89-.89-1.5-.76-1.71-1.44-.12-.4-.42-.73-.82-.88v-.46c6.04,1.35,10.7,8.6,10.75,8.68.23.39.73.51,1.12.28.39-.23.51-.73.28-1.12,0-.01-.01-.02-.02-.03-.2-.32-4.74-7.38-11.07-9.23,5.32.72,10.2,3.31,13.78,7.31.29.35.8.4,1.15.11.34-.28.4-.77.13-1.12-4.1-4.71-9.89-7.6-16.11-8.05Z"/>
    </g>
  </g>
</svg>